<svg id="Layer_1" data-name="Layer 1" xmlns="http://www.w3.org/2000/svg" viewBox="0 0 20 20">
  <title>alerts</title>
  <path d="M16.1569,0a3.84246,3.84246,0,1,0,1.4707.2924A3.84283,3.84283,0,0,0,16.1569,0Z" fill="#323639"/>
  <path d="M14.8983,20H3.45611A3.46,3.46,0,0,1,0,16.5439V5.10174A3.46,3.46,0,0,1,3.45611,1.64563H9.74848a1.28174,1.28174,0,0,1,0,2.56348H3.45611a.8936.8936,0,0,0-.89263.89263V16.5439a.89355.89355,0,0,0,.89263.8926H14.8983a.89367.89367,0,0,0,.8927-.8926V10.2516a1.2817,1.2817,0,1,1,2.5634,0v6.2923A3.4598,3.4598,0,0,1,14.8983,20Z" fill="#323639"/>
</svg>
