<svg xmlns="http://www.w3.org/2000/svg" fill="none" viewBox="0 0 35 35">
  <path fill="#B5B7B9" d="M33.9027 13.7136l-2.0189-1.9814c-.4303-.4226-.6968-.9843-.7521-1.5852l-.2732-2.81357c-.0842-.87471-.4744-1.69152-1.1016-2.30634-.6272-.61483-1.4511-.98816-2.3265-1.05414l-2.7947-.2021c-.596-.04712-1.1564-.30241-1.5834-.72124L21.0334 1.0682c-.6261-.615379-1.449-.9897715-2.3238-1.0571931-.8748-.0674215-1.7454.1764551-2.4581.6886471L13.9476 2.34423c-.4863.34714-1.0789.51261-1.6745.46761l-2.8145-.21795c-.87514-.06941-1.74664.17283-2.46076.68398-.71411.51115-1.22495 1.25836-1.44238 2.10981l-.71253 2.74228c-.14753.58676-.49821 1.10211-.98964 1.45435L1.55733 11.2091c-.713648.5112-1.224096 1.2582-1.441357 2.1093-.21726.8512-.127382 1.7518.253789 2.543L1.589 18.4095c.25859.5406.31885 1.1551.17021 1.7358l-.70858 2.7383c-.218993.8504-.131463 1.7509.2472 2.5431.37866.7922 1.02421 1.4254 1.82313 1.7882l2.57305 1.1691c.54477.2479.98487.68 1.24299 1.2205l1.21528 2.5679c.37863.7889 1.02213 1.4195 1.81805 1.7817.79587.3622 1.69367.4329 2.53637.1997l2.7353-.7925c.5759-.1599 1.1896-.1122 1.7339.1347l2.573 1.1691c.7987.3638 1.7001.4337 2.5452.1974.8451-.2363 1.5798-.7638 2.0745-1.4893l1.5834-2.3302c.3385-.4945.8403-.8537 1.4172-1.0145l2.7195-.7608c.846-.2348 1.5819-.7611 2.078-1.4862.4962-.725.7205-1.6021.6336-2.4767l-.2732-2.8136c-.0584-.5959.0943-1.1935.4315-1.6881l1.5835-2.3302c.4951-.7192.7224-1.5896.6421-2.4594-.0803-.8698-.4631-1.6837-1.0815-2.2999z"/>
  <path stroke="#fff" stroke-linecap="round" stroke-linejoin="round" stroke-width="4" d="M11 18.4167L15.6129 23 24 13"/>
</svg>
