<svg xmlns="http://www.w3.org/2000/svg" fill="none" viewBox="0 0 35 35">
  <path fill="#C4C4C4" d="M33.903 13.714l-2.02-1.982a2.55 2.55 0 01-.751-1.585l-.274-2.814a3.73 3.73 0 00-3.428-3.36l-2.794-.202a2.548 2.548 0 01-1.584-.721l-2.019-1.982A3.723 3.723 0 0016.251.7l-2.303 1.644a2.551 2.551 0 01-1.675.468L9.46 2.594a3.722 3.722 0 00-3.904 2.794L4.843 8.13a2.556 2.556 0 01-.99 1.454L1.557 11.21A3.729 3.729 0 00.37 15.861l1.219 2.549c.259.54.319 1.155.17 1.735l-.708 2.739a3.737 3.737 0 002.07 4.33l2.573 1.17c.545.248.985.68 1.243 1.22l1.215 2.568a3.73 3.73 0 004.355 1.982l2.735-.793a2.547 2.547 0 011.734.135l2.573 1.17a3.722 3.722 0 004.62-1.293l1.583-2.33c.338-.494.84-.854 1.417-1.014l2.72-.761a3.725 3.725 0 002.711-3.963l-.273-2.814a2.555 2.555 0 01.432-1.688l1.583-2.33a3.732 3.732 0 00-.44-4.76z"/>
  <path fill="#fff" fill-rule="evenodd" d="M24.327 12.504a2 2 0 01.17 2.823l-7.098 8a2 2 0 01-2.865.13l-3.903-3.666a2 2 0 112.738-2.915l2.404 2.257 5.73-6.46a2 2 0 012.824-.17z" clip-rule="evenodd"/>
</svg>
