<svg xmlns="http://www.w3.org/2000/svg" fill="none" viewBox="0 0 115 114">
  <path fill="#000" d="M56.757 22.243l.293 9.764.215 5.38c.078 1.852.215 3.811.503 5.778.366 2.487.92 5.064 1.862 7.599-.038.105-.076.21-.116.314-1.448 4.466-2.069 8.84-2.633 13.115-1.004 8.545-1.353 16.658-1.576 23.981-.158 5.764-.2 11.027-.182 15.637l-.518-1.098-3.008-6.317-4.93-10.24c-1.167-2.412-3.479 1.482-2.567 3.365l11.79 24.364 16.023-24.198c.833-1.257-.382-1.723-1.355-1.744-.551-.012-2.654 2.553-5.55 6.484a359.988 359.988 0 00-4.844 6.772c-.396.561-.87 1.242-1.348 1.932.05-.57.08-1.141.081-1.701.053-12.798.332-25.665 1.897-38.257.202-1.572.416-3.139.724-4.672.147-.767.263-1.55.435-2.306l.131-.52c1.114 1.705 2.534 3.312 4.412 4.525 2.06 1.321 4.896 2.025 7.54 1.174 2.65-.814 4.613-2.957 5.691-5.235.533-1.156.928-2.343 1.12-3.587.115-.617.262-1.225.239-1.88-.012-.645.086-1.284-.035-1.938-.225-2.598-1.55-5.296-3.834-6.927-2.249-1.666-5.276-2.131-7.883-1.416-2.642.692-4.78 2.383-6.385 4.29l-1.116 1.498c-.015.022-.026.046-.04.068a40.922 40.922 0 01-.832-4.271 62.61 62.61 0 01-.422-4.649l-.258-4.807-.453-9.617a748.732 748.732 0 01-.597-19.228c-.06-4.669-1.304-3.796-2.122-2.17-.4.802-.626 8.694-.352 20.738zm10.42 23.354c.245-.238.543-.382.807-.582.522-.434 1.13-.635 1.71-.91 1.193-.375 2.449-.535 3.611-.21a5.881 5.881 0 012.917 1.955c.732.97 1.103 2.195 1.273 3.477.141 2.579-.703 5.675-2.46 7.38-1.723 1.788-4.32 1.986-6.556.596-2.157-1.29-3.848-3.636-5.015-6.215.159-.45.324-.897.578-1.293.65-1.298 1.445-2.502 2.406-3.479l.73-.72z"/>
</svg>
