<svg id="Layer_1" data-name="Layer 1" xmlns="http://www.w3.org/2000/svg" xmlns:xlink="http://www.w3.org/1999/xlink" viewBox="0 0 88 84">
  <defs>
    <mask id="mask" x="-8.441" y="0" width="99.029" height="107.541" maskUnits="userSpaceOnUse">
      <g id="mask0">
        <path d="M41.64,0h4.72A41.64,41.64,0,0,1,88,41.64h0A41.64,41.64,0,0,1,46.36,83.281H41.64A41.64,41.64,0,0,1,0,41.64H0A41.64,41.64,0,0,1,41.64,0Z" fill="#fff"/>
      </g>
    </mask>
  </defs>
  <title>audience</title>
  <g mask="url(#mask)">
    <g>
      <path d="M62.638,61.941q-.355-2-.651-4.017c-.093-.637-.184-1.275-.266-1.913-.058-.448-.145-.96.159-1.291a2.507,2.507,0,0,0,.87-1.534,6.952,6.952,0,0,0-.3-1.925c-.279-1.28-.626-2.544-1.009-3.8-.39-1.272-.817-2.533-1.25-3.791a35.3,35.3,0,0,0-1.322-3.491A10.224,10.224,0,0,0,54.085,35.4c-.521-.264-1.583-1.2-2.126-1.414-.5-.193-.5.372-.991.159a1.968,1.968,0,0,1-.98-.777c-.239-.413-.839-.99-.93-1.47-.194-1.018.016-1.885-.71-2.651a5.282,5.282,0,0,0-2.408-1.4c-1.973-.55-4.6-.165-5.794,1.668-.569.876-.767,1.935-1.534,2.649-.67.624-.52,1.051-1.388,1.373-.049.018-1.381-.268-1.43-.25a5.028,5.028,0,0,0-2.727.7,19.089,19.089,0,0,0-3.695,1.893,23.423,23.423,0,0,0-6,5.782,28.313,28.313,0,0,0-3.881,7.486q-.336.969-.6,1.962a2,2,0,0,0-.084,1.133,1.46,1.46,0,0,0,.576.727c.35.252,1.052.416,1.038.923a8.93,8.93,0,0,1-.205,1.172c-.076.453-.138.91-.2,1.365-.284,2.074-.5,4.16-.6,6.252a54.232,54.232,0,0,0-.034,6.22.8.8,0,0,0,.116.366.083.083,0,0,0,.01.153l.159.033a.7.7,0,0,0,.407.14c.107,0,.214.008.322.014,1.132.236,2.263.46,3.41.629q2.091.309,4.2.51a57.493,57.493,0,0,0,8.626.037q4.322-.227,8.644-.111c2.887.075,5.772.2,8.659.252,3.226.057,6.447-.031,9.663-.288a.663.663,0,0,0,.627-.824C63.7,67.185,63.1,64.577,62.638,61.941Z" fill="#fff" fill-rule="evenodd"/>
      <path d="M34.893,33.223a6.461,6.461,0,0,1,.9.065c.026,0,.036.043.007.049-.533.111-1.059.263-1.582.418l-.224.066c-.59.175-1.163.355-1.734.588a15.556,15.556,0,0,0-3.213,1.809,25.742,25.742,0,0,0-8.352,11.308,30.929,30.929,0,0,0-1.2,3.618c-.08.3-.154.6-.225.9-.021.088-.111.314-.061.405s.214.129.293.17l.268.139c.522.269,1.391.712,1.478.755l.136.067a17.366,17.366,0,0,0,7.1,2.079l.02-.214a19.968,19.968,0,0,1,.577-3.515c.017-.062.095-.041.1.014a23.209,23.209,0,0,1,.059,4.084c-.11,2.413-.256,4.825-.386,7.236-.065,1.207-.149,2.412-.225,3.618s-.1,2.446-.274,3.644a.529.529,0,0,1-.588.384.535.535,0,0,1-.465-.527c0-.7.084-1.4.133-2.1q.069-.993.147-1.984c.186-2.414.4-4.824.6-7.236q.105-1.284.224-2.565a18.7,18.7,0,0,1-7.489-2.215c-.034.776-.117,1.551-.2,2.325-.223,2.158-.42,4.316-.567,6.481-.074,1.093-.128,2.188-.175,3.283-.024.538-.042,1.076-.057,1.615,0,.179-.009.359-.013.538l-.008.411a.851.851,0,0,1-.252.692.54.54,0,0,1-.744,0c-.295-.272-.243-.642-.234-1.007.007-.308.016-.615.026-.923q.031-.922.078-1.845c.111-2.149.332-4.29.621-6.423l.112-.823a27.261,27.261,0,0,1,.913-4.569l-.548-.275c-.323-.164-.657-.317-.971-.5a1.019,1.019,0,0,1-.533-.629,2.159,2.159,0,0,1,.12-.991l.006-.028c.077-.318.16-.633.248-.948a31.218,31.218,0,0,1,1.307-3.746,30.681,30.681,0,0,1,3.976-6.861,20.737,20.737,0,0,1,5.2-4.886,14.021,14.021,0,0,1,3.153-1.509,8.4,8.4,0,0,1,1.631-.379C34.3,33.255,34.6,33.236,34.893,33.223Zm5.285-3.87a.535.535,0,0,1,.888.518,6.345,6.345,0,0,1-2.032,3.047,4.661,4.661,0,0,1-3.252,1.108.084.084,0,0,1-.024-.007l.1.141a18.9,18.9,0,0,0,2.7,3.082A8.683,8.683,0,0,0,46.3,39.358a6.469,6.469,0,0,0,4.66-4.47.449.449,0,0,1-.282.026A2.635,2.635,0,0,1,49.491,34a4.309,4.309,0,0,1-.741-1.216,3.209,3.209,0,0,1,.015-2.679.1.1,0,0,1,.194.052l.018.15a6.043,6.043,0,0,0,.547,2.151,4.491,4.491,0,0,0,.63.938,3.674,3.674,0,0,0,.438.417,4.993,4.993,0,0,1,.477.35l.025.027v0a.429.429,0,0,1,.445-.418,1.569,1.569,0,0,1,.517.136l.008,0a19.952,19.952,0,0,1,3.818,2.466,15.193,15.193,0,0,1,5.185,7.566,40.554,40.554,0,0,1,.954,4.541l.163.934a18.894,18.894,0,0,0,1.081,4.151.549.549,0,0,1-.321.789q-.663.249-1.33.486c.218.937.351,1.906.515,2.847.348,2,.773,3.989,1.139,5.987.186,1.021.355,2.046.541,3.068.09.492.184.983.275,1.475.049.265.093.531.14.8l.008.044a.679.679,0,0,1-.258.812.287.287,0,0,1-.336.044L63.6,69.9a.674.674,0,0,1-.429-.414,4.576,4.576,0,0,1-.091-.452c-.056-.284-.11-.567-.16-.851q-.151-.853-.3-1.708l-.091-.533c-.309-1.838-.6-3.687-.751-5.545q-.1-1.236-.206-2.471l-.052-.618c-.067-.781-.149-1.583-.161-2.375l-.265.094-1.3.459a2.71,2.71,0,0,1-1.077.3.658.658,0,0,1-.4-.171c.119,1.686.281,3.369.5,5.043.2,1.523.413,3.045.67,4.559.127.75.258,1.5.4,2.247q.106.559.219,1.119c.038.186.083.372.112.56a.652.652,0,0,1-.146.523.339.339,0,0,1-.455.12.735.735,0,0,1-.384-.49c-.056-.219-.091-.449-.134-.671q-.121-.617-.235-1.233-.235-1.292-.432-2.59a91.532,91.532,0,0,1-.894-9.2c-.072-1.519-.095-3.04-.082-4.561.007-.78.032-1.561.087-2.339s.172-1.559.276-2.339a.022.022,0,0,1,.044,0c.049.875.126,1.748.164,2.624.036.836.052,1.674.08,2.51q.057,1.65.159,3.3a.564.564,0,0,1,.5-.185,7.846,7.846,0,0,0,.827-.288l.982-.328c.515-.172,1.031-.343,1.549-.509a39.861,39.861,0,0,1-1.051-4.744l-.12-.721a31.238,31.238,0,0,0-.93-4.216,13.465,13.465,0,0,0-2.04-4.007,21.7,21.7,0,0,0-3.09-3.244c-.955-.846-1.977-1.61-2.951-2.432a.565.565,0,0,1,0,.18,6.879,6.879,0,0,1-2.1,3.98,8.158,8.158,0,0,1-8.326,1.558,9.664,9.664,0,0,1-6.022-6.029c-.014-.048.05-.068.076-.032l.143.2a.062.062,0,0,1,.042-.066A7.572,7.572,0,0,0,38.495,32.2a5.857,5.857,0,0,0,.935-1.266,5,5,0,0,0,.315-.686l.022-.061A2.25,2.25,0,0,1,40.178,29.353Z" fill="#111" fill-rule="evenodd"/>
      <path d="M45.47,4.851c3.33,0,7.5,3.8,8.721,5.418,1.026,1.359.881,8.363.881,12.518a26.012,26.012,0,0,1-.535,3.345c-.522,3.046-2.8,5.6-7.3,5.6A11.566,11.566,0,0,1,38.016,27.6c-.623-.678-3.663,1.75-4.285.875-1.625,0-2.983-15.182.206-19.736S42.139,4.851,45.47,4.851Z" fill="#fff" fill-rule="evenodd"/>
      <path d="M35.461,5.92a10.111,10.111,0,0,1,7.074-2.531,13.058,13.058,0,0,1,3.939.724,11.836,11.836,0,0,1,1.832.83,4.546,4.546,0,0,1,.593.4l.047.036h0a4.041,4.041,0,0,1,1.359.885,6.3,6.3,0,0,1,2.427.26,5.833,5.833,0,0,1,2.828,1.9,5.205,5.205,0,0,1,1.009,3.681l-.018.226c-.1,1.175-.273,2.686-1.237,3.458a.741.741,0,0,1-.238.13,13.628,13.628,0,0,1,1.436,3.439c1.164,4.559.269,9.312-1.131,13.706-.115.362-.662.6-.94.248a3.091,3.091,0,0,0-2.033-1.2,4.285,4.285,0,0,1-1.475-.182,1.361,1.361,0,0,1-.494-.415,6.39,6.39,0,0,1-2.516.411,5.522,5.522,0,0,1-3.866-1.609.6.6,0,0,1-.159-.536,2.093,2.093,0,0,1,.374-.095,8.248,8.248,0,0,0,4.021,1.233,3.554,3.554,0,0,0,2.333-.622,3.361,3.361,0,0,0,.407-.374,7.27,7.27,0,0,0,2.9-4.127,12.763,12.763,0,0,0,.236-4.755l-.08-.839c-.118-1.231-.226-2.466-.257-3.7h.009c.3-.02.3-.489,0-.47-.781.051-1.556-.077-2.335-.021a3.942,3.942,0,0,0-.141-1.091c-.062-.2-.415-.243-.452,0a7.1,7.1,0,0,0-.074.975c-1.166-.015-2.33-.113-3.495-.073a2.618,2.618,0,0,1-.384-.919l-.045-.125a6.657,6.657,0,0,1-.378,1.187h-.286a24.014,24.014,0,0,0-4.861.393.56.56,0,0,1-.193-.366,12.628,12.628,0,0,0-.57-2.55l-.041-.117-.011-.031a6.4,6.4,0,0,1-.748.968c-.164.177-.337.346-.513.51-.172.191-.349.379-.521.57.006.035.012.07.017.106a5.217,5.217,0,0,1,.019,1.2,5.722,5.722,0,0,1-.6,2.056l-.01.065a1.987,1.987,0,0,1-.285.838,2.163,2.163,0,0,1,.456.812.3.3,0,0,1-.491.285,2.276,2.276,0,0,0-.516-.44.042.042,0,0,1-.058.01,2.34,2.34,0,0,0-1.949.072,1.7,1.7,0,0,0-.839,1.759,2.451,2.451,0,0,0,.946,1.827.855.855,0,0,0,1-.04l.047-.038a.94.94,0,0,1,.575-.25.414.414,0,0,1,.532.261l.005.015a1.048,1.048,0,0,1,.1.45.869.869,0,0,1-.239.515c-.023.025-.048.049-.073.072,2.294,2.484,2.588,6.354,1.412,9.456-.051.136-.106.271-.163.4a.58.58,0,0,1-1.049-.137c-.028-.136-.06-.271-.1-.405-.063-.247-.136-.492-.218-.733l-.031-.09c-.07-.2-.135-.4-.206-.6l-.007-.022-.009-.032-.119.26-.362.785c-.169.366-.707.167-.727-.186V33.6c0-.065-.005-.13-.009-.194A6.179,6.179,0,0,0,35.6,32l-.047.059a4.634,4.634,0,0,1-2.67,1.893c-.285.05-.608-.248-.412-.536.081-.119.159-.241.233-.365q-.1-.045-.18-.093a3.594,3.594,0,0,1-1.087-.978,5.2,5.2,0,0,1-.91-2.9,10.154,10.154,0,0,1,.332-3.261,8.308,8.308,0,0,1,.5-1.3c-.014-.037-.028-.075-.041-.112a17.311,17.311,0,0,1-.541-1.84,18.228,18.228,0,0,1,.729-10.666A15.879,15.879,0,0,1,35.461,5.92ZM34.38,26.146c-.159-.251-.558-.024-.41.229l.006.008a5.566,5.566,0,0,1,.516,1.3c.094.286.547.164.453-.125l-.032-.1A5.469,5.469,0,0,0,34.38,26.146Zm1.388-4.791.106-.052a1.219,1.219,0,0,1,1.022-.128c.528.186,1.094.777.737,1.352a.556.556,0,0,1-.606.246c-.405-.084-.51-.449-.715-.749l-.036-.051c-.125-.181-.284-.432-.492-.5C35.736,21.454,35.716,21.38,35.768,21.355Zm.3-12.2.034-.03c.227-.2-.106-.532-.332-.332-1.033.913-1.392,2.343-1.928,3.561-.12.274.284.514.4.237C34.757,11.433,35.1,10.042,36.066,9.159Zm12.418-.4c-.27-.122-.506.271-.246.4l.009,0a3.768,3.768,0,0,1,1.673,2.214c.118.277.523.038.405-.237l-.067-.155A3.882,3.882,0,0,0,48.484,8.76Zm1.43-.565c-.286-.1-.408.354-.125.453a3.584,3.584,0,0,1,1.752,1.515c.168.248.574.014.405-.237A4.119,4.119,0,0,0,49.914,8.2Z" fill="#111" fill-rule="evenodd"/>
      <path d="M48.345,27.613a2.39,2.39,0,0,1-1-.772.465.465,0,0,1-.093-.361.518.518,0,0,1,.2-.325.481.481,0,0,1,.362-.1.452.452,0,0,1,.306.2l.018.025a1.589,1.589,0,0,0,.58.486,1.311,1.311,0,0,0,.716.126,1.925,1.925,0,0,0,1.168-.67q.066-.068.132-.138a.211.211,0,0,1,.109-.084.237.237,0,0,1,.151,0,.242.242,0,0,1,.119.09.221.221,0,0,1,.037.146,1.5,1.5,0,0,1-.5.952,2.131,2.131,0,0,1-2.306.418Zm1.42-5.666c.443.27,1.118.9.642,1.565-.561.589-1.369-.086-1.767-.391-.369-.237-.783.372-.441.648,2.875,2.129,4.042-1.751,1.79-2.138C49.741,21.588,49.649,21.864,49.765,21.947Zm-5.152-2.476c.048-.608.974-.746,1.066-.145a2.466,2.466,0,0,1-.257,1.518.453.453,0,0,1-.859-.174A4.862,4.862,0,0,1,44.613,19.471Zm7.041-.27a.493.493,0,0,1,.538-.219c.7.2.492,1.194.247,1.676a.484.484,0,0,1-.757.1,1.174,1.174,0,0,1-.066-1.5A.573.573,0,0,1,51.654,19.2Zm-6.242-2.389.11-.02c.34-.059.764-.115,1.005.159a.4.4,0,0,1,0,.554c-.3.245-.636.15-1,.171a3.977,3.977,0,0,0-.873.148,5.973,5.973,0,0,0-1.683.871c-.071.048-.143-.043-.109-.109a3.477,3.477,0,0,1,1.517-1.415A3.781,3.781,0,0,1,45.412,16.812Zm5.607-.273.084.017a3.528,3.528,0,0,1,2.543,1.476c.017.127,0,.155-.015.173l-.005.005a.116.116,0,0,1-.076.054l-.046-.012a2.66,2.66,0,0,1-.51-.2l-.165-.082a4.583,4.583,0,0,0-.59-.251,6.969,6.969,0,0,0-1.345-.3.549.549,0,0,1-.27-.1.408.408,0,0,1-.151-.23.413.413,0,0,1,.047-.345.438.438,0,0,1,.213-.183A.494.494,0,0,1,51.019,16.539Z" fill="#111" fill-rule="evenodd"/>
      <path d="M54.712,22.472a2,2,0,0,1-1.8.642c-1.456-.141-1.915-1.8-1.962-3.081.976.275-.083-1.672,3.255-1.886,1.177-.1.853.613,1.373,1.133A5.471,5.471,0,0,1,54.712,22.472Zm-6.937-1.253c-.859,4.028-5.567,3.07-6.062-.56.457-.323.336-1.119.9-1.408a5.418,5.418,0,0,1,3.044-.536,3.28,3.28,0,0,1,2.348,1.22A8.244,8.244,0,0,1,47.775,21.219Zm8.8-3.739-.145-.023a.417.417,0,0,0-.133-.047,2.305,2.305,0,0,0-.351-.061c-1.673-.377-5.545.158-5.7,1.586a5.314,5.314,0,0,1-1.612.035c-.47-1.966-8.6-1.689-8.989-.5l0,0a6.093,6.093,0,0,0-1.359-.106,11.8,11.8,0,0,0-2.735.256c-1.682.267-3.977.58-2.808,2.681h0a.333.333,0,0,0,.557-.239c-.394-1,.495-1.115,1.178-1.4a11.453,11.453,0,0,1,5.19-.507,1.269,1.269,0,0,0,.545.363c1.176.195.557,1.068,1.3,1.195a3.431,3.431,0,0,0,5.694,2.7,5.622,5.622,0,0,0,1.255-3.188.3.3,0,0,0,.21-.156,1.371,1.371,0,0,1,.908-.553,1.619,1.619,0,0,1,.933.112c.013.026.027.053.043.079a.3.3,0,0,0,.089.095c-.491,3.029,1.859,4.945,4.232,3.374a5.267,5.267,0,0,0,1.292-3.782.4.4,0,0,0,.18-.453.573.573,0,0,1,.338-.652A.445.445,0,0,0,56.577,17.48Z" fill="#111" fill-rule="evenodd"/>
      <path d="M-4.118,86.991a.713.713,0,0,0,1.179.034c2.974.693,6.022.42,9.038.25,8.5-.346,17.041.738,25.5-.4.9-.18,1.942-.094,2.677-.717,1.175-1.377.922-3.468.735-5.145-1.5-9.456-3.633-19-4.7-28.515a7.412,7.412,0,0,1,.649-2.885c.082-.159.605-.314.876-.5a1.423,1.423,0,0,0-.024-2.3c-2.336-1.647-5.588-1.071-8.066-.464-.475-1.784-1.009-2.958-1.913-3.074-1.721-.221-5.9-.9-7.182,0-.615.429-1.01,1.942-1.452,2.679-3.23-.058-9.785-4.38-11.132.487A2.022,2.022,0,0,0,.1,48.631c-1.42,1.255-.3,3.137-.32,4.7C-.4,56.645-2.2,59.61-2.943,62.812c-1.7,6.21-3.634,17.508-1.52,23.57-.045-.024-.145.012-.08.062C-4.3,86.512-4.273,86.814-4.118,86.991Z" fill="#fff" fill-rule="evenodd"/>
      <path d="M33.012,85.412a89.031,89.031,0,0,1-.676-10.243.235.235,0,0,1,.469,0,89.031,89.031,0,0,0,.676,10.243C33.518,85.711,33.048,85.707,33.012,85.412ZM30.073,65.66a2.321,2.321,0,0,1-2.024-.133c-.276-.113-.154-.567.125-.453.461.189,1.136.467,1.623.2s.509-.987.512-1.464a.235.235,0,0,1,.469,0A2.074,2.074,0,0,1,30.073,65.66ZM28.939,80.237a4.638,4.638,0,0,1-1.571-1.3c-.184-.24.224-.473.406-.237a4.112,4.112,0,0,0,1.4,1.132C29.445,79.97,29.207,80.375,28.939,80.237ZM25.966,63.856a79.713,79.713,0,0,0-2.122,12.952c-.071.888-.121,1.773-.149,2.66q-.042.346-.08.695a23,23,0,0,0-.163,2.649c0,.4.016.791.043,1.185-.047-.132-.091-.264-.133-.4-.086-.271-.143-.551-.231-.82-.073-.222-.166-.435-.254-.65h0c.026-.882-.033-1.772-.064-2.65-.039-1.137-.088-2.273-.113-3.41-.05-2.276-.025-4.553.057-6.827.165-4.582.581-9.142,1-13.706.117-1.269.242-2.537.329-3.809s.123-2.572.133-3.86a.086.086,0,0,0-.166-.028,6.2,6.2,0,0,0-.131-.906c1.011.645,2.078,1.2,3.124,1.79.551.309,1.1.624,1.667.9.312.152.627.292.948.425a1.6,1.6,0,0,0,1.018.231.421.421,0,0,0,.091-.036c-.042.08-.084.158-.124.238q-.207.413-.4.83a.3.3,0,0,0-.087.1c-.062.122-.123.244-.181.369l-.036-.034a.052.052,0,0,0-.073.074l.058.068c-.382.823-.693,1.689-1.013,2.534q-.591,1.557-1.118,3.138Q26.76,60.674,25.966,63.856ZM10.8,79.291a40.7,40.7,0,0,0-5.54,3.65c-.24.184-.473-.224-.237-.405a40.757,40.757,0,0,1,5.54-3.65C10.828,78.743,11.064,79.149,10.8,79.291Zm-6.6-12.269a.242.242,0,0,1-.226-.172,4.525,4.525,0,0,1-.135-2.018c.066-.295.518-.169.452.125a3.705,3.705,0,0,0,.1,1.606,17.8,17.8,0,0,0,5.02-.948.235.235,0,0,1,.125.452A17.119,17.119,0,0,1,4.194,67.022ZM38.146,84.328l0-.013a3.549,3.549,0,0,0,.114-.976,13.573,13.573,0,0,0-.052-1.7,24.7,24.7,0,0,0-.618-3.52c-.549-2.3-1.326-4.532-1.747-6.861-.828-4.571-.631-9.331-2.255-13.74a15.583,15.583,0,0,0-2.95-5.051c.1-.291.189-.582.28-.875a13.86,13.86,0,0,0,.419-1.56.3.3,0,0,0,.007-.043,1.8,1.8,0,0,0,1.152-1.3,1.487,1.487,0,0,0-.118-.8.99.99,0,0,0,.342-.858c-.065-.7-.878-.875-1.443-1.011a5.736,5.736,0,0,0-1.967-.124,5.821,5.821,0,0,0-.981.189,2.077,2.077,0,0,0-.806.352.038.038,0,0,0,.027.065c.453,0,.9-.167,1.36-.189a5.684,5.684,0,0,1,1.425.115,5.187,5.187,0,0,1,1.333.455c.117.062.289.1.151.228a.806.806,0,0,1-.428.112.588.588,0,0,0-.571.5.579.579,0,0,0,.416.638.189.189,0,0,1,.044.013c.007.014.019.027.018.007h0c.007.042.009.059.009.062l-.007-.03.01.053c-.007-.027,0,.04-.007.051-.152.281-.6.361-.866.482a.569.569,0,0,0-.132.082c-.063-.022-.126-.043-.19-.067-.315-.118-.629-.233-.948-.339-.616-.206-1.239-.39-1.855-.6-1.166-.391-2.293-.884-3.438-1.331a3.809,3.809,0,0,0-.128-.4c-.01-.027-.058-.035-.063,0-.018.114-.032.229-.044.343a.05.05,0,0,0,0,.034c-.067.669-.049,1.354-.083,2.022-.042.833-.16,1.66-.193,2.494v.015q-.186,1.068-.336,2.142a.478.478,0,0,0-.375.043,7.413,7.413,0,0,1-3.051.841,9.023,9.023,0,0,1-1.593-.048c-.348-.04-.692-.112-1.036-.182.181-.759.376-1.516.595-2.264a17.177,17.177,0,0,1,.633-1.82c.251-.6.564-1.169.856-1.749a.437.437,0,0,0-.373-.65c-.1.009-.206.015-.31.02a21.082,21.082,0,0,1-3.058-.165c-1.135-.115-2.285-.234-3.409-.421a.066.066,0,0,0-.036.127c.534.179,1.061.382,1.609.517s1.129.266,1.7.365q.822.141,1.648.24c.36.044.723.066,1.085.1A12,12,0,0,0,16.8,50.882c-.376,1.111-.652,2.255-.922,3.4q-.868,3.669-1.428,7.4-.4,2.673-.647,5.366c-.048-.545-.107-1.088-.173-1.631a45.864,45.864,0,0,0-.978-5.355.351.351,0,0,0,.044-.229,6.366,6.366,0,0,0-.463-1.356q-.269-.942-.58-1.87a21.287,21.287,0,0,0-.839-2.485,17.17,17.17,0,0,0-.882-1.8,25.357,25.357,0,0,0-1.3-2.378.5.5,0,0,0-.122-.193c-.086-.136-.173-.27-.262-.4-.058-.086-.225-.034-.181.077.021.051.041.1.062.154-1.928-.482-3.818.255-5.654.8a14.112,14.112,0,0,1-1.407.352A3.19,3.19,0,0,1-.111,50.8c-.249-.051-.359-.165-.238-.431a1.4,1.4,0,0,1,.766-.579,1.042,1.042,0,0,0,.328-.132.586.586,0,0,0,.239-.73A.579.579,0,0,0,.3,48.593l-.117.047a.1.1,0,0,1-.013-.026c-.039-.107-.056.021-.039-.133C.154,48.23.419,48,.6,47.858A2.116,2.116,0,0,1,2.29,47.37a1.31,1.31,0,0,1,.132.038c.6.208.894-.658.413-.981l-.107-.072c-.2-.139-.492-.374-.412-.585.1-.262.679-.413.9-.5a7.578,7.578,0,0,1,2.512-.543,8.219,8.219,0,0,1,2.569.29,8.674,8.674,0,0,1,1.213.462c.347.156,1.1.364,1.149.8a.092.092,0,0,0,.179.025c.236-.843-.681-1.387-1.287-1.735a6.564,6.564,0,0,0-1.283-.511,7.458,7.458,0,0,0-1.279-.294,8.581,8.581,0,0,0-2.806.068,5.766,5.766,0,0,0-2.465.986,1.254,1.254,0,0,0-.44,1.381l.017.052A3.265,3.265,0,0,0-.649,47.419a1.548,1.548,0,0,0-.246,1.759c-.015.01-.03.022-.044.033A1.813,1.813,0,0,0-1.6,50.292,1.423,1.423,0,0,0-.527,51.94c-.175.171-.343.353-.508.535a12.583,12.583,0,0,0-1.032,1.3A20.491,20.491,0,0,0-3.706,56.7a23.193,23.193,0,0,0-1.9,6.549,32.533,32.533,0,0,0-.314,3.428c-.048,1.308,0,2.617-.024,3.926a18.116,18.116,0,0,1-.445,3.712c-.269,1.172-.628,2.322-.953,3.479a31.011,31.011,0,0,0-.964,3.946,9.307,9.307,0,0,0-.113,2.062,7.408,7.408,0,0,0,.546,1.962.328.328,0,0,0,.388.2,2,2,0,0,0,.328.886A2.48,2.48,0,0,0-5.547,87.9a9.936,9.936,0,0,0,2.267.085c.818-.029,1.637-.056,2.455-.09q1.285-.052,2.57-.108-.044-1.319-.1-2.634c-.206-4.746-.531-9.494-.54-14.246a.234.234,0,0,1-.049-.037,8.486,8.486,0,0,0-1.3-.909c-.252-.165-.017-.571.236-.405.375.246.766.464,1.118.74,0-.5.006-.989.016-1.484a.235.235,0,0,1,.469,0c-.029,1.491-.02,2.982.014,4.473.109,4.831.452,9.653.609,14.482,2.3-.1,4.6-.2,6.9-.281l5.611-.2a.683.683,0,0,0,.661-.661,2.868,2.868,0,0,0-.452-1.939.751.751,0,0,0-.135-.156c.009-.4.025-.809,0-1.213-.034-.618-.085-1.235-.129-1.851-.091-1.235-.16-2.473-.188-3.711q-.084-3.714.125-7.426a92.008,92.008,0,0,1,2.005-14.679q.117-.528.238-1.056a6.183,6.183,0,0,0,2.754.594,7.7,7.7,0,0,0,3.285-.732c-.007.053-.014.106-.02.159-.288,2.288-.53,4.581-.741,6.877-.421,4.577-.679,9.173-.643,13.77.01,1.274.058,2.544.119,3.816a17.19,17.19,0,0,0,.516,3.908.336.336,0,0,0,.23.246c.006.182.017.364.03.544a8.562,8.562,0,0,0,.415,2.326,2.34,2.34,0,0,0,1.189,1.151,4.511,4.511,0,0,0,2.1.158c3.075-.2,6.148-.47,9.222-.706l1.284-.1a2.519,2.519,0,0,0,1.112-.253,2.172,2.172,0,0,0,.551-1.785A.9.9,0,0,0,38.146,84.328Z" fill="#111" fill-rule="evenodd"/>
      <path d="M18.246,22.75c3.33,0,6.775,2.582,8,4.23,1.026,1.385,1.579,7.65,1.579,11.883a28.2,28.2,0,0,1,.346,3.4c-.522,3.1-2.8,5.707-7.3,5.707S13.13,46.186,9.783,41.39c-1.625,0-2.412-1.246-2.423-3.212a2.932,2.932,0,0,1,1.567-2.683s-.563-7.761.856-9.781S14.916,22.75,18.246,22.75Z" fill="#fff" fill-rule="evenodd"/>
      <path d="M16.846,21.653a22.372,22.372,0,0,1,6.235.336.338.338,0,0,1,.281.257c.976.045,1.953.117,2.928.17a.461.461,0,0,1,.393.685c-.032.062-.066.123-.1.184l.043-.014a1.147,1.147,0,0,1,.9.009.9.9,0,0,1,.425,1,1.511,1.511,0,0,1-.094.285,1.284,1.284,0,0,1,.24.007.856.856,0,0,1,.762.816,2.486,2.486,0,0,1-.885,1.787.832.832,0,0,1,.069.5.959.959,0,0,1-.616.7,3.242,3.242,0,0,1,.149,1.233.344.344,0,0,1-.266.287,19.371,19.371,0,0,1,.909,4.175,25.561,25.561,0,0,1,.2,3q0,.68-.023,1.36l-.008.17a11.413,11.413,0,0,1-.112,1.489A4.173,4.173,0,0,1,28.74,41.8a5.285,5.285,0,0,1-.261,2.114,7.375,7.375,0,0,1-5.945,4.573c-2.366.386-5.105-.134-6.488-2.284-.021-.034.025-.063.052-.04a6.613,6.613,0,0,0,3.384,1.339,8.553,8.553,0,0,0,6.31-1.567,4.916,4.916,0,0,0,1.692-2.62,4.622,4.622,0,0,0,.128-1.6,8.246,8.246,0,0,0-.447-1.524.461.461,0,0,1,.109-.45c.03-.417.1-.839.127-1.255q.045-.711.055-1.421c.012-.984-.029-1.969-.112-2.948-.151-1.793-.552-3.542-.788-5.32a.294.294,0,0,1-.344.042l-.014-.008-.071-.041-.013,0a3.782,3.782,0,0,1-1.467-.167,4.315,4.315,0,0,1-1.353-.7,6.155,6.155,0,0,0-.111,1.189.319.319,0,0,1-.475.273,19.911,19.911,0,0,1-2.663-1.63l-.3,1.516a.305.305,0,0,1-.445.18,5.63,5.63,0,0,1-1.622-1.422q-.134.255-.268.509l-.135.254a1.092,1.092,0,0,1-.6.605.561.561,0,0,1-.669-.395c-.032-.087-.062-.176-.089-.266a15.444,15.444,0,0,1-.894,1.747,23.353,23.353,0,0,1-1.71,2.355c-.183.233-.5.01-.521-.216-.015-.133-.028-.267-.038-.4-.351.708-.717,1.41-1.116,2.092l.057.224c.164.661.3,1.328.45,1.993a.46.46,0,0,1-.317.558c-.3.044-.583.2-.889.091-.335-.115-.4-.4-.559-.678a1.092,1.092,0,0,0-.107-.152l-.01.013c-.025.032-.084,0-.069-.04l.017-.043c-.136-.144-.3-.264-.447-.393a1.585,1.585,0,0,0-1,.15,1.888,1.888,0,0,0-.818,1.628,4.3,4.3,0,0,0,.6,2.171,1.522,1.522,0,0,0,.7.643c.3.12.628.083.935.2a.349.349,0,0,1,.206.505l-.027.04.091.122c.063.084.128.173.189.267.156.179.321.352.48.529.293.326.578.66.867.99.273.312.562.6.859.893.281.273.632.5.89.793s.319.78-.094.944c-.457.182-.861-.245-1.169-.53l-.013-.011a8.588,8.588,0,0,1-1.477-1.765,1.266,1.266,0,0,1-1.378.026,1.209,1.209,0,0,1-.449-.647.984.984,0,0,1-.22.025l-.111.062a.552.552,0,0,1-.8-.244,1.281,1.281,0,0,1,.115-.926l.023-.059a5.192,5.192,0,0,1,.22-.512,2.8,2.8,0,0,1-.623-.665,4.923,4.923,0,0,1-.75-3.163,2.735,2.735,0,0,1,.849-1.689l-.017-.046a7.005,7.005,0,0,1-.336-1.043,10.924,10.924,0,0,1-.178-1.286,12.323,12.323,0,0,1,.052-2.735,10.8,10.8,0,0,1,1.743-4.78,1.313,1.313,0,0,1-.382-1.17.88.88,0,0,1,.351-.519c.1-.065.217-.075.316-.129l.03-.017c.044-.025.01-.023-.016-.141-.1-.471-.017-.927.5-1.084a1.2,1.2,0,0,1,1.24.538A8.361,8.361,0,0,1,13.8,22.2,18.853,18.853,0,0,1,16.846,21.653ZM8.673,37.476a.588.588,0,0,1,.719-.558,1.432,1.432,0,0,1,.63.334l.092.073a2.246,2.246,0,0,1,.63.629c.2.377-.223.884-.619.62a2.46,2.46,0,0,1-.624-.745L9.483,37.8a1.685,1.685,0,0,0-.263-.348L9.2,37.432a.349.349,0,0,0-.123-.073.268.268,0,0,0-.3.119l0,.011A.05.05,0,0,1,8.673,37.476Z" fill="#111" fill-rule="evenodd"/>
      <path d="M21.6,44.136a2.389,2.389,0,0,1-1-.773A.468.468,0,0,1,20.5,43a.526.526,0,0,1,.2-.325.484.484,0,0,1,.363-.1.452.452,0,0,1,.306.2l.018.025a1.576,1.576,0,0,0,.579.486,1.308,1.308,0,0,0,.717.127,1.928,1.928,0,0,0,1.168-.67l.132-.138a.207.207,0,0,1,.109-.084.237.237,0,0,1,.151,0,.24.24,0,0,1,.118.09.22.22,0,0,1,.038.145,1.505,1.505,0,0,1-.5.953,2.132,2.132,0,0,1-2.307.418Zm1.421-5.666c.443.269,1.118.9.642,1.565-.561.589-1.369-.086-1.767-.391-.368-.237-.783.371-.441.648,2.875,2.129,4.042-1.751,1.79-2.139C22.993,38.111,22.9,38.387,23.017,38.47Zm-5.152-2.477c.048-.607.973-.745,1.066-.144a2.461,2.461,0,0,1-.258,1.518.452.452,0,0,1-.858-.174A4.873,4.873,0,0,1,17.865,35.993Zm7.041-.269a.5.5,0,0,1,.539-.219c.7.2.491,1.194.246,1.676a.485.485,0,0,1-.757.1,1.175,1.175,0,0,1-.066-1.5A.573.573,0,0,1,24.906,35.724Zm-6.242-2.39.11-.019c.341-.059.764-.115,1,.159a.4.4,0,0,1,0,.554c-.3.245-.636.15-1,.171a3.967,3.967,0,0,0-.873.148,5.96,5.96,0,0,0-1.683.871c-.071.047-.143-.043-.109-.109a3.477,3.477,0,0,1,1.517-1.415A3.772,3.772,0,0,1,18.664,33.334Zm5.607-.272.084.017A3.528,3.528,0,0,1,26.9,34.555c.017.127,0,.154-.015.172l0,.006a.113.113,0,0,1-.076.054l-.046-.012a2.624,2.624,0,0,1-.509-.2l-.166-.082a4.589,4.589,0,0,0-.59-.252,7.042,7.042,0,0,0-1.345-.3.549.549,0,0,1-.27-.1.408.408,0,0,1-.151-.23.412.412,0,0,1,.047-.345.433.433,0,0,1,.213-.183A.494.494,0,0,1,24.271,33.062Z" fill="#111" fill-rule="evenodd"/>
      <path d="M47.036,83.627c-.079,0-.054-.021-.025-.027Zm2.358,1.753a29.535,29.535,0,0,0,6.682-.22c4.5-.334,8.96.637,13.465.341,5.63-.237,11.275-.683,16.886.068,1.552.036,4.028.455,3.465-1.949-.74-6.179-1.728-12.327-2.787-18.458-.9-3.438-.962-9.384-3.419-11.774A15.479,15.479,0,0,0,81.7,51.856C80,51.225,76.95,50.733,75.69,49.4c-1.02-1.727-.545-4.084-2.132-5.474-1.39-1.136-4.426-.9-5.912-.043-1.173.761-1.357,2.239-2.088,3.331a7.555,7.555,0,0,1-.85,1.1,9.539,9.539,0,0,1-3.253,1.272c-3.369.691-5.049,1.118-7.7,3.357-6.924,7.072-5.943,19.579-7.859,28.826-.078,1.016-.7,2.4.406,3.05A11,11,0,0,0,49.394,85.38Z" fill="#fff" fill-rule="evenodd"/>
      <path d="M74.919,47.044a.027.027,0,0,1,.052,0,7.263,7.263,0,0,0,.451,1.312,3.76,3.76,0,0,0,.747,1.109,3.32,3.32,0,0,0,2.439.978h.023c0-.031.009-.062.013-.094l.006-.046a.511.511,0,0,1,1-.14c.076.025.152.048.227.074l.015,0c.126.048.554.262.633.205a.3.3,0,0,1,.436.177,3.367,3.367,0,0,1,.16.864l.005.037,0,.044c2.449.637,3.823,3.088,4.524,5.345a36.611,36.611,0,0,1,.879,3.742c.267,1.343.514,2.69.775,4.033.514,2.648,1,5.3,1.424,7.966l.122.773c.388,2.449.765,4.9,1.082,7.358q.258,1.989.487,3.983c.028.237.055.474.083.711l.04.356a1.527,1.527,0,0,1-.06.934.747.747,0,0,1-1.436-.187.458.458,0,0,1,.136-.379V86.19l0-.017c-.031-.165-.039-.339-.058-.506Q89.062,85.135,89,84.6q-.117-1.017-.238-2.034-.247-2.062-.524-4.119l-.183-1.357c-.612-4.521-1.25-9.041-2.09-13.526q-.343-1.831-.7-3.659a26.073,26.073,0,0,0-.869-3.417,10.229,10.229,0,0,0-3.242-4.719c.024.229.041.458.062.686q.084.879.175,1.757A47.267,47.267,0,0,0,82.4,60.527a26.5,26.5,0,0,0,.923,3.033q.273.732.6,1.443a4.364,4.364,0,0,1,.617,1.488.446.446,0,0,1-.475.43c.109.959.171,1.929.236,2.887.095,1.387.171,2.776.282,4.162.2,2.482.447,4.961.707,7.438.051.491.108.981.163,1.472l.047.412a1.331,1.331,0,0,1-.064.823,4.052,4.052,0,0,1,.264.947.677.677,0,0,1-.643.846c-.054,0-.108-.006-.162-.012a6.088,6.088,0,0,1-1.338.195c-.584,0-1.169-.008-1.753-.012q-1.695-.01-3.391-.025c-4.091-.032-8.184-.031-12.275-.1l-1.636-.026c-1.5-.024-3-.052-4.5-.107q-1.55-.057-3.1-.117L56.7,85.7a23.591,23.591,0,0,1-2.724-.19.039.039,0,0,1-.028-.048v-.005l-.04-.009c-.022.1-.5-.316-.494-.591-.2-.256-.105-.666-.084-.963s.047-.579.069-.868c.049-.618.091-1.236.141-1.854.2-2.491.374-4.989.487-7.485.057-1.259.1-2.518.151-3.777.021-.572.052-1.146.108-1.716l.014-.143a6.765,6.765,0,0,1,.269-1.745.008.008,0,0,1,.016,0,5.806,5.806,0,0,1,.279,1.729l.023,0a8.715,8.715,0,0,0,.879-.444l.113-.072c.443-1.356.956-2.689,1.428-4.035a47.049,47.049,0,0,0,2.554-13.6A40.836,40.836,0,0,1,56.2,51.839l-.115.059a9.548,9.548,0,0,0-3.239,2.4,13,13,0,0,0-1.7,3.181c-.5,1.183-.941,2.388-1.348,3.6a59.858,59.858,0,0,0-1.967,7.547,75.669,75.669,0,0,0-1.082,7.613c-.12,1.3-.23,2.609-.322,3.915-.047.661-.088,1.323-.127,1.986-.019.321-.033.643-.054.965a2.131,2.131,0,0,1-.076.552,1.872,1.872,0,0,1-.226.4.4.4,0,0,1-.689,0l-.062-.121a1.274,1.274,0,0,1-.17-.509,4.583,4.583,0,0,1,.021-.536c.019-.357.041-.715.064-1.072q.071-1.128.157-2.255.175-2.256.456-4.5a70.328,70.328,0,0,1,3.455-15.48c.453-1.234.958-2.458,1.528-3.642a8.23,8.23,0,0,1,2.261-3.015,14.2,14.2,0,0,1,3.091-1.684l.134-.059A36.085,36.085,0,0,1,59.851,49.7a.379.379,0,0,0-.08.015c-.028.009-.044-.027-.027-.046a3,3,0,0,1,.184-.239c.056-.054.115-.105.176-.154l.087-.07a1.366,1.366,0,0,1,.529-.3.291.291,0,0,1,.345.4.113.113,0,0,1,.18.036c.936,2.415,1.55,4.971,2.81,7.253a11.278,11.278,0,0,0,3.835,4.26,6.547,6.547,0,0,0,2.959,1.033,4.473,4.473,0,0,0,2.656-.676,9.3,9.3,0,0,0,3.3-4.281,24.13,24.13,0,0,0,1.7-5.659,3.917,3.917,0,0,1-2.882-1.256,3.555,3.555,0,0,1-.787-1.459A2.423,2.423,0,0,1,74.919,47.044Zm-8.886-1.41a.519.519,0,0,1,.649-.213.528.528,0,0,1,.3.613,2.775,2.775,0,0,1-.386.887,4.694,4.694,0,0,1-.569.764,6.575,6.575,0,0,1-1.316,1.176,5.188,5.188,0,0,1-1.64.708l-.137.032a2.115,2.115,0,0,1-1.466-.024.027.027,0,0,1,0-.047,2.3,2.3,0,0,1,.708-.233,6.448,6.448,0,0,0,.753-.262,5.922,5.922,0,0,0,1.349-.8,4.647,4.647,0,0,0,1.084-1.163,7.546,7.546,0,0,0,.37-.7C65.847,46.129,65.905,45.864,66.033,45.634Z" fill="#111" fill-rule="evenodd"/>
      <path d="M84.241,47.726c-.669-3.142-1.1-6.325-1.483-9.512-.185-1.544-.334-3.091-.506-4.636a28.73,28.73,0,0,0-.723-4.284,12.489,12.489,0,0,0-1.611-3.715,10.979,10.979,0,0,0-2.608-2.711,10.281,10.281,0,0,0-7.083-2.02,9.254,9.254,0,0,0-1.122.19c.118-.035.237-.067.357-.095.039-.009.022-.062-.016-.058-10.174.924-12.567,18.625-12.785,22.194-.017.278-.03.554-.04.832-.077.619-.134,1.24-.161,1.862a16.179,16.179,0,0,0,.051,2.157,6.65,6.65,0,0,0,.452,2.161c.187.415,8.937-.154,9.028-.644a12.7,12.7,0,0,0,.219-3.02,9.11,9.11,0,0,0-.18-1.435,3.461,3.461,0,0,0-.134-.564c.8-1.517,1.677-2.991,2.58-4.448a96.554,96.554,0,0,0,5.418-9.24,22.829,22.829,0,0,0,1.894-5.112l.059.012a.053.053,0,0,0,.019.062,10.1,10.1,0,0,1,3.511,4.781,17.951,17.951,0,0,1,1.193,6.878c-.093,3.716-1.5,8.309-5.486,9.484a5.817,5.817,0,0,1-2.822.147A4.77,4.77,0,0,1,71,46.546c-.44-.234-.8-.566-1.213-.838-.378-.25-.823.236-.606.605a4.02,4.02,0,0,0,2.4,1.56,6.636,6.636,0,0,0,2.9.108c.073-.012.146-.026.218-.042a1.172,1.172,0,0,0,.562.906.557.557,0,0,0,.413.525c1.319.274,6.8-.446,8.114-.838A.671.671,0,0,0,84.241,47.726Z" fill="#111" fill-rule="evenodd"/>
      <path d="M80.8,36.394c-.1-4.61-1.247-9.715-5.184-12.564a.678.678,0,0,0-.834.114.623.623,0,0,0-.432.327Q70.859,30.646,67,36.81c-1.651,2.655-3.657,5.314-3.922,8.532-.045.061-.47.541-.223.506a1.931,1.931,0,0,1,.34-.14.692.692,0,0,0,1.218-.131,6.712,6.712,0,0,1,1.771.35c1.407.44,2.836.876,4.271,1.212,4.729,1.256,9.81-.341,10.188-5.856C81.151,40.567,80.877,37.379,80.8,36.394Z" fill="#fff" fill-rule="evenodd"/>
      <path d="M76.273,43.338a2.314,2.314,0,0,1-2.44-.71,1.6,1.6,0,0,1-.423-1.065.169.169,0,0,1,.041-.112.2.2,0,0,1,.1-.062.186.186,0,0,1,.121.011.159.159,0,0,1,.08.078c.045.059.09.118.135.175a2.215,2.215,0,0,0,1.261.9,1.543,1.543,0,0,0,.864-.063,1.853,1.853,0,0,0,.76-.534.4.4,0,0,1,.31-.153.474.474,0,0,1,.333.146.513.513,0,0,1,.154.336.447.447,0,0,1-.128.33A2.6,2.6,0,0,1,76.273,43.338Zm-.014-5.621c.443.27,1.118.9.642,1.565-.561.589-1.369-.086-1.767-.391-.368-.237-.783.372-.441.648,2.875,2.129,4.042-1.751,1.79-2.138C76.235,37.358,76.143,37.634,76.259,37.717Zm-4.143-1.184a.492.492,0,0,0-.5-.038,1.616,1.616,0,0,0-.577.575,1.141,1.141,0,0,0-.189.671.149.149,0,0,1-.049.128.19.19,0,0,1-.107.048.285.285,0,0,1-.113-.01.168.168,0,0,1-.111-.1,1.4,1.4,0,0,1,.068-1.028,2.091,2.091,0,0,1,.751-.943,1.254,1.254,0,0,1,1.214-.006,2.239,2.239,0,0,1,.732.764c.043.063.085.125.129.186a.373.373,0,0,1,.063.349.45.45,0,0,1-.255.264.465.465,0,0,1-.357.005.453.453,0,0,1-.242-.256A1.353,1.353,0,0,0,72.116,36.533Zm7.229.507a.334.334,0,0,1-.281.033.409.409,0,0,1-.166-.1.335.335,0,0,1-.091-.167.68.68,0,0,0-.239-.4.479.479,0,0,0-.381-.1.734.734,0,0,0-.41.246.88.88,0,0,0-.089.13.932.932,0,0,1-.17.224.171.171,0,0,1-.106.04.155.155,0,0,1-.047-.008.493.493,0,0,1-.181-.394.718.718,0,0,1,.133-.367,1.449,1.449,0,0,1,.774-.551,1.148,1.148,0,0,1,.906.2,1.285,1.285,0,0,1,.525.8.426.426,0,0,1-.021.237A.336.336,0,0,1,79.345,37.04ZM72.833,33.6a1.018,1.018,0,0,1-.659.245,3.188,3.188,0,0,0-.336.05,3.1,3.1,0,0,0-.809.3,2.98,2.98,0,0,0-.759.538c-.049.052-.1.108-.142.163s-.083.1-.126.146-.1.111-.144.167c-.028.048-.034.059-.04.071l-.03.061c-.016.03-.035.063-.054.093-.033.055-.05.07-.065.077a.135.135,0,0,1-.072.013.12.12,0,0,1-.062-.03.456.456,0,0,1-.127-.371,1.584,1.584,0,0,1,.164-.623,3.346,3.346,0,0,1,.716-.986,3.5,3.5,0,0,1,1.127-.687,2.292,2.292,0,0,1,.854-.176.843.843,0,0,1,.565.222.5.5,0,0,1,.147.361A.516.516,0,0,1,72.833,33.6Zm6.909,1.74a.1.1,0,0,1-.049.043.113.113,0,0,1-.121-.02.116.116,0,0,1-.033-.056,1.709,1.709,0,0,0-.917-1.265,3.826,3.826,0,0,0-.855-.288,2.607,2.607,0,0,0-.26-.045,1.079,1.079,0,0,1-.741-.313.6.6,0,0,1-.129-.468.5.5,0,0,1,.27-.368,1.573,1.573,0,0,1,1.284.167l.088.037a2.982,2.982,0,0,1,1.037.693,2.252,2.252,0,0,1,.534.986A1.184,1.184,0,0,1,79.742,35.344Z" fill="#111" fill-rule="evenodd"/>
      <path d="M64.2,102.627q-.139-2.608-.346-5.212c-.274-3.458-.633-6.918-1.23-10.336a56.093,56.093,0,0,0-2.6-9.864A20,20,0,0,0,58,73.112a8.929,8.929,0,0,0-3.166-2.891c-1.173-.689-2.536-1.884-3.661-2.656-.47-.322-1.436-.3-1.758-.778-.422-.624-.149-1.579-.574-2.2a5.264,5.264,0,0,0-1.935-1.665,4.691,4.691,0,0,0-2.814-.789A4.462,4.462,0,0,0,40.228,63.7a3.531,3.531,0,0,0-.778,2.035.613.613,0,0,0,.158.465c-.062.083-.124.165-.185.248a.7.7,0,0,0-.938-.22,13.14,13.14,0,0,1-3.146,1.667.731.731,0,0,0-.8.136,1.864,1.864,0,0,1-.288.211q-.62.168-1.258.277a.563.563,0,0,0-.332.2.457.457,0,0,0-.495-.1,15.364,15.364,0,0,0-5.986,3.994,17.188,17.188,0,0,0-3.442,7.034,67.239,67.239,0,0,0-1.684,8.416c-.421,2.869-.835,5.749-1.125,8.634a33.735,33.735,0,0,0-.151,4.893c.037.815.111,1.628.229,2.435.028.189.057.407.1.624a.245.245,0,0,0-.282.283c.2,1.335,1.812,1.723,2.925,1.877a41.748,41.748,0,0,0,5.484.4c1.8.011,3.609-.105,5.41-.209q2.77-.159,5.539-.321,11.1-.651,22.194-1.3a4.026,4.026,0,0,0,2.027-.485A2.288,2.288,0,0,0,64.2,102.627Z" fill="#fff" fill-rule="evenodd"/>
      <path d="M28.133,87.7a.047.047,0,0,1,.073-.057,4.887,4.887,0,0,1,1.467,3.225,29.441,29.441,0,0,1-.1,3.767c-.063,1.381-.12,2.764-.2,4.145-.078,1.4-.162,2.8-.234,4.2l-.162,3.153a3.361,3.361,0,0,1-.109,1.062.482.482,0,0,1-.918,0l0-.013-.011.008a3.614,3.614,0,0,1-.009-1.179l.17-3.445c.12-2.435.227-4.87.356-7.3l.044-.812q.09-1.638.143-3.274l.012-.364A5.914,5.914,0,0,0,28.133,87.7ZM49.9,67.491a2.766,2.766,0,0,1,1.332.293c.2.076.386.164.576.255a1.432,1.432,0,0,1,.536.529l.079.115a21.23,21.23,0,0,1,1.482,2.9C54.45,72.716,55,73.852,55.526,75l.261.563q.2.421.389.846l.222.492a1.574,1.574,0,0,1,.1,1.541,6.275,6.275,0,0,1-1.233,1.219l-1.037.926a6,6,0,0,1,1.477,2.585,6.252,6.252,0,0,1,1.3-.272c.58-.1.651.778.1.767a7.318,7.318,0,0,1-1.294-.052,8.1,8.1,0,0,1,.158.964,15.09,15.09,0,0,1-.6,5.041l-.032.134c-.432,1.776-.841,3.556-1.207,5.346s-.7,3.595-.989,5.4c-.3,1.84-.509,3.69-.736,5.539a.532.532,0,0,1-.519.52.523.523,0,0,1-.52-.52c.234-2.014.565-4.017.9-6.018.568-3.444,1.282-6.859,2.1-10.252l.144-.591a13.434,13.434,0,0,0,.519-4.691,5.038,5.038,0,0,0-1.752-3.458L53.253,81a.5.5,0,0,1-.1-.771l.467-.457.936-.914.188-.185c.158-.154.316-.306.479-.454.1-.09.365-.261.385-.408.012-.1-.1-.265-.147-.353l-.212-.427c-.119-.243-.236-.488-.353-.733-.243-.506-.489-1.011-.726-1.521l-1.427-3.057a19.7,19.7,0,0,0-1.286-2.571l-.1-.155a1.773,1.773,0,0,1-.218-.417,1.729,1.729,0,0,0-.216-.455,1.674,1.674,0,0,0-1.028-.548C49.84,67.568,49.859,67.5,49.9,67.491Zm-10.971-.8a.028.028,0,0,1,.007.054,3.136,3.136,0,0,0-1.2.654,1.879,1.879,0,0,0-.431.513.912.912,0,0,0-.076.239l-.005.028a.849.849,0,0,1-.139.354l-.013.021a11.031,11.031,0,0,0-1.02,2.168l-.608,1.632-.608,1.632q-.292.789-.587,1.578c-.108.29-.219.579-.33.868-.048.125-.1.25-.144.376a1.314,1.314,0,0,1-.04.147l0,.009a2.713,2.713,0,0,0,.634.528l.638.516c.455.368.921.725,1.362,1.11a.467.467,0,0,1-.2.774c-.518.168-1.025.37-1.535.561-.206.077-.421.144-.624.229l-.124.054c-.049.022-.025.022-.023.111a1.949,1.949,0,0,0,.044.284q.257,1.558.546,3.111,1.018,5.493,2.418,10.9c.468,1.822.97,3.634,1.448,5.453s1.1,3.6,1.7,5.379c.169.5-.625.717-.79.218-.691-2.09-1.323-4.2-1.975-6.3C36.1,96.159,35.188,92.344,34.38,88.52q-.6-2.842-1.1-5.706-.094-.543-.185-1.085l-.088-.532a1.165,1.165,0,0,1,.2-1.075,3.08,3.08,0,0,1,1.16-.534l.028-.01c.241-.09.484-.176.725-.266-.356-.28-.707-.567-1.063-.847-.286-.226-.577-.448-.86-.679a1.094,1.094,0,0,1-.447-.746,2.116,2.116,0,0,1,.221-.9l.01-.028c.108-.291.216-.581.326-.87l.685-1.791c.435-1.138.851-2.285,1.309-3.414a12.141,12.141,0,0,1,.611-1.308q.168-.306.364-.6a1.217,1.217,0,0,1,.507-.439c.364-.19.649-.509,1.014-.7A2.4,2.4,0,0,1,38.933,66.687Zm1.18-2.029a.027.027,0,0,1,.051.014,10.549,10.549,0,0,1-.207,1.7c-.083.561-.11,1.153-.23,1.709a.406.406,0,0,1-.014.076l-.006.019a.5.5,0,0,1-.344.329c.051.281.1.564.139.848.069.487.132.976.194,1.465l.075.587q.105.828.206,1.658a4.607,4.607,0,0,0,.526.183,7.083,7.083,0,0,0,1.263.208c.868.085,1.743.125,2.614.173l.187.011a18.406,18.406,0,0,0,2.942-.035,10.182,10.182,0,0,0,1.438-.252c.24-.06.473-.15.713-.209a.89.89,0,0,0,.23-.113.257.257,0,0,1,.15-.092l.017,0,.017,0,.006,0v0a.5.5,0,0,1,.14,0c.017-.432.036-.863.06-1.294a13.915,13.915,0,0,0,0-3.514.03.03,0,0,1,.058-.016,11.235,11.235,0,0,1,.432,3.823c.023,1.251.009,2.5,0,3.753a.627.627,0,0,1,.233.163.386.386,0,0,1,0,.536.731.731,0,0,1-.237.135q-.006,1.63-.023,3.261a.449.449,0,0,1-.008.7c-.039,3.52-.1,7.039-.156,10.558l-.111,7.383c-.015.984-.039,1.968-.048,2.951l.007,0,.025.011c.041.02.1.051.116.084a.033.033,0,0,1,0,.018.356.356,0,0,1,.193.1.346.346,0,0,1,0,.481l-.03.037a.354.354,0,0,1-.317.1c0,.614.005,1.228,0,1.842,0,.187,0,.375-.007.562l-.008.45c0,.256-.027.582-.29.7a.475.475,0,0,1-.682-.278.43.43,0,0,1-.014-.238c0-.121-.023-.262-.02-.374l.01-.469c0-.072,0-.144.006-.217h-.008c-1.053.051-2.114.026-3.169.026h-.469c-.391,0-.783,0-1.174-.017l-.146-.006c-.293-.014-.6-.019-.9-.045.038.312.075.624.107.936a.552.552,0,0,1-.547.547.564.564,0,0,1-.547-.547c-.183-1.383-.258-2.778-.433-4.16-.156-1.239-.292-2.481-.429-3.722l-.046-.413Q40.9,90,40.2,83.223l-.218-2.113c-.22-2.13-.442-4.259-.629-6.392q-.159-1.83-.3-3.66c-.068-.9-.11-1.789-.138-2.684a.453.453,0,0,1-.116-.447c.028-.1.061-.2.1-.3l-.006-.29a.133.133,0,0,1,.166-.124c.135-.329.284-.654.409-.979A10.488,10.488,0,0,1,40.113,64.658ZM28.859,70.343a12.778,12.778,0,0,1,7.126-2.169.053.053,0,0,1,.014.1,23.554,23.554,0,0,0-3.963,1.194,14.982,14.982,0,0,0-3.558,2.109,15.655,15.655,0,0,0-4.55,5.983,27.361,27.361,0,0,0-1.378,4.246c-.386,1.524-.7,3.066-.968,4.616a79.7,79.7,0,0,0-.989,9.261c-.164,3.155-.1,6.313-.214,9.468a.421.421,0,0,1-.841,0,76.3,76.3,0,0,1,.127-10.818,77.644,77.644,0,0,1,1.23-9.61l.054-.275a31.276,31.276,0,0,1,2.689-8.6A14.718,14.718,0,0,1,28.859,70.343ZM58.112,84.365a.034.034,0,0,1,.064,0,8.686,8.686,0,0,1,.312,2.141l.005.054c.062.647.108,1.294.151,1.942l.016.243c.172,2.643.387,5.283.711,7.913s.759,5.22,1.231,7.816a.542.542,0,1,1-1.045.288c-.293-1.49-.53-2.982-.741-4.485q-.558-3.969-.829-7.972-.133-2.009-.166-4.02c-.011-.623.006-1.247.039-1.869l.008-.144A6.989,6.989,0,0,1,58.112,84.365ZM35.349,101.2a.034.034,0,0,1,.046.045,11.405,11.405,0,0,1-1.493,1.8c-.558.59-1.1,1.2-1.671,1.774-.411.417-1.072-.256-.638-.639.61-.538,1.247-1.049,1.868-1.575l.271-.23A9.726,9.726,0,0,1,35.349,101.2Zm19.373-.333a.055.055,0,0,1,.087-.066c.329.267.624.587.941.869s.641.541.977.795.681.5,1.034.733a10.024,10.024,0,0,0,.9.507.567.567,0,0,1,.379.22.594.594,0,0,1-.047.786l-.041.032a.626.626,0,0,1-.855,0c-.3-.265-.577-.557-.861-.838l-.086-.084c-.306-.3-.6-.6-.885-.925l-.255-.289A9.479,9.479,0,0,1,54.722,100.868ZM53.207,69.8c-.054-.036-.021-.134.047-.111l.124.043a8.446,8.446,0,0,1,1.52.657,10.037,10.037,0,0,1,1.418,1.033,13.163,13.163,0,0,1,2.374,2.766,24.033,24.033,0,0,1,2.833,6.667,73.321,73.321,0,0,1,1.709,7.54c.455,2.577.806,5.177,1.037,7.783q.171,1.927.228,3.858c.02.663.02,1.325.014,1.988,0,.171,0,.341,0,.512l.006.511a3.955,3.955,0,0,1-.035.979c-.123.509-.964.414-.936-.106a3.022,3.022,0,0,1-.02-.531c0-.023-.008-.046-.013-.07a.286.286,0,0,1,.025-.187c0-.086.008-.172.01-.255.005-.342.005-.682,0-1.023-.019-.72-.048-1.44-.077-2.159-.058-1.437-.138-2.875-.255-4.309a72.224,72.224,0,0,0-2.7-14.813,22.727,22.727,0,0,0-2.908-6.346,16.744,16.744,0,0,0-1.98-2.378A15.974,15.974,0,0,0,53.207,69.8Zm-9.946,32.175.1.721q.075.54.146,1.082c.318-.044.643-.062.95-.089.536-.048,1.076-.071,1.614-.093,1.112-.046,2.23-.126,3.344-.12l.033,0,.055-1.422-.782,0q-.994,0-1.989-.012c-.6,0-1.194-.006-1.791-.018l-.256-.006C44.233,102.005,43.733,102.03,43.261,101.975Zm6.308-2.064c-.032,0-.064.007-.1.008-.155.007-.311,0-.466,0-.33,0-.661,0-.991,0q-.99,0-1.981.012c-.68.009-1.359.02-2.039.022-.329,0-.657-.008-.987-.018.054.469.109.936.171,1.4a12.769,12.769,0,0,1,1.561-.039H44.8c.682-.012,1.364,0,2.046,0q1.053,0,2.106.009l.576,0,0-.029C49.549,100.83,49.56,100.37,49.569,99.911Zm-6.817-2.239c.064.552.124,1.105.186,1.659.04-.006.081-.012.123-.016.33-.035.659-.064.99-.085.66-.041,1.32-.062,1.981-.08q1.019-.027,2.039-.042c.33-.005.66,0,.991,0,.155,0,.311,0,.466.007l.053,0,.012-.831.006-.415c-.51.032-1.029.02-1.539.02h-.118c-.641,0-1.282-.006-1.923-.019-.661-.014-1.321-.036-1.981-.078q-.4-.025-.8-.069l-.133-.015C42.991,97.7,42.872,97.686,42.752,97.672Zm6.9-2.345c-1.23.1-2.453.139-3.686.151l-.184,0c-1.09.008-2.188.053-3.28.024q.1.849.2,1.7c.156-.008.314-.008.466-.013.311-.012.621-.014.932-.015.641,0,1.282,0,1.923,0,.66,0,1.321-.013,1.981-.025.535-.01,1.076-.05,1.613-.049Zm.052-2.415a1.9,1.9,0,0,1-.495.058l-.476.024q-.33.016-.662.029-1.1.041-2.206.076c-.754.024-1.512.038-2.266.014-.369-.012-.735-.031-1.1-.062-.091-.008-.184-.013-.277-.019l.258,2.25c1.087-.133,2.182-.216,3.267-.354l.982-.126c.981-.125,1.961-.248,2.945-.351Zm.052-2.443a3.623,3.623,0,0,1-.648.062l-.037,0c-.38.029-.761.043-1.143.053-.747.018-1.495.027-2.242.032l-.449,0c-.6,0-1.2.006-1.8-.008-.384-.009-.768-.028-1.152-.047l-.351-.016.243,2.131c.126-.021.253-.036.374-.056.309-.052.618-.094.93-.132.676-.081,1.354-.139,2.033-.188.7-.051,1.394-.093,2.09-.142l.494-.035.493-.033a5.849,5.849,0,0,0,.887-.059.41.41,0,0,1,.243-.02Zm.064-2.859a.449.449,0,0,1-.309.157c-.671.087-1.359.1-2.036.142l-.119.008c-.7.046-1.4.082-2.1.119q-1.077.057-2.155.094c-.3.011-.611.012-.917.008l-.131,0c-.125,0-.257,0-.389-.006q.109,1,.222,1.992c.134-.014.268-.025.4-.039.384-.041.768-.081,1.153-.111.729-.058,1.458-.092,2.189-.128.747-.037,1.5-.062,2.242-.1.363-.017.725-.038,1.086-.071a3.99,3.99,0,0,1,.819-.078Q49.8,88.6,49.82,87.61Zm.059-2.56a.316.316,0,0,1-.041.051,1.487,1.487,0,0,1-1.051.3l-.024,0q-.574.05-1.151.091c-.768.056-1.537.094-2.306.129-.787.035-1.578.06-2.366.043-.5-.01-1.033-.008-1.547-.057q.118,1.1.239,2.194c.144-.027.29-.048.428-.07.347-.055.7-.11,1.044-.15q1.048-.12,2.1-.223c.6-.058,1.2-.117,1.8-.17l.359-.031c.714-.06,1.438-.16,2.155-.174a.391.391,0,0,1,.319.163Q49.854,86.1,49.879,85.05Zm.049-2.073c-.182.022-.379.009-.547.015l-1.278.039-2.554.075c-.87.026-1.743.045-2.613.033-.383,0-.768-.006-1.15-.027l-.128-.008c-.157-.01-.35-.012-.539-.031l.223,2.065c.512-.074,1.039-.1,1.547-.145l.108-.01c.749-.068,1.5-.113,2.251-.164.769-.052,1.537-.115,2.306-.18q.576-.048,1.151-.1l.048,0a1.432,1.432,0,0,1,1.024.095.329.329,0,0,1,.109.12Zm.06-2.41c-1.556.062-3.112.11-4.669.131-.876.012-1.752,0-2.628-.015-.38-.008-.763-.026-1.143-.055l-.142-.012c-.181-.015-.37-.026-.559-.044q.117,1.065.232,2.13c.186-.035.38-.051.543-.072l.037,0c.4-.055.813-.088,1.219-.123.792-.07,1.587-.115,2.381-.153.812-.04,1.626-.073,2.438-.109l.813-.036.407-.018.58-.024c.1,0,.2-.017.291-.012l.027,0,.034,0a.37.37,0,0,1,.083-.049l.018-.007Zm-9.4-2.283q.108.959.214,1.917c.222-.025.447-.039.659-.058.427-.039.856-.072,1.285-.092l.856-.04c.571-.026,1.142-.052,1.713-.072q2.346-.085,4.69-.2.017-.65.034-1.3a.427.427,0,0,1-.326.132c-1.64,0-3.282.006-4.923-.021-.821-.014-1.641-.034-2.461-.076-.4-.02-.8-.062-1.2-.118C40.96,78.33,40.774,78.313,40.592,78.284Zm-.263-2.277q.115.981.227,1.964c.2-.037.414-.056.6-.082.409-.055.82-.1,1.231-.123.8-.045,1.6-.068,2.4-.085,1.64-.035,3.282-.035,4.923-.048a.426.426,0,0,1,.344.151q.017-.612.036-1.226c-.159-.017-.316-.04-.461-.051q-.671-.047-1.342-.085c-.933-.054-1.867-.1-2.8-.14s-1.868-.08-2.8-.115l-.408-.015A19.262,19.262,0,0,1,40.329,76.007Zm-.294-2.465q.12.993.238,1.989l.024.2a16.207,16.207,0,0,1,2.393-.23q1.4-.06,2.8-.057c.935,0,1.868.025,2.8.063q.7.029,1.4.067c.128.007.278,0,.433.006,0-.1.006-.209.01-.313l.042-1.266a4.361,4.361,0,0,1-1.042.3l-.036.008a12.067,12.067,0,0,1-1.592.241,18.492,18.492,0,0,1-3.157-.032l-.184-.015A17.343,17.343,0,0,1,41.4,74.1a5,5,0,0,1-1.245-.481ZM48.9,65.663a.045.045,0,0,1,.081-.01,5.279,5.279,0,0,1,.256.771c.092.271.179.544.281.812a11.108,11.108,0,0,0,.765,1.617c.3.514-.535.88-.754.318A9.807,9.807,0,0,1,49,67.377a7.088,7.088,0,0,1-.12-.906A2.8,2.8,0,0,1,48.9,65.663Z" fill="#111" fill-rule="evenodd"/>
      <path d="M54.206,55.492a27.181,27.181,0,0,1,.048-3.57c.069-.891-.348-4.41-1.137-4.085a8.369,8.369,0,0,0-4.734-1.39c-3.423-.23-7.064.3-9.708,2.6-1.307,1.2-2.58,2.937-2.477,4.75-1.188,1.718-2.862,4.075-1.383,6.083a9.333,9.333,0,0,0,1.935,1.367c1.271,1.025,2.068,2.5,3.351,3.517,3.4,3.055,9.172,3.694,12.511.218,2.583-2.517,2.165-6.283,1.711-9.492C54.018,53.334,54.452,57.657,54.206,55.492Z" fill="#fff" fill-rule="evenodd"/>
      <path d="M43.81,41.741a11.947,11.947,0,0,1,2.79-.266l.072,0a4.44,4.44,0,0,1,2.208.5.124.124,0,0,1,.143-.029,19.09,19.09,0,0,0,2.3.85,10.372,10.372,0,0,0,2.358.479.432.432,0,0,1,.368.643c-.045.069-.089.14-.133.21l.221-.023a.472.472,0,0,1,.47.471,4.29,4.29,0,0,1-.049.44.663.663,0,0,1,.273.049c.449.19.418.725.384,1.132a2.682,2.682,0,0,1-.65,1.586,2.572,2.572,0,0,1,.624,1.1,2.82,2.82,0,0,1,.115.979l-.008.1a1.579,1.579,0,0,1-.347,1.006.545.545,0,0,1-.447.165c.093.82.153,1.645.209,2.467l.026.393c.126,1.9.22,3.812.2,5.714a8.151,8.151,0,0,1-1.465,4.949,7.069,7.069,0,0,1-4.031,2.652A7.2,7.2,0,0,1,46.8,67.4a6.276,6.276,0,0,1-1.26-.3,2.407,2.407,0,0,1-1.071-.774c-.143-.173-.074-.542.21-.507a6.861,6.861,0,0,1,1.233.242l.059.018a6,6,0,0,0,1.263.271,6.549,6.549,0,0,0,2.61-.267,6.145,6.145,0,0,0,3.305-2.617,8.5,8.5,0,0,0,.986-4.734q-.021-2.727-.169-5.453l-.017-.3q-.076-1.4-.143-2.8c-.014-.293-.035-.589-.071-.882a2.328,2.328,0,0,1-.84-.809,8.344,8.344,0,0,1-1.2.377,7,7,0,0,1-2.719.135q-.367.151-.747.267l-.2.089a12.539,12.539,0,0,1-1.872.644l-.159.039a6.455,6.455,0,0,1-1.067.192,1.371,1.371,0,0,1-.193.059,3.156,3.156,0,0,1-1.006.077.45.45,0,0,1-.384-.669c.132-.227.265-.452.4-.678a12.557,12.557,0,0,1-1.437.494c-.491.139-.99.255-1.489.363-.267.057-.535.107-.8.164a1.655,1.655,0,0,0-.639.187c-.171.138-.22.46-.285.658-.086.258-.166.516-.24.778q-.217.783-.358,1.587a15.2,15.2,0,0,0-.189,1.619c-.035.543-.02,1.088-.075,1.628a.335.335,0,0,1-.564.233l-.081-.071-.039-.036a3.992,3.992,0,0,1-.538-.573c-.028-.038-.055-.079-.08-.12l-.012,0-.043-.032c-.475-.354-1.267-.814-1.729-.227a1.811,1.811,0,0,0-.286.654l-.11.411a7.1,7.1,0,0,0-.177.813,2.279,2.279,0,0,0,.379,1.816,1.083,1.083,0,0,0,.661.375,1.6,1.6,0,0,0,.432-.023c.146-.018.287.011.433,0,.232-.022.334.256.247.43a1.065,1.065,0,0,1-.165.244,1.593,1.593,0,0,1,.145.14.719.719,0,0,1,.353.263.6.6,0,0,1,.119.326c.008.029.015.058.022.088l.126.205c.027.044.055.089.083.132a6.35,6.35,0,0,0,1.117,1.334c.425.387.887.734,1.286,1.15l.047.049a1.6,1.6,0,0,1,.619,1.438.258.258,0,0,1-.376.154,8.91,8.91,0,0,1-1.011-1.213c-.375-.4-.791-.757-1.167-1.155a4.544,4.544,0,0,1-.849-1.269.614.614,0,0,1-.378.185.678.678,0,0,1-.7-.381,2.372,2.372,0,0,1-.25.095.5.5,0,0,1-.557-.724,1.814,1.814,0,0,1,.341-.51,2.16,2.16,0,0,1-1.163-.565,3.009,3.009,0,0,1-.653-2.7,7.071,7.071,0,0,1,.425-1.473c.033-.082.069-.164.108-.245a.075.075,0,0,1-.058-.028,3.57,3.57,0,0,1-.383-.52c-.089-.182-.187-.367-.257-.556a5.367,5.367,0,0,1-.261-1.236,9.366,9.366,0,0,1,.069-2.508,10.119,10.119,0,0,1,1.525-3.974.632.632,0,0,1-.12-.081l-.019-.016-.031-.028a.559.559,0,0,1,0-.781l.065-.065a1.728,1.728,0,0,1,.282-.232c.019-.013.039-.025.059-.037a.559.559,0,0,1-.045-.438c.167-.57.987-.55,1.507-.3a9.324,9.324,0,0,1,1.9-1.319A20.33,20.33,0,0,1,43.81,41.741ZM35.3,56.755a1.558,1.558,0,0,1,.992.237,3.948,3.948,0,0,1,.936.649.525.525,0,0,1,.134.506l-.011.054a.452.452,0,0,1-.432.33c-.386-.011-.57-.345-.789-.628a.41.41,0,0,1-.1.12l-.027.021a.475.475,0,0,1-.311.119.567.567,0,0,1-.242-.065.487.487,0,0,1-.219-.54.506.506,0,0,1,.2-.289l-.035-.024a.7.7,0,0,1-.2-.19l-.012-.02h.005A.189.189,0,0,1,35.3,56.755Z" fill="#111" fill-rule="evenodd"/>
      <path d="M48.345,62.7a2.384,2.384,0,0,1-1-.772.463.463,0,0,1-.093-.36.517.517,0,0,1,.2-.326.481.481,0,0,1,.362-.1.458.458,0,0,1,.306.2l.018.025a1.586,1.586,0,0,0,.579.486,1.307,1.307,0,0,0,.717.126,1.92,1.92,0,0,0,1.168-.67l.132-.137a.209.209,0,0,1,.109-.085.237.237,0,0,1,.151,0,.246.246,0,0,1,.118.09.216.216,0,0,1,.038.146,1.5,1.5,0,0,1-.5.952,2.131,2.131,0,0,1-2.306.418Zm1.42-5.665c.443.269,1.118.9.642,1.565-.561.588-1.369-.087-1.767-.392-.368-.237-.783.372-.441.648,2.876,2.13,4.042-1.751,1.79-2.138C49.742,56.679,49.649,56.955,49.765,57.039Zm-5.152-2.477c.048-.608.974-.746,1.066-.145a2.47,2.47,0,0,1-.257,1.519.453.453,0,0,1-.859-.175A4.867,4.867,0,0,1,44.613,54.562Zm7.041-.269a.493.493,0,0,1,.539-.219c.7.2.491,1.193.246,1.675a.485.485,0,0,1-.757.1,1.175,1.175,0,0,1-.066-1.5A.412.412,0,0,1,51.654,54.293ZM45.412,51.9l.11-.019c.34-.059.764-.116,1.005.158a.4.4,0,0,1,0,.554c-.3.245-.636.15-1,.171a3.92,3.92,0,0,0-.873.149,5.944,5.944,0,0,0-1.683.87c-.071.048-.143-.043-.109-.109a3.475,3.475,0,0,1,1.517-1.414A3.75,3.75,0,0,1,45.412,51.9Zm5.607-.273.084.017a3.528,3.528,0,0,1,2.543,1.476c.017.128,0,.155-.015.173l-.005.006a.116.116,0,0,1-.076.053l-.046-.011a2.585,2.585,0,0,1-.509-.2l-.166-.082a4.524,4.524,0,0,0-.59-.251,6.966,6.966,0,0,0-1.345-.3.553.553,0,0,1-.27-.1.4.4,0,0,1-.151-.23.411.411,0,0,1,.047-.344.435.435,0,0,1,.213-.184A.494.494,0,0,1,51.019,51.63Z" fill="#111" fill-rule="evenodd"/>
      <path d="M44.541,63.071a3.978,3.978,0,0,1,2.7-2.23,8,8,0,0,1,2.69-.125,5.313,5.313,0,0,1,1.411.256,2.079,2.079,0,0,1,.914.759,4.317,4.317,0,0,1,.593,1.3c.018.065.036.131.052.2a1.179,1.179,0,0,1-.5.857,2.179,2.179,0,0,1-1.057.33l-.1-.054c-.578-.332-.986-1.115-1.716-1.009-.652.095-1.082.915-1.469,1.4a5.093,5.093,0,0,1-3.5-.94A2.054,2.054,0,0,1,44.541,63.071Zm9.21-.844a4.788,4.788,0,0,0-.374-.8,4.581,4.581,0,0,0-2.141-1.9,6.585,6.585,0,0,0-6.571,1.221,4.141,4.141,0,0,0-1.354,2.06.308.308,0,0,0-.145.078,16.638,16.638,0,0,1-3.5-2.607,6.944,6.944,0,0,1-1.534-2.732.08.08,0,0,0-.157.022l0,.065c-.013-.04-.074-.02-.079.019a13.564,13.564,0,0,0-.182,3.8,3.962,3.962,0,0,0,.9,1.875A18.582,18.582,0,0,0,40.205,65.1a6.446,6.446,0,0,0,1.161,1.029,13.686,13.686,0,0,0,1.618.769c.549.239,1.106.46,1.673.651a15.6,15.6,0,0,0,3.5.766,6.558,6.558,0,0,0,2.963-.165,4,4,0,0,0,1.717-1.373,6.559,6.559,0,0,0,1.09-2.18A5.691,5.691,0,0,0,53.751,62.227Z" fill="#111" fill-rule="evenodd"/>
      <path d="M41.64,1h4.72A40.64,40.64,0,0,1,87,41.64h0A40.641,40.641,0,0,1,46.36,82.281H41.64A40.641,40.641,0,0,1,1,41.64H1A40.64,40.64,0,0,1,41.64,1Z" fill="none" stroke="#111" stroke-width="2"/>
    </g>
  </g>
</svg>
