<svg xmlns="http://www.w3.org/2000/svg" viewBox="0 0 30 30">
  <path fill="#949A9C" d="M8.5 0A4.52 4.52 0 0 0 4 4.5V11H2a1 1 0 1 0 0 2h2.83a1 1 0 0 0 .33 0H28a1 1 0 1 0 0-2H6V4.5C6 3.1 7.1 2 8.5 2c1.29 0 2.32.95 2.47 2.2A3 3 0 0 0 9 7h6c0-1.32-.85-2.42-2.03-2.83A4.48 4.48 0 0 0 8.86.07 1 1 0 0 0 8.5 0zM2 15l1.31 6.06A5 5 0 0 0 8.2 25h13.6a5 5 0 0 0 4.89-3.94L28 15H2z" font-family="sans-serif" font-weight="400" overflow="visible" style="line-height:normal;text-indent:0;text-align:start;text-decoration-line:none;text-decoration-style:solid;text-decoration-color:#000;text-transform:none;block-progression:tb;isolation:auto;mix-blend-mode:normal" white-space="normal"/>
</svg>
