<svg id="Layer_1" data-name="Layer 1" xmlns="http://www.w3.org/2000/svg" viewBox="0 0 84 84">
  <title>bullseye</title>
  <path d="M84,11,74,21H65.844l-4.656,4.656a28.046,28.046,0,1,1-6.282-5.375L50.5,24.688A21.8,21.8,0,0,0,40,22a22.025,22.025,0,1,0,16.906,7.938L54.094,32.75a18.205,18.205,0,1,1-6.563-5.094L37.188,38A8.3,8.3,0,0,0,35,44a5,5,0,0,0,10,0,4.913,4.913,0,0,0-.375-1.812l-3.187,3.218a2,2,0,0,1-2.893-2.763c.016-.017.032-.033.049-.049L63,18.188V10L73,0V11ZM80,44A39.952,39.952,0,1,1,59,8.781v7.407l-1.25,1.25A31.885,31.885,0,1,0,65.719,25h9.5A39.8,39.8,0,0,1,80,44Z"/>
</svg>
