<svg xmlns="http://www.w3.org/2000/svg" viewBox="0 0 30 30">
  <path fill="#949A9C" d="M26.2 12.56l-2.05-5.88A4 4 0 0 0 20.37 4H9.63a4 4 0 0 0-3.78 2.68L3.8 12.56A4 4 0 0 0 2 15.9V23a2 2 0 1 0 4 0v-1.26s5.28.26 9 .26 9-.26 9-.26V23a2 2 0 1 0 4 0v-7.1a4 4 0 0 0-1.8-3.34zM6.6 10.6l1.14-3.27A2 2 0 0 1 9.63 6h10.74a2 2 0 0 1 1.89 1.34l1.14 3.27a.72.72 0 0 1-.78.95A47.8 47.8 0 0 0 15 11c-3.13 0-5.66.24-7.62.56a.72.72 0 0 1-.79-.95zM6.5 18a1.5 1.5 0 1 1 0-3 1.5 1.5 0 0 1 0 3zM18 17h-6a1 1 0 0 1 0-2h6a1 1 0 0 1 0 2zm5.5 1a1.5 1.5 0 1 1 0-3 1.5 1.5 0 0 1 0 3z"/>
</svg>
