<svg xmlns="http://www.w3.org/2000/svg" viewBox="0 0 44 29">
  <path d="M40.33333,29H3.66667A3.64578,3.64578,0,0,1,0,25.375V3.625A3.64578,3.64578,0,0,1,3.66667,0H40.33333A3.64579,3.64579,0,0,1,44,3.625v21.75A3.64579,3.64579,0,0,1,40.33333,29ZM15,8.33333A1.28188,1.28188,0,0,0,13.77778,7H5.22222A1.28188,1.28188,0,0,0,4,8.33333v5.33334A1.28188,1.28188,0,0,0,5.22222,15h8.55556A1.28188,1.28188,0,0,0,15,13.66667Z" fill="#515e80" fill-rule="evenodd" opacity="0.2" style="isolation: isolate"/>
  <path d="M37,23H33c-1.446,0-2-.448-2-1h0c0-1.552.554-2,2-2h4c1.446,0,2,.448,2,2h0C39,22.552,38.446,23,37,23Zm-9,0H24c-1.446,0-2-.448-2-1h0c0-1.552.554-2,2-2h4c1.44721,0,2,.448,2,2h0C30,22.552,29.44721,23,28,23Zm-9,0H15c-1.44712,0-2-.448-2-1h0c0-1.552.55288-2,2-2h4c1.44712,0,2,.448,2,2h0C21,22.552,20.44712,23,19,23Zm-9,0H6c-1.446,0-2-.448-2-1H4c0-1.552.554-2,2-2h4c1.446,0,2,.448,2,2h0C12,22.552,11.446,23,10,23Z" fill="#515e80" fill-rule="evenodd" opacity="0.302" style="isolation: isolate"/>
</svg>
