<svg xmlns="http://www.w3.org/2000/svg" fill="none" viewBox="0 0 35 35">
  <circle cx="17.5" cy="17.5" r="17.5" fill="#C4C4C4"/>
  <path fill="#fff" d="M21.985 14.637a.567.567 0 00.775 0l1.077-1.062c.228-.205.215-.573-.026-.793a8.62 8.62 0 00-2.894-1.57l.34-1.554A.551.551 0 0020.706 9H18.62a.587.587 0 00-.356.124.535.535 0 00-.195.31l-.301 1.381c-2.774.135-5.125 1.472-5.125 4.21 0 2.372 1.942 3.39 3.996 4.089 1.942.703 2.972.965 2.972 1.954 0 1.018-1.025 1.615-2.541 1.615-1.378 0-2.825-.438-3.945-1.505a.562.562 0 00-.396-.155.585.585 0 00-.396.155l-1.163 1.104a.542.542 0 00-.171.393c0 .147.061.288.17.392.905.846 2.05 1.46 3.357 1.799l-.32 1.46a.55.55 0 00.548.658l2.088.016c.132 0 .26-.042.362-.121a.536.536 0 00.198-.312l.302-1.386c3.337-.213 5.37-1.958 5.37-4.505 0-2.347-2.025-3.336-4.48-4.142-1.403-.494-2.618-.834-2.618-1.851 0-.99 1.133-1.382 2.27-1.382 1.447 0 2.838.568 3.746 1.345l-.008-.009z"/>
</svg>
