<svg xmlns="http://www.w3.org/2000/svg" viewBox="0 0 735 303">
  <rect x="0.5" y="0.5" width="734" height="302" rx="5.5" fill="none" stroke="#dedede"/>
  <path d="M34,72H49a5,5,0,0,1,5,5h0a5,5,0,0,1-5,5H34a5,5,0,0,1-5-5h0A5,5,0,0,1,34,72Z" fill="#f3f3f3"/>
  <path d="M34,22H49a5,5,0,0,1,5,5h0a5,5,0,0,1-5,5H34a5,5,0,0,1-5-5h0A5,5,0,0,1,34,22Z" fill="#f3f3f3"/>
  <path d="M34,122H49a5,5,0,0,1,5,5h0a5,5,0,0,1-5,5H34a5,5,0,0,1-5-5h0A5,5,0,0,1,34,122Z" fill="#f3f3f3"/>
  <path d="M34,172H49a5,5,0,0,1,5,5h0a5,5,0,0,1-5,5H34a5,5,0,0,1-5-5h0A5,5,0,0,1,34,172Z" fill="#f3f3f3"/>
  <path d="M34,222H49a5,5,0,0,1,5,5h0a5,5,0,0,1-5,5H34a5,5,0,0,1-5-5h0A5,5,0,0,1,34,222Z" fill="#f3f3f3"/>
  <path d="M34,272H49a5,5,0,0,1,5,5h0a5,5,0,0,1-5,5H34a5,5,0,0,1-5-5h0A5,5,0,0,1,34,272Z" fill="#f3f3f3"/>
  <path d="M97,282l93.012-84.22H280.98l92.5-54.392H557.46L698,27" fill="none" stroke="#f3f3f3" stroke-width="4"/>
</svg>
