<svg id="Layer_1" data-name="Layer 1" xmlns="http://www.w3.org/2000/svg" viewBox="0 0 18.33595 19.99873">
  <title>controls</title>
  <path d="M18.14241,6.2496a4.16553,4.16553,0,0,1-2.72483,5.22467v7.27454a1.24992,1.24992,0,1,1-2.49984,0V11.47427a4.16664,4.16664,0,0,1,0-7.94949V1.24992a1.24992,1.24992,0,1,1,2.49984,0V3.52478A4.16193,4.16193,0,0,1,18.14241,6.2496ZM15.83422,7.49952a1.66656,1.66656,0,1,0-1.66656,1.66657A1.66611,1.66611,0,0,0,15.83422,7.49952Z" fill="#323639"/>
  <path d="M8.143,11.24929A4.16553,4.16553,0,0,1,5.41821,16.474v2.27485a1.24992,1.24992,0,0,1-2.49984,0V16.474a4.16665,4.16665,0,0,1,0-7.9495V1.24992a1.24992,1.24992,0,0,1,2.49984,0V8.52446A4.162,4.162,0,0,1,8.143,11.24929ZM5.83485,12.49921a1.66656,1.66656,0,1,0-1.66656,1.66656A1.66609,1.66609,0,0,0,5.83485,12.49921Z" fill="#323639"/>
</svg>
