<svg xmlns="http://www.w3.org/2000/svg" viewBox="0 0 16 9.9982" fill="#313639">
  <path d="M9.532,4.902A1.502,1.502,0,1,1,8.03,3.41,1.49694,1.49694,0,0,1,9.532,4.902Z"/>
  <path d="M3.004,1.49A8.82,8.82,0,0,0,0,4.992,9.10007,9.10007,0,0,0,2.904,8.375,8.884,8.884,0,0,0,13.65,7.989,8.78294,8.78294,0,0,0,16,4.992,8.843,8.843,0,0,0,12.816,1.4,9.053,9.053,0,0,0,3.004,1.49Zm3.06.567a3.52,3.52,0,0,1,4.424.433A3.47428,3.47428,0,0,1,9.35,8.17a3.525,3.525,0,0,1-3.819-.755,3.469,3.469,0,0,1,.532-5.358Z"/>
</svg>
