<svg xmlns="http://www.w3.org/2000/svg" fill="none" viewBox="0 0 35 35">
  <circle cx="17.5" cy="17.5" r="17.5" fill="#C4C4C4"/>
  <path fill="#fff" d="M17.63 25c-1.333 0-2.576-.345-3.749-.943-2.231-1.127-4.026-2.784-5.406-4.877-.138-.207-.253-.437-.368-.667a1.073 1.073 0 010-.99c.368-.758.874-1.426 1.403-2.07 1.243-1.449 2.669-2.668 4.371-3.52 1.196-.597 2.462-.966 3.819-.942a8.246 8.246 0 013.404.828c2.3 1.104 4.118 2.76 5.544 4.853.184.254.323.553.46.829.185.345.162.713 0 1.058-.322.713-.759 1.334-1.265 1.91-1.242 1.471-2.691 2.668-4.416 3.542-1.174.621-2.439.989-3.796.989zm0-1.932c2.807.023 5.154-2.324 5.062-5.222a5.052 5.052 0 00-5.222-4.9 5.08 5.08 0 00-4.9 5.222c.069 2.668 2.37 4.923 5.06 4.9z"/>
  <path fill="#fff" d="M14.78 18.007c.022-1.634 1.287-2.853 2.92-2.853 1.542.023 2.784 1.334 2.738 2.922-.023 1.541-1.357 2.83-2.99 2.76-1.427-.046-2.669-1.334-2.669-2.83z"/>
</svg>
