<svg xmlns="http://www.w3.org/2000/svg" fill="none" viewBox="0 0 128 148">
  <path fill="#111" d="M21 0h19c7.18 0 13 5.82 13 13v35h22V21a12.96 12.96 0 013.845-9.23c2.6-2.58 5.346-5.324 7.925-7.925A12.96 12.96 0 0196 0h19c7.18 0 13 5.82 13 13v114c0 3.609-1.471 6.874-3.845 9.23a1345.772 1345.772 0 00-7.925 7.925A12.964 12.964 0 01107 148H88c-7.18 0-13-5.82-13-13v-34H53v26a12.96 12.96 0 01-3.845 9.23c-2.6 2.579-5.346 5.324-7.925 7.925A12.962 12.962 0 0132 148H13c-7.18 0-13-5.82-13-13V21a12.96 12.96 0 013.845-9.23c2.6-2.58 5.346-5.324 7.925-7.925A12.96 12.96 0 0121 0z"/>
  <path fill="#fff" d="M18 13a3 3 0 013-3h19a3 3 0 013 3v42a3 3 0 003 3h44a3 3 0 003-3V13a3 3 0 013-3h19a3 3 0 013 3v114a3 3 0 01-3 3H96a3 3 0 01-3-3V86a3 3 0 00-3-3H46a3 3 0 00-3 3v41a3 3 0 01-3 3H21a3 3 0 01-3-3V13z"/>
</svg>
