<svg xmlns="http://www.w3.org/2000/svg" fill="none" viewBox="0 0 61 24">
  <rect width="61" height="24" fill="#aaa5a2" rx="3"/>
  <path fill="#fff" d="M12.769 17v-4.088h4.238V11.56h-4.238V8.53h4.627V7.136h-6.159V17h1.532zm10.248-8.518h2.16c1.183 0 1.907.65 1.907 1.723 0 1.1-.683 1.73-1.866 1.73h-2.201V8.482zm0 4.758h2.16l2.01 3.76h1.77l-2.214-4.013c1.203-.41 1.914-1.49 1.914-2.816 0-1.853-1.279-3.035-3.268-3.035h-3.903V17h1.531v-3.76zm16.182 2.365h-4.73v-2.96h4.477V11.32H34.47V8.53h4.73V7.136h-6.262V17H39.2v-1.395zm10.577 0h-4.73v-2.96h4.477V11.32h-4.478V8.53h4.73V7.136h-6.261V17h6.262v-1.395z"/>
  <path fill="#fff" d="M12.769 17v.3a.3.3 0 00.3-.3h-.3zm0-4.088v-.3a.3.3 0 00-.3.3h.3zm4.238 0v.3a.3.3 0 00.3-.3h-.3zm0-1.353h.3a.3.3 0 00-.3-.3v.3zm-4.238 0h-.3a.3.3 0 00.3.3v-.3zm0-3.029v-.3a.3.3 0 00-.3.3h.3zm4.627 0v.3a.3.3 0 00.3-.3h-.3zm0-1.394h.3a.3.3 0 00-.3-.3v.3zm-6.159 0v-.3a.3.3 0 00-.3.3h.3zm0 9.864h-.3a.3.3 0 00.3.3V17zm1.832 0v-4.088h-.6V17h.6zm-.3-3.788h4.238v-.6h-4.238v.6zm4.538-.3V11.56h-.6v1.353h.6zm-.3-1.653h-4.238v.6h4.238v-.6zm-3.938.3V8.53h-.6v3.029h.6zm-.3-2.729h4.627v-.6H12.77v.6zm4.928-.3V7.136h-.6V8.53h.6zm-.3-1.694h-6.16v.6h6.16v-.6zm-6.46.3V17h.6V7.136h-.6zm.3 10.164h1.532v-.6h-1.532v.6zm11.78-8.818v-.3a.3.3 0 00-.3.3h.3zm0 3.453h-.3a.3.3 0 00.3.3v-.3zm0 1.305v-.3a.3.3 0 00-.3.3h.3zm2.16 0l.265-.141a.3.3 0 00-.265-.159v.3zm2.01 3.76l-.265.141a.3.3 0 00.265.159V17zm1.77 0v.3a.3.3 0 00.263-.445l-.263.145zm-2.214-4.013l-.097-.284a.3.3 0 00-.166.43l.263-.146zm-5.257-5.851v-.3a.3.3 0 00-.3.3h.3zm0 9.864h-.3a.3.3 0 00.3.3V17zm1.531 0v.3a.3.3 0 00.3-.3h-.3zm0-8.218h2.16v-.6h-2.16v.6zm2.16 0c.538 0 .936.148 1.196.382.256.23.411.575.411 1.041h.6c0-.607-.207-1.124-.609-1.487-.398-.358-.954-.536-1.598-.536v.6zm1.607 1.423c0 .487-.149.832-.393 1.057-.247.23-.632.373-1.173.373v.6c.642 0 1.19-.171 1.58-.532.394-.364.586-.884.586-1.498h-.6zm-1.566 1.43h-2.201v.6h2.201v-.6zm-1.901.3V8.482h-.6v3.453h.6zm-.3 1.605h2.16v-.6h-2.16v.6zm1.896-.158l2.01 3.76.529-.283-2.01-3.76-.53.283zm2.274 3.918h1.77v-.6h-1.77v.6zm2.033-.445l-2.215-4.013-.525.29 2.215 4.013.525-.29zm-2.38-3.584c1.337-.456 2.117-1.66 2.117-3.1h-.6c0 1.212-.642 2.168-1.711 2.532l.193.568zm2.117-3.1c0-.998-.347-1.841-.984-2.432-.635-.59-1.53-.903-2.584-.903v.6c.936 0 1.674.277 2.176.743.499.463.792 1.138.792 1.992h.6zm-3.568-3.335h-3.903v.6h3.903v-.6zm-4.203.3V17h.6V7.136h-.6zm.3 10.164h1.531v-.6h-1.531v.6zm1.831-.3v-3.76h-.6V17h.6zm15.882-1.395h.3a.3.3 0 00-.3-.3v.3zm-4.73 0h-.3a.3.3 0 00.3.3v-.3zm0-2.96v-.3a.3.3 0 00-.3.3h.3zm4.477 0v.3a.3.3 0 00.3-.3h-.3zm0-1.326h.3a.3.3 0 00-.3-.3v.3zm-4.477 0h-.3a.3.3 0 00.3.3v-.3zm0-2.789v-.3a.3.3 0 00-.3.3h.3zm4.73 0v.3a.3.3 0 00.3-.3h-.3zm0-1.394h.3a.3.3 0 00-.3-.3v.3zm-6.262 0v-.3a.3.3 0 00-.3.3h.3zm0 9.864h-.3a.3.3 0 00.3.3V17zm6.262 0v.3a.3.3 0 00.3-.3h-.3zm0-1.694h-4.73v.6h4.73v-.6zm-4.43.3v-2.96h-.6v2.96h.6zm-.3-2.66h4.477v-.6H34.47v.6zm4.777-.3v-1.327h-.6v1.326h.6zm-.3-1.627H34.47v.6h4.477v-.6zm-4.177.3V8.53h-.6v2.79h.6zm-.3-2.489h4.73v-.6h-4.73v.6zm5.03-.3V7.136h-.6V8.53h.6zm-.3-1.694h-6.262v.6H39.2v-.6zm-6.562.3V17h.6V7.136h-.6zm.3 10.164H39.2v-.6h-6.262v.6zM39.5 17v-1.395h-.6V17h.6zm10.277-1.395h.3a.3.3 0 00-.3-.3v.3zm-4.73 0h-.3a.3.3 0 00.3.3v-.3zm0-2.96v-.3a.3.3 0 00-.3.3h.3zm4.477 0v.3a.3.3 0 00.3-.3h-.3zm0-1.326h.3a.3.3 0 00-.3-.3v.3zm-4.478 0h-.3a.3.3 0 00.3.3v-.3zm0-2.789v-.3a.3.3 0 00-.3.3h.3zm4.73 0v.3a.3.3 0 00.3-.3h-.3zm0-1.394h.3a.3.3 0 00-.3-.3v.3zm-6.261 0v-.3a.3.3 0 00-.3.3h.3zm0 9.864h-.3a.3.3 0 00.3.3V17zm6.262 0v.3a.3.3 0 00.3-.3h-.3zm0-1.694h-4.73v.6h4.73v-.6zm-4.43.3v-2.96h-.6v2.96h.6zm-.3-2.66h4.477v-.6h-4.478v.6zm4.777-.3v-1.327h-.6v1.326h.6zm-.3-1.627h-4.478v.6h4.478v-.6zm-4.178.3V8.53h-.6v2.79h.6zm-.3-2.489h4.73v-.6h-4.73v.6zm5.03-.3V7.136h-.6V8.53h.6zm-.3-1.694h-6.261v.6h6.262v-.6zm-6.561.3V17h.6V7.136h-.6zm.3 10.164h6.262v-.6h-6.262v.6zm6.562-.3v-1.395h-.6V17h.6z"/>
</svg>
