<svg id="Layer_1" data-name="Layer 1" xmlns="http://www.w3.org/2000/svg" viewBox="0 0 20 20">
  <title>g</title>
  <path d="M18.3333,8.33333H17.3075a7.453,7.453,0,0,0-.9633-2.32083l.7266-.72667a1.66664,1.66664,0,0,0-2.3566-2.35666l-.7267.72666a7.45272,7.45272,0,0,0-2.3208-.96333V1.66667a1.66669,1.66669,0,0,0-3.33337,0V2.6925a7.45238,7.45238,0,0,0-2.32083.96333l-.72667-.72666A1.66666,1.66666,0,0,0,2.92917,5.28583l.72666.72667A7.45238,7.45238,0,0,0,2.6925,8.33333H1.66667a1.66669,1.66669,0,0,0,0,3.33337H2.6925a7.45272,7.45272,0,0,0,.96333,2.3208l-.72666.7267a1.66664,1.66664,0,0,0,2.35666,2.3566l.72667-.7266a7.45662,7.45662,0,0,0,2.32083.9633v1.0258a1.66669,1.66669,0,0,0,3.33337,0V17.3075a7.45336,7.45336,0,0,0,2.3208-.9633l.7267.7266a1.66662,1.66662,0,0,0,2.3566-2.3566l-.7266-.7267a7.45336,7.45336,0,0,0,.9633-2.3208h1.0258a1.66669,1.66669,0,0,0,0-3.33337Zm-8.3333,5a3.3333,3.3333,0,1,1,2.357-.9763A3.3334,3.3334,0,0,1,10,13.3333Z" fill="#323639"/>
</svg>
