<svg xmlns="http://www.w3.org/2000/svg" viewBox="0 0 90.20811 78.83365">
  <g fill="#D3D3D3">
    <path d="M.6081,22.31682a5.817,5.817,0,0,0-.4,4.1l7.6,25.5v-33.5l-4.1,1.2A5.83446,5.83446,0,0,0,.6081,22.31682Z"/>
    <path d="M14.7081,74.91682a5.39289,5.39289,0,0,0,5.6,3.9,4.25287,4.25287,0,0,0,1.1-.2l22.5-6.7h-30.1Z"/>
    <path d="M84.90811,6.71682h-8.6l-.8-2.8a5.39286,5.39286,0,0,0-5.6-3.9,4.25274,4.25274,0,0,0-1.1.2l-21.8,6.5h-30a5.44473,5.44473,0,0,0-5.3,5.5v50.7a5.44473,5.44473,0,0,0,5.3,5.5h67.9a5.44473,5.44473,0,0,0,5.3-5.5v-50.7A5.44474,5.44474,0,0,0,84.90811,6.71682Zm-67.9,4h67.9a1.442,1.442,0,0,1,1.3,1.5v37.8l-20.6-24.8a3.39141,3.39141,0,0,0-5.3,0l-16,19.8a3.39141,3.39141,0,0,1-5.3,0l-7-8.5a3.39142,3.39142,0,0,0-5.3,0l-11,13.2v-37.5A1.442,1.442,0,0,1,17.0081,10.71682Z"/>
    <circle cx="41.90811" cy="22.61682" r="7"/>
  </g>
</svg>
