<svg id="Layer_1" data-name="Layer 1" xmlns="http://www.w3.org/2000/svg" viewBox="0 0 20 19">
  <title>likes</title>
  <path d="M9.99218,19,9.189,18.4397C5.02957,15.538,2.16345,12.5003.67018,9.411a6.74748,6.74748,0,0,1-.22641-5.3384A6.36831,6.36831,0,0,1,1.86408,1.857,6.2585,6.2585,0,0,1,4.04964.41865,5.82938,5.82938,0,0,1,9.99629,1.4258a5.85771,5.85771,0,0,1,5.95391-1,6.2583,6.2583,0,0,1,2.1856,1.4383,6.36768,6.36768,0,0,1,1.4204,2.21573,6.74771,6.74771,0,0,1-.2263,5.33824c-1.4838,3.07031-4.3552,6.10571-8.5346,9.02151ZM6.20027,2.87267a3.04311,3.04311,0,0,0-1.12309.22675,3.4579,3.4579,0,0,0-1.20756.79467,3.51839,3.51839,0,0,0-.78476,1.22416,3.82539,3.82539,0,0,0,.13081,3.02642c.82544,1.70767,2.6684,4.32973,6.77663,7.34993,4.1308-3.0346,5.9725-5.64686,6.792-7.34275a3.82546,3.82546,0,0,0,.1308-3.02638,3.51872,3.51872,0,0,0-.7847-1.22414,3.45791,3.45791,0,0,0-1.2075-.79466,2.85529,2.85529,0,0,0-2.6341.20864,4.36749,4.36749,0,0,0-1.1594.99815L9.97357,5.95387,8.8504,4.30733A4.34033,4.34033,0,0,0,7.69958,3.309,2.91824,2.91824,0,0,0,6.20027,2.87267Z" fill="#323639"/>
</svg>
