<svg xmlns="http://www.w3.org/2000/svg" fill="none" viewBox="0 0 121 140">
  <path fill="#111" fill-rule="evenodd" d="M8.418 10h19a8 8 0 018 8v40h40V18a8 8 0 018-8h19a8 8 0 018 8v114a8 8 0 01-8 8h-19a8 8 0 01-8-8V93h-40v39a8 8 0 01-8 8h-19a8 8 0 01-8-8V18a8 8 0 018-8z" clip-rule="evenodd"/>
  <path fill="#fff" stroke="#111" stroke-linecap="round" stroke-linejoin="round" stroke-width="5" d="M37.418 2.5h-19a5.5 5.5 0 00-5.5 5.5v114a5.5 5.5 0 005.5 5.5h19a5.5 5.5 0 005.5-5.5V81a.5.5 0 01.5-.5h44a.5.5 0 01.5.5v41a5.5 5.5 0 005.5 5.5h19a5.5 5.5 0 005.5-5.5V8a5.5 5.5 0 00-5.5-5.5h-19a5.5 5.5 0 00-5.5 5.5v42a.5.5 0 01-.5.5h-44a.5.5 0 01-.5-.5V8a5.5 5.5 0 00-5.5-5.5z"/>
  <path fill="#111" d="M12.854 2.25L2.8 12.31h10.055V2.25zM87.88 2.25L77.824 12.31H87.88V2.25zM42.362 128.291l-8.62 8.612v-8.612h8.62zM117.357 128.291l-8.621 8.612v-8.612h8.621z"/>
</svg>
