<svg id="Layer_1" data-name="Layer 1" xmlns="http://www.w3.org/2000/svg" viewBox="0 0 30 30.353">
  <title>logo-5</title>
  <path d="M5.171,3.592a15.172,15.172,0,0,1,24.767,9.076.722.722,0,1,1-1.425.238,13.727,13.727,0,0,0-27.077,0,.722.722,0,1,1-1.425-.238A15.176,15.176,0,0,1,5.171,3.592Z" fill="#323639" fill-rule="evenodd"/>
  <path d="M.611,16.7a.723.723,0,0,1,.826.6,13.728,13.728,0,0,0,27.126,0,.723.723,0,0,1,1.428.223,15.173,15.173,0,0,1-29.982,0A.722.722,0,0,1,.611,16.7Z" fill="#323639" fill-rule="evenodd"/>
  <path d="M18.8,21.233V16.165a.374.374,0,0,0-.373-.373H11.573a.372.372,0,0,0-.373.373v5.068a.864.864,0,1,1-1.727,0V9.113a.864.864,0,0,1,1.727,0v4.752a.372.372,0,0,0,.373.373h6.855a.374.374,0,0,0,.373-.373V9.113a.864.864,0,0,1,1.727,0v12.12a.864.864,0,1,1-1.727,0Z" fill="#323639"/>
</svg>
