<?xml version="1.0" encoding="utf-8"?>
<!-- Generator: Adobe Illustrator 23.0.0, SVG Export Plug-In . SVG Version: 6.00 Build 0)  -->
<svg version="1.1" id="Layer_1" xmlns="http://www.w3.org/2000/svg" xmlns:xlink="http://www.w3.org/1999/xlink" x="0px" y="0px"
	 viewBox="0 0 128.5 160.9" style="enable-background:new 0 0 128.5 160.9;" xml:space="preserve">
<style type="text/css">
	.st0{fill:none;stroke:#323639;stroke-width:2;stroke-miterlimit:10;}
	.st1{fill:#FFFFFF;stroke:#323639;stroke-width:4;stroke-miterlimit:10;}
	.st2{fill:#323639;}
</style>
<line class="st0" x1="2" y1="158.9" x2="18" y2="142.9"/>
<line class="st0" x1="81" y1="158.9" x2="97" y2="142.9"/>
<polyline class="st0" points="18,2 18,142.9 47.5,142.9 "/>
<polyline class="st1" points="47.5,103.2 81,103.2 81,158.9 110.5,158.9 126.5,142.9 126.5,2 97,2 81,18 81,57.7 "/>
<polyline class="st1" points="97,2 97,57.7 47.5,57.7 47.5,2 18,2 2,18 2,158.9 31.5,158.9 47.5,142.9 47.5,87.2 97,87.2 97,142.9 
	126.5,142.9 97,142.9 "/>
<polygon class="st2" points="2,18 18,2 18,142.9 2,158.9 "/>
<polygon class="st2" points="2,158.9 18,142.9 47.5,142.9 31.5,158.9 "/>
<polygon class="st2" points="47.5,87.2 97,87.2 97,142.9 81,158.9 81,103.2 47.5,103.2 "/>
<polygon class="st2" points="110.5,158.9 81,158.9 97,142.9 126.5,142.9 "/>
<polyline class="st2" points="81,57.7 81,18 96,4.7 96,56.3 "/>
</svg>
