<svg xmlns="http://www.w3.org/2000/svg" fill="none" viewBox="0 0 112 132">
  <path fill="#111" fill-rule="evenodd" d="M2.546 12a3 3 0 013-3h19a3 3 0 013 3v42a3 3 0 003 3h44a3 3 0 003-3V12a3 3 0 013-3h19a3 3 0 013 3v114a3 3 0 01-3 3h-19a3 3 0 01-3-3V85a3 3 0 00-3-3h-44a3 3 0 00-3 3v41a3 3 0 01-3 3h-19a3 3 0 01-3-3V12z" clip-rule="evenodd"/>
  <path fill="#111" d="M74.546 82v-2.5V82zm0-25v-2.5V57zm-44 0v-2.5V57zm0 25v-2.5V82zm-6-75.5h-19v5h19v-5zm5.5 47.5V12h-5v42h5zm.5 5.5h44v-5h-44v5zm44.5-47.5v42h5V12h-5zm24.5-5.5h-19v5h19v-5zm5.5 50.5V12h-5v45h5zm-5 0v25h5V57h-5zm5 69V82h-5v44h5zm-24.5 5.5h19v-5h-19v5zm-5.5-46.5v41h5V85h-5zm-.5-5.5h-44v5h44v-5zm-44.5 46.5V85h-5v41h5zm-24.5 5.5h19v-5h-19v5zM.046 82v44h5V82h-5zm5 0V57h-5v25h5zm-5-70v45h5V12h-5zm5.5 114.5a.5.5 0 01-.5-.5h-5a5.5 5.5 0 005.5 5.5v-5zm74.5-41.5a5.5 5.5 0 00-5.5-5.5v5a.5.5 0 01.5.5h5zm.5 41.5a.5.5 0 01-.5-.5h-5a5.5 5.5 0 005.5 5.5v-5zm19.5-.5a.5.5 0 01-.5.5v5a5.5 5.5 0 005.5-5.5h-5zm-.5-114.5a.5.5 0 01.5.5h5a5.5 5.5 0 00-5.5-5.5v5zm-19.5.5a.5.5 0 01.5-.5v-5a5.5 5.5 0 00-5.5 5.5h5zm-5.5 47.5a5.5 5.5 0 005.5-5.5h-5a.5.5 0 01-.5.5v5zm-49.5-5.5a5.5 5.5 0 005.5 5.5v-5a.5.5 0 01-.5-.5h-5zm0 72a.5.5 0 01-.5.5v5a5.5 5.5 0 005.5-5.5h-5zM5.546 6.5a5.5 5.5 0 00-5.5 5.5h5a.5.5 0 01.5-.5v-5zm25 73a5.5 5.5 0 00-5.5 5.5h5a.5.5 0 01.5-.5v-5zm-6-68a.5.5 0 01.5.5h5a5.5 5.5 0 00-5.5-5.5v5z"/>
  <path fill="#fff" fill-rule="evenodd" d="M8.546 6a3 3 0 013-3h19a3 3 0 013 3v42a3 3 0 003 3h44a3 3 0 003-3V6a3 3 0 013-3h19a3 3 0 013 3v114a3 3 0 01-3 3h-19a3 3 0 01-3-3V79a3 3 0 00-3-3h-44a3 3 0 00-3 3v41a3 3 0 01-3 3h-19a3 3 0 01-3-3V6z" clip-rule="evenodd"/>
  <path fill="#111" d="M80.546 76v-2.5V76zm0-25v-2.5V51zm-44 0v-2.5V51zm0 25v-2.5V76zm-6-75.5h-19v5h19v-5zm5.5 47.5V6h-5v42h5zm.5 5.5h44v-5h-44v5zM81.046 6v42h5V6h-5zm24.5-5.5h-19v5h19v-5zm5.5 50.5V6h-5v45h5zm-5 0v25h5V51h-5zm5 69V76h-5v44h5zm-24.5 5.5h19v-5h-19v5zm-5.5-46.5v41h5V79h-5zm-.5-5.5h-44v5h44v-5zm-44.5 46.5V79h-5v41h5zm-24.5 5.5h19v-5h-19v5zM6.046 76v44h5V76h-5zm5 0V51h-5v25h5zm-5-70v45h5V6h-5zm5.5 114.5a.5.5 0 01-.5-.5h-5a5.5 5.5 0 005.5 5.5v-5zm74.5-41.5a5.5 5.5 0 00-5.5-5.5v5a.5.5 0 01.5.5h5zm.5 41.5a.5.5 0 01-.5-.5h-5a5.5 5.5 0 005.5 5.5v-5zm19.5-.5a.5.5 0 01-.5.5v5a5.5 5.5 0 005.5-5.5h-5zm-.5-114.5a.5.5 0 01.5.5h5a5.5 5.5 0 00-5.5-5.5v5zm-19.5.5a.5.5 0 01.5-.5v-5a5.5 5.5 0 00-5.5 5.5h5zm-5.5 47.5a5.5 5.5 0 005.5-5.5h-5a.5.5 0 01-.5.5v5zm-49.5-5.5a5.5 5.5 0 005.5 5.5v-5a.5.5 0 01-.5-.5h-5zm0 72a.5.5 0 01-.5.5v5a5.5 5.5 0 005.5-5.5h-5zM11.546.5a5.5 5.5 0 00-5.5 5.5h5a.5.5 0 01.5-.5v-5zm25 73a5.5 5.5 0 00-5.5 5.5h5a.5.5 0 01.5-.5v-5zm-6-68a.5.5 0 01.5.5h5a5.5 5.5 0 00-5.5-5.5v5z"/>
  <path fill="#111" d="M7.634 2.134L1.672 8.098h5.962V2.134zM82.635 2.134l-5.963 5.964h5.963V2.134zM109.443 123.884l-5.993 5.987v-5.987h5.993zM34.438 123.884l-5.994 5.987v-5.987h5.994z"/>
</svg>
