<svg id="Layer_1" data-name="Layer 1" xmlns="http://www.w3.org/2000/svg" viewBox="0 0 19.014 19.507">
  <title>logo-6</title>
  <path d="M17.764,7.753a8.494,8.494,0,0,0-16.514,0" fill="none" stroke="#323639" stroke-linecap="round" stroke-miterlimit="10" stroke-width="2.5"/>
  <path d="M1.25,11.753a8.493,8.493,0,0,0,16.514,0" fill="none" stroke="#323639" stroke-linecap="round" stroke-miterlimit="10" stroke-width="2.5"/>
  <path d="M11.21,12.938v-1.8a.444.444,0,0,0-.444-.445H8.254a.444.444,0,0,0-.444.445v1.8A1.083,1.083,0,0,1,6.728,14.02H6.722A1.082,1.082,0,0,1,5.64,12.938V6.569A1.082,1.082,0,0,1,6.722,5.487h.006A1.083,1.083,0,0,1,7.81,6.569V8.3a.442.442,0,0,0,.442.442h2.516A.442.442,0,0,0,11.21,8.3V6.569a1.083,1.083,0,0,1,1.082-1.082h0a1.082,1.082,0,0,1,1.082,1.082v6.369a1.082,1.082,0,0,1-1.082,1.082h0A1.083,1.083,0,0,1,11.21,12.938Z" fill="#323639"/>
</svg>
