<svg id="Layer_1" data-name="Layer 1" xmlns="http://www.w3.org/2000/svg" viewBox="0 0 81.86 97.208">
  <title>motivation</title>
  <path d="M81.788,33.886a37,37,0,0,0-73.86,2.32,17.964,17.964,0,0,1-1.55,7.3l-6.1,13.7a3.209,3.209,0,0,0,1.629,4.237,3.018,3.018,0,0,0,.291.113l5.73,1.85v14.06a6.65,6.65,0,0,0,6.65,6.65h14.3l3,10.41a3.69,3.69,0,0,0,4.558,2.541h0L74.7,86.136a3.69,3.69,0,0,0,2.54-4.558v0l-5.67-19.84A36.843,36.843,0,0,0,81.788,33.886Zm-25.86.26-9,17.06a3.357,3.357,0,0,1-3.13,1.64,3,3,0,0,1-2.44-3.4l1.38-8.36-5.35-.25H37a3.449,3.449,0,0,1-2.53-4.93l8.9-17a2.94,2.94,0,0,1,2.65-1.64,3,3,0,0,1,2.41,1.23,2.935,2.935,0,0,1,.52,2.21l-1.32,8.22,5.36.25h.38a3.451,3.451,0,0,1,2.56,4.97Z"/>
</svg>
