<svg xmlns="http://www.w3.org/2000/svg" viewBox="0 0 30 35">
  <path fill="#b5b7b9" d="M30 12.2c-.3-3.4-1.9-6.6-4.5-8.8-2.6-2.3-6-3.5-9.4-3.4-3.5.1-6.8 1.5-9.2 3.9C4.4 6.4 3 9.6 2.9 13c0 .9-.2 1.8-.6 2.6L.1 20.5c-.1.2-.1.4-.1.5 0 .2 0 .3.1.4.1.1.1.3.2.4.1.1.2.2.4.3h.1l2.1.7v5.1c0 .6.3 1.2.7 1.7.5.4 1.1.7 1.7.7h5.2l1.1 3.7c.1.3.3.6.6.8.3.2.7.2 1 .1l14-3.9c.3-.1.6-.3.8-.6.2-.3.2-.7.1-1L26 22.3c1.3-1.3 2.3-2.9 2.9-4.6.9-1.8 1.2-3.7 1.1-5.5zm-9.5.1l-3.3 6.1c-.1.2-.3.4-.5.5-.2.1-.4.1-.6.1-.3 0-.5-.2-.7-.4-.2-.2-.2-.5-.2-.8l.5-3-2-.1h-.1c-.2 0-.4-.1-.5-.2-.2-.1-.3-.3-.4-.4-.1-.2-.1-.4-.1-.6 0-.2 0-.4.1-.6L16 6.8c.1-.2.2-.3.4-.4.2-.1.4-.2.6-.2.2 0 .3 0 .5.1s.3.2.4.3c.1.1.1.2.2.4v.4l-.5 3 2 .1h.1c.2 0 .4.1.5.2.2.1.3.3.4.4.1.2.1.4.1.6-.1.2-.1.4-.2.6z"/>
</svg>
