<svg xmlns="http://www.w3.org/2000/svg" fill="none" viewBox="0 0 35 35">
  <circle cx="17.5" cy="17.5" r="17.5" fill="#C4C4C4"/>
  <path fill="#fff" d="M23.096 10l-4.335.14c-.7.056-1.37.363-1.846.839l-6.265 6.265a2.211 2.211 0 000 3.132l3.972 3.971c.42.42 1.006.643 1.566.643s1.118-.223 1.566-.643l6.236-6.237c.504-.503.812-1.146.84-1.873l.167-4.335a1.81 1.81 0 00-.531-1.37 2.05 2.05 0 00-1.37-.532z"/>
  <path fill="#C4C4C4" d="M20.663 12.321a2.023 2.023 0 00-2.014 2.014c0 1.09.923 2.014 2.014 2.014 1.09 0 2.014-.923 2.014-2.014 0-1.09-.895-2.014-2.014-2.014z"/>
</svg>
