<svg xmlns="http://www.w3.org/2000/svg" fill="none" viewBox="0 0 35 35">
  <circle cx="17.5" cy="17.5" r="17.5" fill="#C4C4C4"/>
  <path fill="#fff" d="M18.088 24.177h-.176a1.412 1.412 0 100 2.823h.176a1.412 1.412 0 100-2.823zM20.296 8.43A6.328 6.328 0 0018 8c-1.591 0-3.117.595-4.243 1.654C12.632 10.713 12 12.149 12 13.647c0 1.655 3 1.655 3 0 0-1.656 1.35-2.824 3-2.824s3 1.27 3 2.824c0 2.823-4.5 2.47-4.5 7.058 0 1.815 3 1.815 3 0 0-3.176 4.5-3.53 4.5-7.058a5.36 5.36 0 00-.457-2.161 5.638 5.638 0 00-1.3-1.832 6.037 6.037 0 00-1.947-1.224z"/>
  <path stroke="#fff" stroke-width=".6" d="M18.088 24.177h-.176a1.412 1.412 0 100 2.823h.176a1.412 1.412 0 100-2.823zM20.296 8.43A6.328 6.328 0 0018 8c-1.591 0-3.117.595-4.243 1.654C12.632 10.713 12 12.149 12 13.647c0 1.655 3 1.655 3 0 0-1.656 1.35-2.824 3-2.824s3 1.27 3 2.824c0 2.823-4.5 2.47-4.5 7.058 0 1.815 3 1.815 3 0 0-3.176 4.5-3.53 4.5-7.058a5.36 5.36 0 00-.457-2.161 5.638 5.638 0 00-1.3-1.832 6.037 6.037 0 00-1.947-1.224z"/>
</svg>
