<svg id="Layer_1" data-name="Layer 1" xmlns="http://www.w3.org/2000/svg" viewBox="0 0 12.00336 18.0222">
  <title>1</title>
  <path d="M2.18547,8.15876H.81769a.81612.81612,0,0,1-.81612-.81612V5.6472a5.5149,5.5149,0,0,1,6-5.625,5.50772,5.50772,0,0,1,6,5.625,5.26568,5.26568,0,0,1-2.82753,4.746l-.66.435a2.76284,2.76284,0,0,0-.81.6825A3.78408,3.78408,0,0,0,7.52,12.7265a.835.835,0,0,1-.82395.7969l-1.34712.002a.83873.83873,0,0,1-.8295-.8856,5.81042,5.81042,0,0,1,.58965-2.6336,5.02217,5.02217,0,0,1,1.737-1.6695l.6525-.4305c1.128-.762,1.503-1.269,1.503-2.259,0-1.6755-1.0365-2.625-3-2.625-1.9575,0-3,.957-3,2.625V7.34264a.81612.81612,0,0,1-.8161.81612Z" fill="#323639"/>
  <path d="M5.42458,15.0222H6.57835a.92315.92315,0,0,1,.92311.9231v1.1538a.92315.92315,0,0,1-.92311.9231H5.42458a.92317.92317,0,0,1-.92312-.9231V15.9453a.92317.92317,0,0,1,.92312-.9231Z" fill="#323639" fill-rule="evenodd"/>
</svg>
