<svg xmlns="http://www.w3.org/2000/svg" viewBox="0 0 5.3277 7.99917">
  <path d="M.97,3.62128H.36293A.36223.36223,0,0,1,.0007,3.259V2.50652A2.44781,2.44781,0,0,1,2.6638.00985,2.44464,2.44464,0,0,1,5.32691,2.50652,2.3371,2.3371,0,0,1,4.07192,4.613L3.779,4.80611a1.22655,1.22655,0,0,0-.35952.30293,1.67942,1.67942,0,0,0-.08171.53964.37065.37065,0,0,1-.36571.3537l-.59792.00088A.37223.37223,0,0,1,2.006,5.6102a2.57905,2.57905,0,0,1,.26171-1.16893,2.22915,2.22915,0,0,1,.771-.741l.28962-.19108c.50066-.33822.6671-.56325.6671-1.00266,0-.74367-.46005-1.16511-1.33155-1.16511-.86884,0-1.33155.42477-1.33155,1.16511V3.259A.36225.36225,0,0,1,.97,3.62128Z" fill="#fff"/>
  <path d="M2.40777,6.66762h.5121a.40973.40973,0,0,1,.40973.40973v.5121a.40972.40972,0,0,1-.40973.40972h-.5121a.40971.40971,0,0,1-.40972-.40972v-.5121a.40972.40972,0,0,1,.40972-.40973Z" fill="#fff" fill-rule="evenodd"/>
</svg>
