<svg id="Layer_1" data-name="Layer 1" xmlns="http://www.w3.org/2000/svg" viewBox="0 0 20 20">
  <title>search</title>
  <path d="M7.999,0a8.04786,8.04786,0,1,0,4.438,14.7841l4.809,4.7398a1.61189,1.61189,0,0,0,2.2858-2.2733l-4.8239-4.7547A8.08123,8.08123,0,0,0,7.999,0Zm0,3.22427A4.81277,4.81277,0,0,1,12.8377,8.00855q.00015.02229,0,.04469A4.81039,4.81039,0,0,1,8.05854,12.8971q-.02978.00015-.05955,0A4.81161,4.81161,0,0,1,3.17508,8.09794v-.0447a4.81026,4.81026,0,0,1,4.79422-4.829Z" fill="#111111"/>
</svg>
