<svg xmlns="http://www.w3.org/2000/svg" viewBox="0 0 19.99994 19.99998">
  <path d="M.08568,4.85523a1.11085,1.11085,0,0,0,.24111.36222L3.66007,8.55078A1.1111,1.1111,0,0,0,5.23116,6.97967L3.7934,5.5419H18.8887a1.11111,1.11111,0,1,0,0-2.22222H3.7934L5.23,1.883A1.1111,1.1111,0,0,0,3.659.3119L.32568,3.64523A1.11115,1.11115,0,0,0,.08457,4.85634Z" fill="#323639"/>
  <path d="M19.9142,15.1174a1.111,1.111,0,0,0-.2411-.3622l-3.3332-3.3333a1.1111,1.1111,0,0,0-1.5711,1.5711l1.4377,1.4378H1.11122a1.1111,1.1111,0,1,0,0,2.2222H16.2065l-1.4366,1.4367a1.11107,1.11107,0,1,0,1.5437,1.5984l.0274-.0273,3.3333-3.3334a1.11147,1.11147,0,0,0,.2411-1.2111Z" fill="#323639"/>
</svg>
