<svg xmlns="http://www.w3.org/2000/svg" viewBox="0 0 80.06549 90.00156" fill="#323639">
  <path d="M38.84875,5.61382l6.734-.81a.78048.78048,0,0,1,.765,1.172l-3.453,5.838a.77884.77884,0,0,0-.036.725l2.851,6.154a.77983.77983,0,0,1-.878,1.089l-6.619-1.481a.78154.78154,0,0,0-.701.189l-4.972,4.613a.77981.77981,0,0,1-1.307-.499l-.637-6.753a.77993.77993,0,0,0-.397-.608l-5.924-3.303a.77986.77986,0,0,1,.07-1.397l6.225-2.693a.7802.7802,0,0,0,.456-.565l1.311-6.655a.78048.78048,0,0,1,1.351-.365l4.485,5.088A.76815.76815,0,0,0,38.84875,5.61382Z"/>
  <path d="M75.54675,6.45582l3.999-.481a.46319.46319,0,0,1,.454.696l-2.051,3.467a.46318.46318,0,0,0-.022.431l1.693,3.655a.46371.46371,0,0,1-.522.647l-3.931-.879a.46307.46307,0,0,0-.416.113l-2.953,2.74a.46307.46307,0,0,1-.776-.296l-.379-4.01a.46007.46007,0,0,0-.236-.361l-3.518-1.962a.46338.46338,0,0,1,.042-.83l3.697-1.599a.4655.4655,0,0,0,.271-.336l.779-3.952a.46317.46317,0,0,1,.802-.217l2.663,3.022A.46646.46646,0,0,0,75.54675,6.45582Z"/>
  <path d="M65.04075,52.66382l2.016-3.11a.42582.42582,0,0,1,.759.089l1.242,3.492a.42591.42591,0,0,0,.292.269l3.581.956a.42661.42661,0,0,1,.15.75l-2.937,2.261a.42867.42867,0,0,0-.166.361l.197,3.701a.42619.42619,0,0,1-.667.374l-3.058-2.095a.42532.42532,0,0,0-.394-.046l-3.459,1.331a.426.426,0,0,1-.562-.518l1.048-3.556a.42339.42339,0,0,0-.078-.389l-2.335-2.879a.42645.42645,0,0,1,.319-.695l3.705-.102A.42222.42222,0,0,0,65.04075,52.66382Z"/>
  <path d="M54.28675,43.63382l11.14-11.14a4.33539,4.33539,0,0,0,0-6.113l-1.806-1.806a4.33539,4.33539,0,0,0-6.113,0l-11.14,11.14Z"/>
  <path d="M44.27975,37.80282l-43.019,43.019a4.33539,4.33539,0,0,0,0,6.113l1.806,1.806a4.33539,4.33539,0,0,0,6.113,0l43.019-43.019Z"/>
</svg>
