<svg id="Layer_1" data-name="Layer 1" xmlns="http://www.w3.org/2000/svg" viewBox="0 0 219 86">
  <title>buyer-header-illustration-mobile</title>
  <path d="M75.65,46.79l-3.316.326c-5.3.405-10.588,1.251-15.842,1.759a.34.34,0,0,0-.543-.03c-.524-.046-1.112-.447-1.587-.03-.015,0-.03,0-.046-.006a33.45,33.45,0,0,1-2-5.095A5.832,5.832,0,0,0,50.569,40.9c-1.537-1.068-5.057-3.234-6.861-3.143a1.338,1.338,0,0,0-.428-.872c.545-.93-1.634-1.537-1.787-1.43.1-3.108-1.362-5.807-4.581-6.426-2.884-.6-6.986-.7-8.537,2.315-.171-.019-1.914-.028-2.083-.009-.262-.332-3.141,2.819-1.961,3.916C13.78,39.922,7.781,39.364,4.861,52.5c-.395,1.234-.424,2.585-.841,3.792A35.256,35.256,0,0,0,1.035,67.23a.873.873,0,0,0,.031,1.648,1.953,1.953,0,0,1,.821.35C1.7,72.32,2.451,79.384,2.922,79.363c.959,3.058,5.24,3.921,8.27,2.846-.522.984,0,1.6,0,2.129,10.9.413,22.825.175,33.725.742a31.845,31.845,0,0,0,4.237.134.877.877,0,0,0-.011-1.685l3.718-.809A14.336,14.336,0,0,0,55.614,79.6c1.136-2.249.363-4.964.878-7.411,4.021-.329,8.11-.47,12.087-1.152.543,1.625,2.89-.319,3.637-1.1l0,0a.906.906,0,0,0,.66-.839,1.1,1.1,0,0,0,.064-1.224c1.113-6.433,2.81-13,3.424-19.494a1.366,1.366,0,0,0,.594-.29l-.014-.014A.739.739,0,0,0,76.8,46.9,1.71,1.71,0,0,0,75.65,46.79Z" fill="#edb98a" fill-opacity="0.7" fill-rule="evenodd"/>
  <path d="M33.6,70.867l.852.542,6.968,2.249,4.258.543,3.485-.543v5.97l.7,5.582q-.464.854-8.826,0c-3.554-.362-16.541-.538-19.5-.615l-.168,0q-5.148-.15-10.3,0V82.5l9.678-4.807,8.671-4.885ZM28.666,30.854l.64.478-1.4,2.3,6.806,5.514v4.4L36.87,45.59,38.1,43.548l1.735-2.311,1.234-3.747-.42-2.468.844-.08c.005.169,0,.339,0,.51.154-.107,2.333.5,1.788,1.43a1.343,1.343,0,0,1,.428.872c1.8-.091,5.324,2.075,6.861,3.143a5.832,5.832,0,0,1,1.749,2.817l.085.26.088.268.089.267a29.355,29.355,0,0,0,1.736,4.3l.046.006c.475-.417,1.063-.016,1.587.03a.34.34,0,0,1,.533.016l.009.014L49.96,50.164,45.65,65.3,41.9,62.251l-2.014.3-5.32,1.922-6.187,1.609-14.125,3.9h-1.8L1.986,67.45l-.943-.312A35.391,35.391,0,0,1,4.021,56.3c.417-1.207.446-2.558.84-3.792,2.921-13.14,8.92-12.582,19.471-17.256-1.18-1.1,1.7-4.248,1.961-3.916h.017l.035,0,.046,0c.412-.012,1.831,0,1.984.014A4.6,4.6,0,0,1,28.666,30.854Z" fill="#fafafa" fill-rule="evenodd"/>
  <path d="M76.694,47.25,76.5,48.335c-.047.016-.094.028-.141.039q-.093.974-.214,1.944l-1.207,6.733c-.208,1.191-.405,2.385-.6,3.579l-.26,1.283-.161.8c-.348,1.726-.685,3.447-.981,5.158a.88.88,0,0,1,.1.208l-.022.1L73,68.237l-.016.063a2.5,2.5,0,0,1-1.6,2.037,14.215,14.215,0,0,1-2.262.3l-.082.009L55.983,72.113q-2.367.267-4.732.545l-1.367.161c-1.905.221-3.822.395-5.7.8a.412.412,0,0,0-.173.078c.378-1.433.74-2.864,1.068-4.312.369-1.629.72-3.261,1.115-4.885q1.193-4.905,2.663-9.74.308-1.014.628-2.024l.151-.47.116-.375a2.435,2.435,0,0,1,.925-1.475,6.514,6.514,0,0,1,2.148-.558l.472-.089q6.129-1.145,12.335-1.783,5.337-.548,10.7-.72ZM44.283,69.7l.033,0-.488,3.905a.5.5,0,0,0-.3-.088,13.046,13.046,0,0,1-4.617-1.071l-.226-.086-.63-.242c-.64-.246-1.284-.486-1.94-.685l-.265-.08-.134-.04a7.221,7.221,0,0,0-1.535-.31l-.071,0,.151-.079a.445.445,0,0,0,.058-.038,3.412,3.412,0,0,0,.869-.039,5.4,5.4,0,0,0,1.615-.572l.225-.122.092-.049.061-.031.06-.031a1.988,1.988,0,0,1,1.392-.236,7.183,7.183,0,0,1,1.721.748l.1.049.066.032.068.032.069.032c.756.34,1.958.708,2.248-.321a1.421,1.421,0,0,0-.177-1.139C43.107,69.2,43.779,69.648,44.283,69.7Z" fill="#fafafa" fill-rule="evenodd"/>
  <path d="M28.575,30.64A.683.683,0,0,1,29.89,31a4.707,4.707,0,0,1-.614,1.526,3.668,3.668,0,0,1-.767,1.012q.86.8,1.777,1.541a21.939,21.939,0,0,0,2.089,1.479c.634.4,1.3.749,1.894,1.2a3.78,3.78,0,0,1,1.32,1.588,3.277,3.277,0,0,1-.047,2.135l-.023.08c-.206.7-.564,1.537-.068,2.194a5.658,5.658,0,0,0,.936.838,7.281,7.281,0,0,1,.788.773A6.4,6.4,0,0,1,38.4,47.415l.024.069a2.937,2.937,0,0,1,.089,2.153.239.239,0,0,1-.432-.056c-.114-.417-.108-.853-.2-1.276a4.845,4.845,0,0,0-.482-1.252,6.773,6.773,0,0,0-1.656-1.968l-.2-.163a2.6,2.6,0,0,1-1.109-1.6,5.422,5.422,0,0,1,.386-2.2,2.483,2.483,0,0,0,.034-1.436,9.111,9.111,0,0,1-.62.823q-.581.744-1.167,1.484c-.4.507-.789,1.021-1.16,1.55q-.248.354-.494.711c-.123.179-.294.358-.428.54a.324.324,0,0,1-.029.29c-.711.962-1.723-1.046-1.987-1.553-.537-1.033-.937-2.13-1.476-3.163a24.84,24.84,0,0,0-1.9-3.09c-.429-.591-.909-1.147-1.3-1.757a12.509,12.509,0,0,1-3.257,1.912c-1.228.561-2.5,1.019-3.761,1.5l-.372.145a21.885,21.885,0,0,0-6.191,3.283,15.421,15.421,0,0,0-4.3,6.787c-1.074,2.939-1.962,5.957-2.79,8.973q-.636,2.316-1.2,4.65c-.333,1.37-.609,2.753-.994,4.109a14.4,14.4,0,0,1,2.341.363,38.936,38.936,0,0,1,8.917,2.136.633.633,0,0,1,.38.778l.614-.173a2.515,2.515,0,0,1-.1-1.341v-.026c.019-.508.074-1.017.109-1.524.068-.967.157-1.926.275-2.888l.029-.24c.134-1.046.232-2.1.378-3.142l.017-.119q-.106-.4-.236-.794c-.227-.7-.548-1.358-.829-2.036-.033-.08.081-.126.133-.078A5.635,5.635,0,0,1,14.6,59.342l.015-.081.035-.171A2.922,2.922,0,0,1,15.1,57.9a.062.062,0,0,1,.106,0,3.259,3.259,0,0,1,.309,1.408c.043.533.048,1.073.041,1.607-.015,1.043-.088,2.09-.147,3.132-.057,1.025-.17,2.036-.316,3.05l-.027.19c-.071.483-.129.971-.223,1.45l-.027.131a6.057,6.057,0,0,1-.18.851q3.849-1.074,7.71-2.105,2.79-.745,5.585-1.48a2.1,2.1,0,0,1,.373-.491,1.422,1.422,0,0,1,1.781-.33.081.081,0,0,1,0,.138c-.117.065-.234.13-.349.2l1.118-.3c.835-.227,1.681-.51,2.536-.669a39.442,39.442,0,0,1,4.929-1.9l.2-.066a18.748,18.748,0,0,1,2.606-.776,1.4,1.4,0,0,1,1.656.684,10.227,10.227,0,0,1,.932.72c.215.18.421.372.63.558l.039.034a.79.79,0,0,1,.348.485c.022.122-.056.288-.206.272-.461-.05-.836-.585-1.148-.9-.241-.247-.485-.5-.7-.773a.273.273,0,0,1-.386-.1c-.424-.8-1.586-.247-2.228-.056l-.921.273q-.69.2-1.38.413c-1.262.384-2.518.814-3.792,1.166a.265.265,0,0,1-.118.434,27.227,27.227,0,0,1-3.127.863q-.981.255-1.961.513a1.61,1.61,0,0,0-.226.626,7.153,7.153,0,0,0,.35,2.747l.035.127a3.615,3.615,0,0,0,1.065,1.955,1.05,1.05,0,0,0,.512.2l3.463-1.784a.322.322,0,0,1,.46.216,7.5,7.5,0,0,0,1.183-.3,15.582,15.582,0,0,0,1.691-.894c1.127-.539,2.279.124,3.289.627l.232.115c.453.22,1.4.643,1.612.041.211-.582-.454-1.2-.883-1.466a5.8,5.8,0,0,0-1.685-.619c-.33-.08-.664-.144-1-.192a6.246,6.246,0,0,1-1.142-.17.209.209,0,0,1,0-.4,4.225,4.225,0,0,1,1.829.155l.308.076a7.361,7.361,0,0,1,1.735.621,3.144,3.144,0,0,1,1.08.927.828.828,0,0,1,.834-.13l.166.046a1.567,1.567,0,0,0,.762.076c.036-.195.072-.389.111-.583q.567-2.863,1.255-5.7,1.19-4.89,2.743-9.681l.1-.319a11.727,11.727,0,0,1,.815-2.2,2.594,2.594,0,0,1,1.638-1.193c.785-.22,1.61-.335,2.411-.483l.537-.1a8.715,8.715,0,0,1-.366-.822L53.651,48c-.219-.5-.415-1.006-.6-1.516l-.142-.383a19.076,19.076,0,0,0-1.176-2.7,7.007,7.007,0,0,0-2.014-2.267c-1.706-1.254-3.763-1.894-5.418-3.234-.068-.055.019-.149.088-.114,1.118.562,2.324.944,3.486,1.4l.23.091a11.451,11.451,0,0,1,2.646,1.352,7.355,7.355,0,0,1,2.11,2.448A21.873,21.873,0,0,1,54.07,46.14l.1.273c.148.409.3.817.474,1.215a11.531,11.531,0,0,1,.513,1.038c.321-.056.642-.112.964-.166a154.029,154.029,0,0,1,21.044-2.046.4.4,0,0,1,.378.5c-.676,4.007-1.278,8.028-1.938,12.038q-.431,2.625-.882,5.247c-.152.886-.328,1.768-.473,2.655a18.462,18.462,0,0,1-.4,2.138,4.082,4.082,0,0,1-.906,1.711,3.24,3.24,0,0,1-1.852.883c-1.737.3-3.519.422-5.271.622l-9.325,1.062a23.277,23.277,0,0,1,.084,3.717l-.036.684c-.029.551-.064,1.1-.143,1.649a3.329,3.329,0,0,1-.872,1.774,10.562,10.562,0,0,1-1.435,1.253,7.223,7.223,0,0,1-1.664,1.029l-.079.032a5.013,5.013,0,0,1-2.269.414,2.859,2.859,0,0,1,.116,1.47.326.326,0,0,1-.54.142,2.393,2.393,0,0,1-.459-1.346q-.128-.757-.226-1.518c-.127-.981-.226-1.971-.256-2.96q-.048-1.524.035-3.048c.028-.521.063-1.042.129-1.559.028-.221.057-.442.09-.662.012-.081.025-.161.04-.241l-.838.095c-1.283.143-2.567.273-3.859.293a.418.418,0,0,1-.348-.169.478.478,0,0,1-.429.229,13.286,13.286,0,0,1-5.128-1.3c-.828-.351-1.642-.731-2.471-1.079-.774-.325-1.6-.557-2.355-.923L31.6,72.329a.909.909,0,0,1-.053.14,1.151,1.151,0,0,1-.644.515,1.555,1.555,0,0,1-.76.11q-2.256,1.184-4.515,2.365l-1.506.786c-3,1.565-5.989,3.155-9.009,4.682l-.222.113a27.031,27.031,0,0,1-3.32,1.45,5.791,5.791,0,0,0,.017.89l0,.067c.035.367.109.827-.185,1.088a.341.341,0,0,1-.53-.068,2.548,2.548,0,0,1,.04-1.361A4.012,4.012,0,0,1,11,82.672a9.032,9.032,0,0,1-4.045.365A5.214,5.214,0,0,1,3.8,80.977a9.378,9.378,0,0,1-1.813-3.655A18.909,18.909,0,0,1,1.6,72.67a43.1,43.1,0,0,1,.272-4.978,2.415,2.415,0,0,0-.689-.081.535.535,0,0,1-.519.229c-.421.465.648.941.989,1.06.119.041.106.234-.031.228l-.086,0A1.584,1.584,0,0,1,.15,68.515a.958.958,0,0,1,.122-1.181,42.448,42.448,0,0,1,1.1-5.468c.427-1.776.9-3.539,1.407-5.294l.226-.786a77.224,77.224,0,0,1,2.717-8.167,17.446,17.446,0,0,1,2.03-3.765,12.943,12.943,0,0,1,2.814-2.774A26.6,26.6,0,0,1,17.261,37.9l.1-.038c1.2-.435,2.4-.876,3.59-1.348,1.052-.417,2.059-.947,3.105-1.37-.034-.062-.066-.125-.1-.188l-.019.017-.01.007a.292.292,0,0,1-.347-.044c-.245-.232-.162-.489,0-.729l.021-.03c.2-.281.379-.577.563-.868l.116-.181a7.454,7.454,0,0,1,1.048-1.376,2.233,2.233,0,0,1,.622-.428c-.019-.041.147-.123.2-.082a5.3,5.3,0,0,1,2.277-.132ZM56.04,73.357l-.977.112q-1.613.183-3.225.358l-2.337.254c-.006.134-.022.264-.025.365-.015.519-.026,1.038-.037,1.558q-.033,1.561.07,3.122c.067,1.007.154,2.014.29,3.014l.028.2.016.1a.459.459,0,0,1,.31.172c.2.236.913.006,1.193-.093a5.672,5.672,0,0,0,1.291-.718,8.293,8.293,0,0,0,1.078-.919l.277-.274a3.532,3.532,0,0,0,.717-.908,5.008,5.008,0,0,0,.325-1.546c.082-.624.18-1.249.284-1.87ZM27.676,66.8l-.1.027c-3.681.98-7.357,1.988-11.05,2.925-1.828.463-3.664.893-5.494,1.348l-.3.074a8.686,8.686,0,0,0-4.01,1.853.043.043,0,0,1-.061-.061,9.48,9.48,0,0,1,4.512-2.274l.9-.256a52.986,52.986,0,0,0-6.759-1.967c-.592-.126-1.191-.219-1.783-.346-.413-.088-.816-.216-1.224-.322l-.321-.081,0,1.017c-.005,1.439,0,2.877.07,4.316l.014.267a15.825,15.825,0,0,0,.787,4.747,8.644,8.644,0,0,0,2.158,3.277,3.9,3.9,0,0,0,1.656.978,5.618,5.618,0,0,0,1.846.137c2.96-.206,5.595-1.816,8.166-3.15q6.307-3.272,12.621-6.532a2.041,2.041,0,0,1-.319-.268,4.713,4.713,0,0,1-1.057-2.157,11.378,11.378,0,0,1-.348-2.558Zm5.356,6.819a.052.052,0,0,1,.027-.007.06.06,0,0,1,.027.007.048.048,0,0,1,.02.02.053.053,0,0,1,.008.027,2.176,2.176,0,0,1-.3.93l-.014.031q-.244.538-.521,1.062-.547,1.047-1.14,2.067a24.5,24.5,0,0,1-2.727,3.869c-.237.269-.625-.076-.473-.366A42.792,42.792,0,0,1,30.4,77.24c.439-.655.877-1.31,1.321-1.961q.276-.409.565-.81l.116-.159ZM76.7,47.253q-5.542.166-11.061.732-6.2.637-12.335,1.783l-.423.08a6.758,6.758,0,0,0-2.2.567,3.133,3.133,0,0,0-1.062,1.917q-.39,1.211-.758,2.427Q47.4,59.59,46.2,64.5c-.4,1.624-.746,3.256-1.115,4.885-.328,1.448-.69,2.879-1.068,4.312a.426.426,0,0,1,.173-.079c1.877-.4,3.794-.573,5.7-.794l.184-.022q2.958-.35,5.915-.684l13.059-1.471a15.327,15.327,0,0,0,2.344-.306c1.274-.351,1.573-1.778,1.787-2.914l.006-.034c.645-3.433,1.158-6.9,1.759-10.337ZM44.318,69.706c-.507-.034-1.2-.5-1.585-.465a1.417,1.417,0,0,1,.176,1.139c-.324,1.15-1.788.555-2.494.2a7.625,7.625,0,0,0-1.777-.776,2.478,2.478,0,0,0-1.83.469,5.433,5.433,0,0,1-1.615.572,3.366,3.366,0,0,1-.869.038.368.368,0,0,1-.058.039l-.151.079a8.368,8.368,0,0,1,2,.434c.656.2,1.3.439,1.94.685l.629.242a13.6,13.6,0,0,0,4.844,1.157.5.5,0,0,1,.3.087Zm-2.836-3.6a1.716,1.716,0,0,1,1.363.331c.483.394.807,1.047,1.5,1.09a.183.183,0,0,1,.048.357,1.27,1.27,0,0,1-1.287-.49l-.236-.248a1.545,1.545,0,0,0-1.259-.618c-.632.024-1.265.17-1.892.244q-1.068.126-2.136.218c-.033,0-.039-.049-.008-.057l.8-.2ZM41,64.052l.083-.008a3.121,3.121,0,0,1,2.042.318l.124.075a4.745,4.745,0,0,1,1.59,1.354.126.126,0,0,1-.14.182,6.1,6.1,0,0,1-1.81-1.074,3.056,3.056,0,0,0-2.108-.3c-.733.065-1.466.155-2.193.278-.682.114-1.366.3-2.056.354v0c-.078,0-.123-.118-.043-.158a9.418,9.418,0,0,1,2.271-.676Zm-24.9-19.805a.058.058,0,0,1,.108-.029,12.215,12.215,0,0,1,.973,2.774c.264.962.477,1.934.668,2.913a32.055,32.055,0,0,1,.609,5.975c0,.288-.468.365-.514.069-.3-1.965-.6-3.933-.9-5.9-.154-.988-.334-1.973-.506-2.958ZM20.778,45.7c-.034-.115.133-.153.175-.048a12.184,12.184,0,0,1,.662,7.443c-.093.377-.644.213-.574-.159Zm12.25-2.074c0-.086.107-.1.149-.041.45.635.637,1.486,1.426,1.814.395.164.838.135,1.186.412a.58.58,0,0,1,.237.757.187.187,0,0,1-.291.038,1.76,1.76,0,0,0-.322-.423,2.4,2.4,0,0,0-.748-.232,1.824,1.824,0,0,1-.826-.493Zm7.518-10.59a.091.091,0,0,1,.121.032.1.1,0,0,1-.015.152,3.7,3.7,0,0,1,.163.548c.047.21.1.419.15.627.107.42.2.843.306,1.263q.171.669.4,1.321c.01.028.021.056.032.085l.017.044,0-.006a.047.047,0,0,1,.086.036c-.007.046-.016.093-.024.139l.016.042a.769.769,0,0,1-.015.774.365.365,0,0,1-.233.154,13.342,13.342,0,0,1-.532,1.426l-.058.134a7.988,7.988,0,0,1-1.068,1.9,21.545,21.545,0,0,0-1.647,1.732,4.192,4.192,0,0,0-.465,1.011l-.044.136a1.082,1.082,0,0,1-.415.648.209.209,0,0,1-.251-.032c-.487-.516.023-1.481.317-1.981a7.129,7.129,0,0,1,1.592-1.665,7.017,7.017,0,0,0,1.44-2.067c.241-.456.474-.923.719-1.381a2.08,2.08,0,0,1-.425-.99l-.008-.028a11.306,11.306,0,0,1-.329-1.533,8.386,8.386,0,0,1-.08-1.485l.005-.128ZM41.5,35.4c-.057-.078.037-.166.114-.149a5.248,5.248,0,0,1,1.358.615l.045.024a1.9,1.9,0,0,1,.856.762,2.4,2.4,0,0,1,.151,1.249l0,.039a10.569,10.569,0,0,1-.144,1.519.355.355,0,0,1-.478.264,6.179,6.179,0,0,1-1.362,1.856,3.572,3.572,0,0,0-.431,2.628c.026.361-.422.463-.652.271l-.532-.442-.265-.222c-.075-.064-.15-.128-.224-.193l-.111-.1c-.05-.044-.266-.286-.33-.3-.153-.024-.518.381-.643.508l-.016.016a6.519,6.519,0,0,0-.645.743.048.048,0,0,1-.082-.048,6.794,6.794,0,0,1,.628-1.084l.05-.068c.163-.219.381-.607.669-.672.351-.079.7.273.956.469l.016.012c.122.091.242.184.362.278a3.527,3.527,0,0,1,.413-1.905,7.254,7.254,0,0,1,.911-1.047c.344-.386.524-.86.835-1.261a.234.234,0,0,1,.155-.089c.012-.322.06-.648.1-.968l.011-.095a1.97,1.97,0,0,0-.045-1.1,2.664,2.664,0,0,0-.8-.732l-.223-.173ZM26.175,31.73a1.786,1.786,0,0,0-.4.313,6.619,6.619,0,0,0-.914,1.387c-.142.26-.279.523-.423.782-.062.113-.126.225-.191.336-.03.051-.119.153-.163.216.049.069.1.137.152.2.019.025,1.38,1.51,1.855,2.092A19.028,19.028,0,0,1,28.026,39.9c.544.986.957,2.029,1.461,3.034a7.589,7.589,0,0,0,.893,1.438c.013.017.028.033.042.049a4.385,4.385,0,0,1,.661-1L31.1,43.4c.391-.528.8-1.04,1.225-1.543q.578-.688,1.185-1.351l.152-.165a4.533,4.533,0,0,1,1.053-.979,1.928,1.928,0,0,0-.154-.234,5.254,5.254,0,0,0-1.473-1.2l-.35-.213a23.971,23.971,0,0,1-3.76-2.692,15.207,15.207,0,0,1-1.712-1.777l-.18-.228Zm2.2-.4a7.611,7.611,0,0,0-1.855.241c.508.48.99,1,1.485,1.487.044-.33.134-.657.21-.979" fill-rule="evenodd"/>
  <path d="M47.282,18.531a35.909,35.909,0,0,1,.064-4.718c.091-1.178-.459-5.827-1.5-5.4-1.743-1.384-4.065-1.69-6.236-1.836-4.51-.3-9.307.393-12.789,3.439-1.722,1.581-3.4,3.882-3.264,6.277-1.565,2.27-3.77,5.384-1.821,8.039.663.848,1.716,1.164,2.548,1.806,1.675,1.355,2.725,3.3,4.415,4.647,4.479,4.039,12.082,4.882,16.482.289,3.4-3.327,2.852-8.3,2.254-12.544C47.034,15.68,47.607,21.392,47.282,18.531Z" fill="#edb98a" fill-opacity="0.7" fill-rule="evenodd"/>
  <path d="M33.587.359A15.613,15.613,0,0,1,37.263.008l.095,0a5.827,5.827,0,0,1,2.909.66.165.165,0,0,1,.189-.038,24.879,24.879,0,0,0,3.029,1.123,13.667,13.667,0,0,0,3.106.634.571.571,0,0,1,.486.849c-.06.092-.119.185-.176.278l.291-.031a.623.623,0,0,1,.619.622q-.018.293-.064.582a.864.864,0,0,1,.359.065c.592.251.551.958.506,1.5a3.559,3.559,0,0,1-.856,2.1A3.4,3.4,0,0,1,48.578,9.8a3.746,3.746,0,0,1,.151,1.293l-.01.13a2.094,2.094,0,0,1-.457,1.329.717.717,0,0,1-.59.218c.123,1.084.2,2.174.276,3.261l.035.519c.165,2.51.29,5.037.257,7.552a10.79,10.79,0,0,1-1.929,6.539A9.315,9.315,0,0,1,41,34.147a9.436,9.436,0,0,1-3.473.114,8.226,8.226,0,0,1-1.66-.4,3.164,3.164,0,0,1-1.412-1.022c-.187-.229-.1-.716.277-.67a8.993,8.993,0,0,1,1.624.32l.078.024a7.965,7.965,0,0,0,1.664.358,8.59,8.59,0,0,0,3.439-.353,8.1,8.1,0,0,0,4.354-3.458,11.277,11.277,0,0,0,1.3-6.256q-.027-3.6-.223-7.207l-.022-.4q-.1-1.852-.189-3.707c-.018-.387-.045-.778-.093-1.165a3.072,3.072,0,0,1-1.106-1.069,11.07,11.07,0,0,1-1.579.5,9.188,9.188,0,0,1-3.583.179q-.483.2-.983.352l-.271.118a16.377,16.377,0,0,1-2.467.851l-.208.052a8.422,8.422,0,0,1-1.406.253,2.016,2.016,0,0,1-.255.079,4.129,4.129,0,0,1-1.325.1.6.6,0,0,1-.506-.884q.261-.45.527-.9a16.723,16.723,0,0,1-1.893.653c-.648.183-1.3.337-1.962.479-.352.075-.7.142-1.055.217a2.133,2.133,0,0,0-.842.248c-.226.182-.29.606-.376.869-.113.34-.219.683-.315,1.028a21.174,21.174,0,0,0-.472,2.1,19.974,19.974,0,0,0-.25,2.14c-.046.716-.025,1.438-.1,2.151a.441.441,0,0,1-.743.308l-.1-.094L25.335,20a5.273,5.273,0,0,1-.708-.756c-.037-.052-.073-.105-.106-.159a.02.02,0,0,1-.015-.006l-.057-.043c-.625-.466-1.669-1.075-2.278-.3a2.387,2.387,0,0,0-.376.865l-.145.543a9.172,9.172,0,0,0-.233,1.074,3.022,3.022,0,0,0,.5,2.4,1.425,1.425,0,0,0,.871.5,2.173,2.173,0,0,0,.569-.031c.192-.024.378.015.57,0,.306-.03.44.338.325.569a1.4,1.4,0,0,1-.217.321,2.563,2.563,0,0,1,.191.185.951.951,0,0,1,.465.348.787.787,0,0,1,.157.431c.011.038.02.077.029.116l.165.271.11.175a8.433,8.433,0,0,0,1.472,1.763c.56.512,1.168.97,1.694,1.519l.062.065a2.114,2.114,0,0,1,.815,1.9.338.338,0,0,1-.495.2,11.8,11.8,0,0,1-1.332-1.6c-.494-.527-1.042-1-1.538-1.526a6.04,6.04,0,0,1-1.118-1.677.808.808,0,0,1-.5.245.892.892,0,0,1-.915-.5,2.942,2.942,0,0,1-.33.126c-.586.18-.954-.474-.733-.957a2.364,2.364,0,0,1,.449-.673,2.844,2.844,0,0,1-1.532-.747,3.989,3.989,0,0,1-.861-3.575,9.424,9.424,0,0,1,.56-1.947c.044-.109.092-.217.143-.323a.1.1,0,0,1-.042-.01.093.093,0,0,1-.034-.028,4.673,4.673,0,0,1-.506-.687c-.117-.24-.246-.484-.338-.734A7.152,7.152,0,0,1,19.73,15.7a12.437,12.437,0,0,1,.091-3.315,13.378,13.378,0,0,1,2.01-5.252.893.893,0,0,1-.16-.107L21.647,7l-.04-.037a.739.739,0,0,1,0-1.032l.084-.085a2.185,2.185,0,0,1,.372-.307c.026-.018.052-.034.078-.049a.749.749,0,0,1-.059-.58c.22-.753,1.3-.726,1.984-.4a12.343,12.343,0,0,1,2.508-1.744A26.693,26.693,0,0,1,33.587.359ZM22.38,20.2a2.048,2.048,0,0,1,1.307.313,5.223,5.223,0,0,1,1.233.858.7.7,0,0,1,.177.669l-.015.072a.6.6,0,0,1-.569.435c-.509-.014-.751-.456-1.04-.829a.531.531,0,0,1-.129.158l-.035.028a.631.631,0,0,1-.41.157.755.755,0,0,1-.318-.086.644.644,0,0,1-.289-.713.661.661,0,0,1,.263-.382l-.047-.033a.919.919,0,0,1-.262-.251l-.016-.026h.006A.251.251,0,0,1,22.38,20.2Z" fill-rule="evenodd"/>
  <path d="M41.5,28a3.049,3.049,0,0,1-3.221-.938,2.126,2.126,0,0,1-.559-1.408.227.227,0,0,1,.055-.147.26.26,0,0,1,.3-.068.218.218,0,0,1,.1.1c.059.079.119.156.179.231a2.927,2.927,0,0,0,1.665,1.2,2.031,2.031,0,0,0,1.14-.083,2.445,2.445,0,0,0,1-.706.536.536,0,0,1,.41-.2.624.624,0,0,1,.439.193.681.681,0,0,1,.2.444.592.592,0,0,1-.169.436A3.413,3.413,0,0,1,41.5,28Zm-.017-7.427c.584.356,1.475,1.186.846,2.068-.74.778-1.806-.114-2.331-.517-.487-.313-1.035.491-.583.856,3.8,2.814,5.336-2.314,2.363-2.825C41.454,20.1,41.333,20.465,41.486,20.575Zm-5.47-1.566a.65.65,0,0,0-.653-.05,2.122,2.122,0,0,0-.761.76,1.5,1.5,0,0,0-.25.887.2.2,0,0,1-.065.17.248.248,0,0,1-.141.062A.357.357,0,0,1,34,20.825a.22.22,0,0,1-.147-.127,1.852,1.852,0,0,1,.09-1.359,2.772,2.772,0,0,1,.992-1.246,1.653,1.653,0,0,1,1.6-.007A2.955,2.955,0,0,1,37.5,19.1c.056.082.113.165.171.245a.5.5,0,0,1,.083.461.6.6,0,0,1-.337.349.61.61,0,0,1-.471.007.6.6,0,0,1-.32-.339A1.792,1.792,0,0,0,36.016,19.009Zm9.544.67a.439.439,0,0,1-.372.045.525.525,0,0,1-.218-.131.433.433,0,0,1-.121-.219.9.9,0,0,0-.315-.526.637.637,0,0,0-.5-.132.962.962,0,0,0-.541.325,1.26,1.26,0,0,0-.117.171,1.212,1.212,0,0,1-.225.3.214.214,0,0,1-.2.043.653.653,0,0,1-.24-.522.958.958,0,0,1,.176-.484,1.911,1.911,0,0,1,1.022-.728,1.523,1.523,0,0,1,1.2.258,1.7,1.7,0,0,1,.693,1.062.561.561,0,0,1-.028.314A.431.431,0,0,1,45.56,19.679Zm-8.6-4.54a1.344,1.344,0,0,1-.871.324,4.062,4.062,0,0,0-.442.066,4.143,4.143,0,0,0-1.069.391,3.931,3.931,0,0,0-1,.711c-.065.07-.126.143-.188.216s-.11.131-.166.193-.127.146-.189.22a.884.884,0,0,0-.053.095c-.012.024-.025.051-.041.08s-.046.083-.071.123c-.043.072-.066.092-.086.1a.183.183,0,0,1-.095.018.159.159,0,0,1-.081-.04.6.6,0,0,1-.167-.49,2.117,2.117,0,0,1,.215-.824,4.443,4.443,0,0,1,.946-1.3,4.593,4.593,0,0,1,1.488-.907,3.024,3.024,0,0,1,1.126-.233,1.114,1.114,0,0,1,.746.294.649.649,0,0,1,.2.477A.682.682,0,0,1,36.963,15.139Zm9.121,2.3a.137.137,0,0,1-.065.056.15.15,0,0,1-.084.011.155.155,0,0,1-.076-.037.153.153,0,0,1-.043-.075,2.262,2.262,0,0,0-1.211-1.671,5.08,5.08,0,0,0-1.128-.38c-.111-.027-.227-.043-.344-.06a1.424,1.424,0,0,1-.978-.413.8.8,0,0,1-.171-.618.659.659,0,0,1,.357-.487,2.079,2.079,0,0,1,1.7.22l.115.049a3.953,3.953,0,0,1,1.37.916,2.972,2.972,0,0,1,.7,1.3A1.569,1.569,0,0,1,46.084,17.439Z" fill-rule="evenodd"/>
  <path d="M34.588,28.548a5.248,5.248,0,0,1,3.57-2.947,10.479,10.479,0,0,1,3.55-.165,6.912,6.912,0,0,1,1.862.338,2.736,2.736,0,0,1,1.207,1,5.694,5.694,0,0,1,.783,1.712c.024.086.047.173.069.26a1.553,1.553,0,0,1-.658,1.133,2.876,2.876,0,0,1-1.394.436c-.048-.023-.095-.047-.138-.071-.764-.439-1.3-1.474-2.266-1.334-.861.125-1.428,1.21-1.939,1.846a6.727,6.727,0,0,1-4.622-1.244A2.712,2.712,0,0,1,34.588,28.548Zm12.158-1.116a6.421,6.421,0,0,0-.494-1.064,6.034,6.034,0,0,0-2.827-2.51,8.683,8.683,0,0,0-8.674,1.613,5.467,5.467,0,0,0-1.787,2.723.4.4,0,0,0-.192.1,21.967,21.967,0,0,1-4.627-3.445,9.177,9.177,0,0,1-2.026-3.61.105.105,0,0,0-.206.028l0,.086c-.017-.052-.1-.025-.1.026a17.954,17.954,0,0,0-.241,5.018,5.238,5.238,0,0,0,1.192,2.477,24.466,24.466,0,0,0,2.1,2.348A8.552,8.552,0,0,0,30.4,32.583,18.084,18.084,0,0,0,32.532,33.6c.724.316,1.46.608,2.209.861a20.582,20.582,0,0,0,4.62,1.012,8.635,8.635,0,0,0,3.911-.218A5.3,5.3,0,0,0,45.54,33.44a8.69,8.69,0,0,0,1.438-2.881A7.553,7.553,0,0,0,46.746,27.432Z" fill-rule="evenodd"/>
  <path d="M48.014,21.269a2.638,2.638,0,0,1-2.379.848c-1.923-.186-2.528-2.372-2.591-4.072,1.289.364-.109-2.209,4.3-2.491,1.553-.13,1.125.809,1.811,1.5A7.232,7.232,0,0,1,48.014,21.269Zm-9.157-1.655c-1.135,5.323-7.351,4.056-8-.742.6-.426.444-1.478,1.193-1.859a7.14,7.14,0,0,1,4.019-.71c1.723.119,2.214.834,3.1,1.614A10.974,10.974,0,0,1,38.857,19.614Zm11.619-4.942-.191-.03a.559.559,0,0,0-.177-.063,3.031,3.031,0,0,0-.463-.081c-2.209-.5-7.32.21-7.531,2.1a7,7,0,0,1-2.127.046c-.621-2.6-11.35-2.231-11.866-.665l-.006,0a8.13,8.13,0,0,0-1.795-.141,15.577,15.577,0,0,0-3.61.339c-2.22.353-5.25.767-3.706,3.543v0h0a.438.438,0,0,0,.734-.316c-.519-1.315.654-1.473,1.556-1.851a15.1,15.1,0,0,1,6.852-.67,1.668,1.668,0,0,0,.72.479c1.552.258.734,1.412,1.715,1.579A4.53,4.53,0,0,0,38.1,22.509c1.127-1.1,1.4-2.739,1.657-4.213a.39.39,0,0,0,.277-.207,1.819,1.819,0,0,1,1.2-.731,2.148,2.148,0,0,1,1.232.148,1.083,1.083,0,0,0,.057.105.4.4,0,0,0,.117.126c-.649,4,2.454,6.534,5.587,4.458,1.361-1.282,1.648-3.245,1.7-5a.53.53,0,0,0,.238-.6.758.758,0,0,1,.447-.862A.589.589,0,0,0,50.476,14.672Z" fill-rule="evenodd"/>
  <path d="M60.373,56.315l.942-.054a.481.481,0,0,1,.526.6l-.317,1.708,1.09-.062.245-1.319a.831.831,0,0,1,.275-.461l.465-.41a.827.827,0,0,1,.492-.213l.942-.055a.482.482,0,0,1,.526.6L64.524,62.21a.827.827,0,0,1-.274.462l-.465.409a.822.822,0,0,1-.492.214l-.942.054a.481.481,0,0,1-.526-.6l.308-1.66-1.09.062-.236,1.27a.828.828,0,0,1-.275.461l-.465.41a.834.834,0,0,1-.492.214l-.942.054a.482.482,0,0,1-.526-.6L59.141,57.4a.834.834,0,0,1,.275-.462l.465-.409A.822.822,0,0,1,60.373,56.315Z" fill="#111"/>
  <path d="M60.107,56.958a.2.2,0,0,1,.177-.155l.941-.054a.112.112,0,0,1,.122.138l-.381,2.05a.111.111,0,0,0,.121.138l2.181-.125a.2.2,0,0,0,.176-.155l.382-2.05A.2.2,0,0,1,64,56.59l.942-.055a.112.112,0,0,1,.122.138L64.03,62.239a.2.2,0,0,1-.176.155l-.942.054a.111.111,0,0,1-.121-.138l.372-2a.112.112,0,0,0-.122-.138L60.86,60.3a.2.2,0,0,0-.176.155l-.372,2a.2.2,0,0,1-.176.155l-.942.054a.111.111,0,0,1-.121-.138Z" fill="#fff"/>
  <path d="M134.727,35.6a2.773,2.773,0,0,1,2.773-2.774h30.513a2.774,2.774,0,0,1,2.774,2.774v36.06a2.774,2.774,0,0,1-2.774,2.774H137.5a2.773,2.773,0,0,1-2.773-2.774Z" fill="#fff"/>
  <path d="M134.17,35.6a3.328,3.328,0,0,1,3.329-3.329h30.512A3.328,3.328,0,0,1,171.34,35.6v36.06a3.329,3.329,0,0,1-3.329,3.329H137.5a3.329,3.329,0,0,1-3.329-3.329Zm3.329-2.22a2.22,2.22,0,0,0-2.22,2.22v36.06a2.219,2.219,0,0,0,2.22,2.219h30.512a2.218,2.218,0,0,0,2.219-2.219V35.6a2.219,2.219,0,0,0-2.219-2.22Z" fill="#111" fill-rule="evenodd"/>
  <path d="M181.9,13.329a2.773,2.773,0,0,1,2.773-2.774h30.513a2.774,2.774,0,0,1,2.774,2.774v36.06a2.774,2.774,0,0,1-2.774,2.774H184.668a2.773,2.773,0,0,1-2.773-2.774Z" fill="#fff"/>
  <path d="M181.34,13.329A3.328,3.328,0,0,1,184.668,10h30.513a3.328,3.328,0,0,1,3.329,3.329v36.06a3.329,3.329,0,0,1-3.329,3.329H184.668a3.329,3.329,0,0,1-3.328-3.329Zm3.328-2.219a2.219,2.219,0,0,0-2.219,2.219v36.06a2.219,2.219,0,0,0,2.219,2.219h30.513a2.218,2.218,0,0,0,2.219-2.219V13.329a2.218,2.218,0,0,0-2.219-2.219Z" fill="#111" fill-rule="evenodd"/>
  <path d="M87.555,13.329a2.774,2.774,0,0,1,2.774-2.774h30.512a2.774,2.774,0,0,1,2.774,2.774v36.06a2.774,2.774,0,0,1-2.774,2.774H90.329a2.774,2.774,0,0,1-2.774-2.774Z" fill="#fff"/>
  <path d="M87,13.329A3.328,3.328,0,0,1,90.329,10h30.512a3.328,3.328,0,0,1,3.329,3.329v36.06a3.329,3.329,0,0,1-3.329,3.329H90.329A3.329,3.329,0,0,1,87,49.389Zm3.329-2.219a2.218,2.218,0,0,0-2.219,2.219v36.06a2.218,2.218,0,0,0,2.219,2.219h30.512a2.218,2.218,0,0,0,2.219-2.219V13.329a2.218,2.218,0,0,0-2.219-2.219Z" fill="#111" fill-rule="evenodd"/>
  <rect x="91.084" y="13.859" width="29" height="21" rx="1" fill="#e3e3e3"/>
  <rect x="91.084" y="37.859" width="15" height="4" rx="1" fill="#e3e3e3"/>
  <rect x="91.084" y="44.859" width="23" height="4" rx="1" fill="#e3e3e3"/>
  <rect x="138.256" y="36.133" width="29" height="21" rx="1" fill="#e3e3e3"/>
  <rect x="138.256" y="60.133" width="15" height="4" rx="1" fill="#e3e3e3"/>
  <rect x="138.256" y="67.133" width="23" height="4" rx="1" fill="#e3e3e3"/>
  <rect x="185.426" y="13.859" width="29" height="21" rx="1" fill="#e3e3e3"/>
  <rect x="185.426" y="37.859" width="15" height="4" rx="1" fill="#e3e3e3"/>
  <rect x="185.426" y="44.859" width="23" height="4" rx="1" fill="#e3e3e3"/>
</svg>
