<svg id="Layer_1" data-name="Layer 1" xmlns="http://www.w3.org/2000/svg" viewBox="0 0 448 302">
  <title>buyer-header-illustration-desktop</title>
  <path d="M208,65.851a5,5,0,0,1,5-5h55a5,5,0,0,1,5,5v65a5,5,0,0,1-5,5H213a5,5,0,0,1-5-5Z" fill="#fff"/>
  <path d="M207,65.851a6,6,0,0,1,6-6h55a6,6,0,0,1,6,6v65a6,6,0,0,1-6,6H213a6,6,0,0,1-6-6Zm6-4a4,4,0,0,0-4,4v65a4,4,0,0,0,4,4h55a4,4,0,0,0,4-4v-65a4,4,0,0,0-4-4Z" fill="#111" fill-rule="evenodd"/>
  <path d="M214.359,68.609a1.8,1.8,0,0,1,1.8-1.8H264.83a1.8,1.8,0,0,1,1.8,1.8v34.248a1.8,1.8,0,0,1-1.8,1.8H216.162a1.8,1.8,0,0,1-1.8-1.8Z" fill="#e3e3e3"/>
  <path d="M214.359,111.87a1.8,1.8,0,0,1,1.8-1.8H239.6a1.8,1.8,0,0,1,1.8,1.8v3.6a1.8,1.8,0,0,1-1.8,1.8H216.162a1.8,1.8,0,0,1-1.8-1.8Z" fill="#e3e3e3"/>
  <path d="M214.359,124.487a1.8,1.8,0,0,1,1.8-1.8h37.853a1.8,1.8,0,0,1,1.8,1.8v3.605a1.8,1.8,0,0,1-1.8,1.8H216.162a1.8,1.8,0,0,1-1.8-1.8Z" fill="#e3e3e3"/>
  <path d="M382,65.851a5,5,0,0,1,5-5h55a5,5,0,0,1,5,5v65a5,5,0,0,1-5,5H387a5,5,0,0,1-5-5Z" fill="#fff"/>
  <path d="M381,65.851a6,6,0,0,1,6-6h55a6,6,0,0,1,6,6v65a6,6,0,0,1-6,6H387a6,6,0,0,1-6-6Zm6-4a4,4,0,0,0-4,4v65a4,4,0,0,0,4,4h55a4,4,0,0,0,4-4v-65a4,4,0,0,0-4-4Z" fill="#111" fill-rule="evenodd"/>
  <path d="M388.359,68.609a1.8,1.8,0,0,1,1.8-1.8H438.83a1.8,1.8,0,0,1,1.8,1.8v34.248a1.8,1.8,0,0,1-1.8,1.8H390.162a1.8,1.8,0,0,1-1.8-1.8Z" fill="#e3e3e3"/>
  <path d="M388.359,111.87a1.8,1.8,0,0,1,1.8-1.8H413.6a1.8,1.8,0,0,1,1.8,1.8v3.6a1.8,1.8,0,0,1-1.8,1.8H390.162a1.8,1.8,0,0,1-1.8-1.8Z" fill="#e3e3e3"/>
  <path d="M388.359,124.487a1.8,1.8,0,0,1,1.8-1.8h37.853a1.8,1.8,0,0,1,1.8,1.8v3.605a1.8,1.8,0,0,1-1.8,1.8H390.162a1.8,1.8,0,0,1-1.8-1.8Z" fill="#e3e3e3"/>
  <path d="M382,162.851a5,5,0,0,1,5-5h55a5,5,0,0,1,5,5v65a5,5,0,0,1-5,5H387a5,5,0,0,1-5-5Z" fill="#fff"/>
  <path d="M381,162.851a6,6,0,0,1,6-6h55a6,6,0,0,1,6,6v65a6,6,0,0,1-6,6H387a6,6,0,0,1-6-6Zm6-4a4,4,0,0,0-4,4v65a4,4,0,0,0,4,4h55a4,4,0,0,0,4-4v-65a4,4,0,0,0-4-4Z" fill="#111" fill-rule="evenodd"/>
  <path d="M388.359,165.609a1.8,1.8,0,0,1,1.8-1.8H438.83a1.8,1.8,0,0,1,1.8,1.8v34.248a1.8,1.8,0,0,1-1.8,1.8H390.162a1.8,1.8,0,0,1-1.8-1.8Z" fill="#e3e3e3"/>
  <path d="M388.359,208.87a1.8,1.8,0,0,1,1.8-1.8H413.6a1.8,1.8,0,0,1,1.8,1.8v3.6a1.8,1.8,0,0,1-1.8,1.8H390.162a1.8,1.8,0,0,1-1.8-1.8Z" fill="#e3e3e3"/>
  <path d="M388.359,221.487a1.8,1.8,0,0,1,1.8-1.8h37.853a1.8,1.8,0,0,1,1.8,1.8v3.605a1.8,1.8,0,0,1-1.8,1.8H390.162a1.8,1.8,0,0,1-1.8-1.8Z" fill="#e3e3e3"/>
  <path d="M208,160.851a5,5,0,0,1,5-5h55a5,5,0,0,1,5,5v65a5,5,0,0,1-5,5H213a5,5,0,0,1-5-5Z" fill="#fff"/>
  <path d="M207,160.851a6,6,0,0,1,6-6h55a6,6,0,0,1,6,6v65a6,6,0,0,1-6,6H213a6,6,0,0,1-6-6Zm6-4a4,4,0,0,0-4,4v65a4,4,0,0,0,4,4h55a4,4,0,0,0,4-4v-65a4,4,0,0,0-4-4Z" fill="#111" fill-rule="evenodd"/>
  <path d="M214.359,163.609a1.8,1.8,0,0,1,1.8-1.8H264.83a1.8,1.8,0,0,1,1.8,1.8v34.248a1.8,1.8,0,0,1-1.8,1.8H216.162a1.8,1.8,0,0,1-1.8-1.8Z" fill="#e3e3e3"/>
  <path d="M214.359,206.87a1.8,1.8,0,0,1,1.8-1.8H239.6a1.8,1.8,0,0,1,1.8,1.8v3.6a1.8,1.8,0,0,1-1.8,1.8H216.162a1.8,1.8,0,0,1-1.8-1.8Z" fill="#e3e3e3"/>
  <path d="M214.359,219.487a1.8,1.8,0,0,1,1.8-1.8h37.853a1.8,1.8,0,0,1,1.8,1.8v3.605a1.8,1.8,0,0,1-1.8,1.8H216.162a1.8,1.8,0,0,1-1.8-1.8Z" fill="#e3e3e3"/>
  <path d="M295,6.351a5,5,0,0,1,5-5h55a5,5,0,0,1,5,5v65a5,5,0,0,1-5,5H300a5,5,0,0,1-5-5Z" fill="#fff"/>
  <path d="M294,6.351a6,6,0,0,1,6-6h55a6,6,0,0,1,6,6v65a6,6,0,0,1-6,6H300a6,6,0,0,1-6-6Zm6-4a4,4,0,0,0-4,4v65a4,4,0,0,0,4,4h55a4,4,0,0,0,4-4v-65a4,4,0,0,0-4-4Z" fill="#111" fill-rule="evenodd"/>
  <path d="M301.359,9.109a1.8,1.8,0,0,1,1.8-1.8H351.83a1.8,1.8,0,0,1,1.8,1.8V43.357a1.8,1.8,0,0,1-1.8,1.8H303.162a1.8,1.8,0,0,1-1.8-1.8Z" fill="#e3e3e3"/>
  <path d="M301.359,52.37a1.8,1.8,0,0,1,1.8-1.8H326.6a1.8,1.8,0,0,1,1.8,1.8v3.605a1.8,1.8,0,0,1-1.8,1.8H303.162a1.8,1.8,0,0,1-1.8-1.8Z" fill="#e3e3e3"/>
  <path d="M301.359,64.987a1.8,1.8,0,0,1,1.8-1.8h37.853a1.8,1.8,0,0,1,1.8,1.8v3.605a1.8,1.8,0,0,1-1.8,1.8H303.162a1.8,1.8,0,0,1-1.8-1.8Z" fill="#e3e3e3"/>
  <path d="M295,103.351a5,5,0,0,1,5-5h55a5,5,0,0,1,5,5v65a5,5,0,0,1-5,5H300a5,5,0,0,1-5-5Z" fill="#fff"/>
  <path d="M294,103.351a6,6,0,0,1,6-6h55a6,6,0,0,1,6,6v65a6,6,0,0,1-6,6H300a6,6,0,0,1-6-6Zm6-4a4,4,0,0,0-4,4v65a4,4,0,0,0,4,4h55a4,4,0,0,0,4-4v-65a4,4,0,0,0-4-4Z" fill="#111" fill-rule="evenodd"/>
  <path d="M301.359,106.109a1.8,1.8,0,0,1,1.8-1.8H351.83a1.8,1.8,0,0,1,1.8,1.8v34.248a1.8,1.8,0,0,1-1.8,1.8H303.162a1.8,1.8,0,0,1-1.8-1.8Z" fill="#e3e3e3"/>
  <path d="M301.359,149.37a1.8,1.8,0,0,1,1.8-1.8H326.6a1.8,1.8,0,0,1,1.8,1.8v3.6a1.8,1.8,0,0,1-1.8,1.8H303.162a1.8,1.8,0,0,1-1.8-1.8Z" fill="#e3e3e3"/>
  <path d="M301.359,161.987a1.8,1.8,0,0,1,1.8-1.8h37.853a1.8,1.8,0,0,1,1.8,1.8v3.605a1.8,1.8,0,0,1-1.8,1.8H303.162a1.8,1.8,0,0,1-1.8-1.8Z" fill="#e3e3e3"/>
  <path d="M295,200.351a5,5,0,0,1,5-5h55a5,5,0,0,1,5,5v65a5,5,0,0,1-5,5H300a5,5,0,0,1-5-5Z" fill="#fff"/>
  <path d="M294,200.351a6,6,0,0,1,6-6h55a6,6,0,0,1,6,6v65a6,6,0,0,1-6,6H300a6,6,0,0,1-6-6Zm6-4a4,4,0,0,0-4,4v65a4,4,0,0,0,4,4h55a4,4,0,0,0,4-4v-65a4,4,0,0,0-4-4Z" fill="#111" fill-rule="evenodd"/>
  <path d="M301.359,203.109a1.8,1.8,0,0,1,1.8-1.8H351.83a1.8,1.8,0,0,1,1.8,1.8v34.248a1.8,1.8,0,0,1-1.8,1.8H303.162a1.8,1.8,0,0,1-1.8-1.8Z" fill="#e3e3e3"/>
  <path d="M301.359,246.37a1.8,1.8,0,0,1,1.8-1.8H326.6a1.8,1.8,0,0,1,1.8,1.8v3.6a1.8,1.8,0,0,1-1.8,1.8H303.162a1.8,1.8,0,0,1-1.8-1.8Z" fill="#e3e3e3"/>
  <path d="M301.359,258.987a1.8,1.8,0,0,1,1.8-1.8h37.853a1.8,1.8,0,0,1,1.8,1.8v3.6a1.8,1.8,0,0,1-1.8,1.8H303.162a1.8,1.8,0,0,1-1.8-1.8Z" fill="#e3e3e3"/>
  <path d="M174.642,211.944l-7.621.749c-12.167.931-24.328,2.875-36.4,4.042a.78.78,0,0,0-1.246-.069c-1.2-.106-2.555-1.028-3.647-.069l-.106-.014a76.74,76.74,0,0,1-4.59-11.707,13.393,13.393,0,0,0-4.02-6.473c-3.531-2.454-11.619-7.43-15.765-7.221a3.085,3.085,0,0,0-.983-2c1.252-2.138-3.754-3.533-4.107-3.285.226-7.142-3.129-13.345-10.526-14.767-6.627-1.383-16.053-1.615-19.617,5.32-.392-.043-4.4-.064-4.784-.021-.6-.764-7.219,6.477-4.507,9-24.244,10.739-38.029,9.458-44.739,39.65-.907,2.836-.974,5.94-1.932,8.713-3.407,7.969-6.172,16.455-6.86,25.126-1.662.427-1.853,3.36.072,3.785a4.5,4.5,0,0,1,1.886.8c-.419,7.106,1.3,23.339,2.378,23.289,2.205,7.027,12.04,9.01,19,6.541-1.2,2.261,0,3.683,0,4.891,25.054.949,52.448.4,77.5,1.705,3.2-.046,6.574.787,9.734.308,1.927-.463,1.93-3.5-.024-3.873l8.542-1.857a32.979,32.979,0,0,0,6.326-7.165c2.611-5.169.834-11.407,2.017-17.029,9.241-.757,18.635-1.081,27.776-2.648,1.246,3.734,6.64-.732,8.355-2.528l-.006-.008a2.088,2.088,0,0,0,1.518-1.929,2.539,2.539,0,0,0,.146-2.811c2.557-14.781,6.457-29.874,7.867-44.794a3.171,3.171,0,0,0,1.365-.666l-.032-.033a1.7,1.7,0,0,0-.319-2.691A3.933,3.933,0,0,0,174.642,211.944Z" fill="#edb98a" fill-opacity="0.7" fill-rule="evenodd"/>
  <path d="M78.024,267.268l1.957,1.247,16.012,5.166,9.784,1.247,8.006-1.247V287.4l1.6,12.828q-1.067,1.959-20.281,0c-8.165-.833-38.008-1.237-44.8-1.415l-.385-.011q-11.829-.345-23.661,0v-4.81l22.238-11.045,19.925-11.225ZM66.679,175.326l1.47,1.1-3.21,5.283,15.64,12.669V204.5l4.951,4.69,2.831-4.69,3.988-5.312,2.834-8.609-.965-5.672,1.941-.183q.014.582-.005,1.173c.353-.248,5.36,1.147,4.108,3.285a3.085,3.085,0,0,1,.983,2c4.145-.209,12.234,4.767,15.764,7.221a13.4,13.4,0,0,1,4.021,6.473l.195.6.2.615.2.613a67.475,67.475,0,0,0,3.987,9.881l.107.014c1.091-.959,2.441-.037,3.646.069a.784.784,0,0,1,1.225.036l.021.033-15.01,2.961-9.9,34.785-8.624-7.01-4.628.689L80.23,252.575l-14.217,3.7-32.456,8.961H29.424l-24.05-5.816L3.207,258.7c.716-8.6,3.463-17.01,6.843-24.915.958-2.773,1.024-5.877,1.931-8.713,6.71-30.192,20.495-28.911,44.739-39.65-2.712-2.521,3.905-9.762,4.507-9l.038,0,.082,0,.106,0c.946-.028,4.206-.007,4.558.032A10.372,10.372,0,0,1,66.679,175.326Z" fill="#fafafa" fill-rule="evenodd"/>
  <path d="M177.039,213l-.446,2.5c-.107.035-.215.065-.324.089q-.213,2.236-.492,4.467l-2.772,15.471c-.478,2.737-.932,5.48-1.383,8.224l-.6,2.947-.369,1.832c-.8,3.967-1.574,7.921-2.255,11.853a1.945,1.945,0,0,1,.241.477l-.052.222-.037.148-.037.146c-.537,2.067-1.471,4.07-3.673,4.679a32.564,32.564,0,0,1-5.2.681l-.191.021-30.005,3.379q-5.437.614-10.873,1.253l-3.141.369c-4.378.508-8.782.908-13.1,1.827a.965.965,0,0,0-.4.18c.868-3.293,1.7-6.581,2.453-9.907.848-3.744,1.654-7.5,2.561-11.225q2.742-11.272,6.12-22.381.707-2.331,1.444-4.651l.345-1.081.266-.862a5.6,5.6,0,0,1,2.126-3.388c1.412-.848,3.337-.989,4.937-1.282l1.085-.2q14.081-2.631,28.342-4.1,12.264-1.257,24.6-1.654Zm-74.474,51.585.077.006-1.121,8.972a1.164,1.164,0,0,0-.684-.2c-3.677.011-7.2-1.166-10.61-2.46l-.519-.2-1.447-.557c-1.471-.564-2.95-1.116-4.457-1.574l-.608-.184-.31-.092a16.582,16.582,0,0,0-3.527-.712l-.162-.008.346-.182a.836.836,0,0,0,.134-.088,7.8,7.8,0,0,0,2-.09,12.372,12.372,0,0,0,3.712-1.313l.517-.28.211-.113.14-.072.139-.07a4.568,4.568,0,0,1,3.2-.543,16.542,16.542,0,0,1,3.955,1.718l.228.114.153.074.156.074.158.072c1.736.782,4.5,1.626,5.165-.737A3.261,3.261,0,0,0,99,263.523C99.863,263.447,101.408,264.468,102.565,264.585Z" fill="#fafafa" fill-rule="evenodd"/>
  <path d="M66.473,174.836a1.569,1.569,0,0,1,3.022.834,10.832,10.832,0,0,1-1.412,3.506A8.453,8.453,0,0,1,66.32,181.5q1.976,1.846,4.084,3.541a50.1,50.1,0,0,0,4.8,3.4c1.457.912,2.98,1.72,4.354,2.761a8.706,8.706,0,0,1,3.032,3.651,7.534,7.534,0,0,1-.107,4.905l-.054.183c-.474,1.6-1.3,3.532-.157,5.041a13.058,13.058,0,0,0,2.151,1.926,16.79,16.79,0,0,1,1.811,1.777,14.7,14.7,0,0,1,2.825,4.7l.055.159c.534,1.542.925,3.432.2,4.947a.548.548,0,0,1-.991-.13c-.262-.957-.248-1.96-.468-2.932a11.08,11.08,0,0,0-1.107-2.876,15.54,15.54,0,0,0-3.8-4.521l-.461-.376a5.973,5.973,0,0,1-2.548-3.667c-.261-1.748.438-3.412.888-5.066a5.712,5.712,0,0,0,.077-3.3,21.35,21.35,0,0,1-1.424,1.891q-1.335,1.71-2.682,3.409c-.917,1.164-1.813,2.347-2.665,3.561q-.572.815-1.134,1.635c-.283.411-.677.821-.985,1.241a.738.738,0,0,1-.067.666c-1.634,2.21-3.959-2.4-4.565-3.568-1.235-2.374-2.154-4.9-3.392-7.269a57.181,57.181,0,0,0-4.375-7.1c-.985-1.359-2.089-2.635-2.991-4.036a28.834,28.834,0,0,1-7.485,4.394c-2.82,1.287-5.75,2.339-8.642,3.456l-.854.333c-4.982,1.947-10.086,4.086-14.227,7.545-4.866,4.064-7.745,9.729-9.889,15.6-2.467,6.753-4.508,13.688-6.41,20.619q-1.462,5.321-2.767,10.682c-.765,3.149-1.4,6.328-2.285,9.445,1.8-.064,3.846.633,5.38.833a89.532,89.532,0,0,1,20.49,4.907,1.458,1.458,0,0,1,.873,1.789l1.411-.4c-.516-.79-.27-2.2-.229-3.079l0-.06c.042-1.168.168-2.337.251-3.5.156-2.222.359-4.427.629-6.635l.069-.553c.306-2.4.533-4.82.867-7.219l.04-.275q-.244-.918-.543-1.823c-.522-1.608-1.259-3.121-1.9-4.679-.076-.183.185-.288.306-.178a12.915,12.915,0,0,1,2.66,3.541c.012-.061.023-.123.036-.185l.079-.392a6.738,6.738,0,0,1,1.021-2.741.144.144,0,0,1,.245,0,7.522,7.522,0,0,1,.711,3.237c.1,1.224.11,2.464.092,3.691-.033,2.4-.2,4.8-.337,7.2-.132,2.353-.391,4.676-.725,7.006l-.063.437c-.163,1.109-.3,2.232-.512,3.333l-.061.3a14.411,14.411,0,0,1-.415,1.956q8.844-2.467,17.715-4.836,6.414-1.715,12.835-3.4a4.764,4.764,0,0,1,.857-1.128,3.267,3.267,0,0,1,4.093-.758.185.185,0,0,1,0,.317c-.269.147-.539.3-.8.456l2.569-.7c1.92-.521,3.863-1.172,5.828-1.535a90.328,90.328,0,0,1,11.327-4.364l.449-.152a43,43,0,0,1,5.99-1.783c1.476-.27,3.21.057,3.8,1.572a23.66,23.66,0,0,1,2.141,1.652c.494.415.967.855,1.448,1.284l.089.078a1.817,1.817,0,0,1,.8,1.115c.05.281-.128.661-.474.623-1.059-.113-1.92-1.342-2.638-2.076-.555-.567-1.114-1.154-1.62-1.777a.629.629,0,0,1-.888-.224c-.974-1.848-3.643-.568-5.119-.13l-2.115.627q-1.587.471-3.171.951c-2.9.882-5.787,1.869-8.714,2.679a.61.61,0,0,1-.271,1,62.522,62.522,0,0,1-7.185,1.984q-2.254.585-4.506,1.178a3.69,3.69,0,0,0-.521,1.44,16.494,16.494,0,0,0,.805,6.311l.081.292c.442,1.572,1.093,3.5,2.448,4.493a2.412,2.412,0,0,0,1.176.449q3.978-2.052,7.958-4.1a.74.74,0,0,1,1.056.5,17.428,17.428,0,0,0,2.719-.685,35.949,35.949,0,0,0,3.883-2.054c2.592-1.239,5.238.283,7.558,1.441l.535.263c1.04.506,3.2,1.477,3.7.094.483-1.337-1.043-2.767-2.029-3.369a13.362,13.362,0,0,0-3.872-1.421q-1.139-.276-2.3-.442a14.239,14.239,0,0,1-2.624-.389.48.48,0,0,1,0-.918,9.7,9.7,0,0,1,4.2.357l.708.175a16.888,16.888,0,0,1,3.987,1.425,7.221,7.221,0,0,1,2.481,2.131,1.91,1.91,0,0,1,1.918-.3l.38.106a3.593,3.593,0,0,0,1.752.174c.081-.447.164-.892.253-1.339q1.305-6.579,2.885-13.1,2.733-11.237,6.3-22.244l.238-.734a26.769,26.769,0,0,1,1.872-5.047,5.958,5.958,0,0,1,3.763-2.743c1.8-.5,3.7-.768,5.541-1.109.411-.076.823-.148,1.234-.223a19.7,19.7,0,0,1-.84-1.887l-.041-.095c-.5-1.146-.953-2.312-1.388-3.484l-.325-.881a43.912,43.912,0,0,0-2.7-6.194,16.1,16.1,0,0,0-4.628-5.209c-3.921-2.882-8.647-4.352-12.449-7.432-.156-.126.044-.342.2-.262,2.567,1.292,5.34,2.17,8.01,3.222l.527.208a26.441,26.441,0,0,1,6.082,3.107,16.914,16.914,0,0,1,4.847,5.626,49.954,49.954,0,0,1,2.787,7.02l.224.627c.339.94.688,1.877,1.088,2.792a26.485,26.485,0,0,1,1.181,2.385q1.105-.193,2.212-.381a354.319,354.319,0,0,1,48.357-4.7.914.914,0,0,1,.868,1.142c-1.554,9.207-2.936,18.446-4.452,27.661q-.993,6.032-2.028,12.056c-.35,2.035-.755,4.062-1.086,6.1a42.535,42.535,0,0,1-.921,4.912,9.366,9.366,0,0,1-2.083,3.931A7.447,7.447,0,0,1,164.16,269c-3.993.688-8.088.969-12.113,1.427l-21.428,2.442a53.117,53.117,0,0,1,.193,8.54l-.082,1.574c-.067,1.266-.147,2.534-.328,3.787a7.646,7.646,0,0,1-2,4.077,24.311,24.311,0,0,1-3.3,2.88,16.655,16.655,0,0,1-3.823,2.364l-.182.073a11.54,11.54,0,0,1-5.213.952c.219,1.1.644,2.286.267,3.376a.749.749,0,0,1-1.24.328,5.49,5.49,0,0,1-1.055-3.094c-.2-1.159-.368-2.322-.52-3.487-.293-2.255-.52-4.529-.59-6.8q-.106-3.5.082-7c.064-1.2.144-2.394.3-3.584.065-.508.131-1.015.207-1.521.027-.185.058-.369.091-.552L111.5,275c-2.949.33-5.9.627-8.869.674a.946.946,0,0,1-.447-.1.96.96,0,0,1-.352-.293,1.1,1.1,0,0,1-.986.526c-4.148-.016-8.01-1.374-11.783-2.974-1.9-.807-3.773-1.681-5.677-2.481-1.778-.747-3.678-1.28-5.413-2.121l-4.558,2.394a1.882,1.882,0,0,1-.122.322,2.639,2.639,0,0,1-1.479,1.184,3.56,3.56,0,0,1-1.746.252q-5.185,2.721-10.375,5.434l-3.46,1.807c-6.895,3.6-13.763,7.249-20.7,10.759l-.511.258a61.876,61.876,0,0,1-7.629,3.334,13.373,13.373,0,0,0,.039,2.043l.013.155c.08.843.25,1.9-.426,2.5a.784.784,0,0,1-1.218-.157c-.433-.854-.044-2.2.093-3.126a9.135,9.135,0,0,1,.2-1,20.716,20.716,0,0,1-9.293.84A11.98,11.98,0,0,1,9.546,290.5a21.543,21.543,0,0,1-4.164-8.4,43.366,43.366,0,0,1-.9-10.69,98.628,98.628,0,0,1,.626-11.436,5.517,5.517,0,0,0-1.584-.187,1.229,1.229,0,0,1-1.192.525c-.968,1.07,1.488,2.163,2.273,2.437.272.095.243.538-.071.525l-.2-.01a3.642,3.642,0,0,1-3.179-1.4,2.2,2.2,0,0,1,.281-2.715,97.747,97.747,0,0,1,2.527-12.564c.982-4.079,2.075-8.132,3.233-12.164l.519-1.8a177.342,177.342,0,0,1,6.244-18.767,40.136,40.136,0,0,1,4.663-8.651,29.7,29.7,0,0,1,6.467-6.373c4.625-3.358,10.052-5.387,15.383-7.32l.239-.086c2.763-1,5.519-2.014,8.251-3.1,2.416-.959,4.73-2.175,7.135-3.149-.079-.142-.154-.285-.226-.431l-.045.038-.023.017a.669.669,0,0,1-.8-.1c-.562-.532-.372-1.122,0-1.673l.049-.071c.459-.644.869-1.326,1.293-1.993l.265-.418a17.325,17.325,0,0,1,2.408-3.16,5.16,5.16,0,0,1,1.431-.985c-.044-.093.338-.281.447-.186a12.157,12.157,0,0,1,5.233-.305Zm63.109,98.155-2.245.255q-3.7.423-7.412.823l-5.368.585c-.014.306-.051.606-.058.837-.035,1.193-.061,2.387-.086,3.581q-.073,3.588.162,7.174c.153,2.314.354,4.628.666,6.926l.063.459.038.242a1.045,1.045,0,0,1,.712.394c.454.543,2.1.015,2.74-.213a13.078,13.078,0,0,0,2.968-1.65,18.976,18.976,0,0,0,2.478-2.112l.634-.629a8.125,8.125,0,0,0,1.649-2.086,11.519,11.519,0,0,0,.746-3.553c.19-1.435.415-2.87.653-4.3ZM64.406,257.929l-.233.061c-8.46,2.251-16.907,4.569-25.392,6.72-4.2,1.065-8.419,2.053-12.623,3.1l-.681.171c-3.317.839-6.674,1.85-9.213,4.259a.1.1,0,0,1-.142-.142c2.737-2.918,6.631-4.154,10.369-5.224.691-.2,1.383-.392,2.074-.588a121.912,121.912,0,0,0-15.531-4.521c-1.361-.29-2.737-.5-4.1-.794-.948-.2-1.874-.5-2.812-.74l-.739-.186-.009,2.336c-.012,3.307-.006,6.612.162,9.919l.032.612A36.357,36.357,0,0,0,7.38,283.817a19.887,19.887,0,0,0,4.958,7.53,8.962,8.962,0,0,0,3.805,2.248,12.9,12.9,0,0,0,4.242.315c6.8-.475,12.855-4.175,18.763-7.238q14.493-7.52,29-15.01a4.683,4.683,0,0,1-.731-.617,10.818,10.818,0,0,1-2.431-4.956,26.132,26.132,0,0,1-.8-5.877ZM76.714,273.6a.123.123,0,0,1,.062-.017.127.127,0,0,1,.063.017.138.138,0,0,1,.045.045.118.118,0,0,1,.018.063,4.981,4.981,0,0,1-.684,2.136l-.032.071q-.561,1.239-1.2,2.442-1.257,2.4-2.62,4.748a56.236,56.236,0,0,1-6.266,8.89c-.543.619-1.436-.174-1.087-.84a99.448,99.448,0,0,1,5.652-9.241q1.514-2.256,3.036-4.506.636-.939,1.3-1.859l.267-.367Zm100.331-60.588q-12.735.381-25.417,1.68-14.25,1.465-28.343,4.1l-.972.183c-1.622.308-3.6.435-5.048,1.3-1.523.915-1.935,2.827-2.441,4.4q-.894,2.783-1.741,5.578-3.364,11.1-6.12,22.382c-.907,3.73-1.712,7.481-2.561,11.224-.753,3.327-1.585,6.615-2.454,9.908a.975.975,0,0,1,.4-.181c4.313-.919,8.717-1.318,13.1-1.826l.424-.049q6.792-.8,13.59-1.574l30.006-3.379a35.093,35.093,0,0,0,5.387-.7c2.928-.808,3.615-4.086,4.106-6.7l.015-.079c1.481-7.887,2.66-15.844,4.041-23.751Zm-74.4,51.591c-1.165-.077-2.76-1.145-3.643-1.069a3.272,3.272,0,0,1,.406,2.619c-.745,2.642-4.11,1.275-5.731.468a17.476,17.476,0,0,0-4.084-1.783c-1.667-.351-2.8.313-4.2,1.078a12.419,12.419,0,0,1-3.712,1.313,7.755,7.755,0,0,1-2,.089.774.774,0,0,1-.134.088l-.346.182a19.314,19.314,0,0,1,4.607,1c1.507.457,2.986,1.01,4.457,1.574l1.447.557c3.57,1.369,7.265,2.669,11.129,2.658a1.157,1.157,0,0,1,.684.2Zm-6.518-8.28a3.937,3.937,0,0,1,3.133.761c1.109.9,1.854,2.4,3.448,2.5a.42.42,0,0,1,.111.82,2.913,2.913,0,0,1-2.956-1.126l-.543-.568a3.54,3.54,0,0,0-2.893-1.42c-1.451.053-2.906.389-4.349.56q-2.451.291-4.907.5c-.077.006-.09-.114-.018-.132l1.836-.457Zm-1.111-4.711.19-.019a7.175,7.175,0,0,1,4.692.731l.286.173a10.886,10.886,0,0,1,3.652,3.111.287.287,0,0,1-.32.417c-1.617-.389-2.8-1.577-4.16-2.466-1.526-1-3.1-.834-4.843-.679-1.686.15-3.37.356-5.038.638-1.568.264-3.141.681-4.725.814v0c-.18,0-.284-.272-.1-.364a21.629,21.629,0,0,1,5.217-1.552ZM37.792,206.1a.135.135,0,0,1,.249-.067,28.014,28.014,0,0,1,2.235,6.374c.607,2.211,1.1,4.445,1.537,6.694a73.77,73.77,0,0,1,1.4,13.729c0,.663-1.074.839-1.18.16-.7-4.517-1.371-9.038-2.077-13.553-.355-2.271-.768-4.533-1.164-6.8Zm10.765,3.337c-.08-.264.3-.353.4-.111a28,28,0,0,1,1.52,17.1c-.214.866-1.48.491-1.319-.364Zm28.148-4.767c-.011-.2.245-.228.342-.092,1.034,1.458,1.463,3.412,3.277,4.166.906.377,1.925.311,2.725.947a1.335,1.335,0,0,1,.544,1.741.428.428,0,0,1-.668.086,4.07,4.07,0,0,0-.741-.971,5.511,5.511,0,0,0-1.718-.534,4.185,4.185,0,0,1-1.9-1.132Zm17.274-24.333a.208.208,0,0,1,.277.072.228.228,0,0,1-.033.35,8.378,8.378,0,0,1,.374,1.261c.108.482.225.961.346,1.439.244.965.458,1.938.7,2.9q.393,1.536.912,3.034c.022.064.047.131.072.2l.04.1.009-.015a.109.109,0,0,1,.2.084c-.016.106-.037.213-.055.319l.036.095a1.772,1.772,0,0,1-.034,1.78.841.841,0,0,1-.536.354,30.83,30.83,0,0,1-1.221,3.277l-.134.308a18.382,18.382,0,0,1-2.454,4.374c-1.166,1.432-2.77,2.41-3.786,3.98a9.7,9.7,0,0,0-1.068,2.322l-.1.313a2.506,2.506,0,0,1-.954,1.491A.481.481,0,0,1,86,208.3c-1.121-1.186.052-3.4.728-4.551a16.345,16.345,0,0,1,3.658-3.826,16.145,16.145,0,0,0,3.308-4.749c.554-1.049,1.09-2.121,1.653-3.175a4.768,4.768,0,0,1-.977-2.275l-.018-.064a25.814,25.814,0,0,1-.757-3.521,19.4,19.4,0,0,1-.183-3.415l.012-.292Zm2.189,5.432c-.13-.178.085-.381.264-.343a12.054,12.054,0,0,1,3.119,1.414l.1.056a4.375,4.375,0,0,1,1.967,1.749,5.557,5.557,0,0,1,.347,2.871l-.006.09a23.943,23.943,0,0,1-.33,3.489.816.816,0,0,1-1.1.607c-.534,1.689-2.034,2.933-3.13,4.265-1.4,1.7-1.134,3.993-.988,6.039.059.829-.97,1.064-1.5.622L93.7,205.613q-.306-.254-.609-.51-.261-.219-.516-.442l-.255-.225c-.113-.1-.611-.659-.757-.682-.353-.056-1.191.875-1.478,1.167l-.037.037a14.961,14.961,0,0,0-1.483,1.706.109.109,0,0,1-.187-.11,15.477,15.477,0,0,1,1.443-2.491l.114-.156c.374-.5.876-1.4,1.537-1.545.806-.182,1.611.628,2.2,1.077l.037.029c.279.209.555.422.831.637a8.1,8.1,0,0,1,.949-4.375,16.628,16.628,0,0,1,2.093-2.407c.791-.886,1.2-1.975,1.919-2.9a.537.537,0,0,1,.356-.2c.028-.742.137-1.491.221-2.225l.025-.219a4.53,4.53,0,0,0-.1-2.518,6.132,6.132,0,0,0-1.839-1.681l-.511-.4Zm-35.21-8.43a3.954,3.954,0,0,0-.909.719,15.157,15.157,0,0,0-2.1,3.188c-.327.6-.642,1.2-.971,1.8q-.215.388-.439.772c-.069.118-.274.352-.375.5.112.158.229.314.348.467.045.059,3.173,3.471,4.263,4.807a43.586,43.586,0,0,1,4.438,6.518c1.249,2.264,2.2,4.662,3.357,6.971a17.435,17.435,0,0,0,2.051,3.3c.032.039.065.076.1.114a10.113,10.113,0,0,1,1.517-2.286l.037-.05c.9-1.212,1.847-2.388,2.816-3.544q1.327-1.581,2.723-3.1l.35-.38a10.373,10.373,0,0,1,2.419-2.25,4.587,4.587,0,0,0-.355-.538,12.03,12.03,0,0,0-3.384-2.768l-.8-.489A55.353,55.353,0,0,1,67.4,184.9a35.217,35.217,0,0,1-3.933-4.085l-.413-.524Zm5.054-.915a17.4,17.4,0,0,0-4.261.553c1.165,1.1,2.273,2.295,3.411,3.417a22.811,22.811,0,0,1,.484-2.248" fill-rule="evenodd"/>
  <path d="M109.456,147.01a82.551,82.551,0,0,1,.146-10.841c.209-2.705-1.054-13.388-3.442-12.4-4-3.182-9.34-3.885-14.329-4.221-10.362-.7-21.385.9-29.387,7.9-3.957,3.635-7.809,8.92-7.5,14.424-3.595,5.217-8.663,12.373-4.184,18.472,1.522,1.948,3.942,2.674,5.855,4.149,3.848,3.115,6.261,7.584,10.145,10.68,10.29,9.279,27.762,11.217,37.872.663,7.817-7.644,6.553-19.079,5.178-28.824C108.887,140.459,110.2,153.585,109.456,147.01Z" fill="#edb98a" fill-opacity="0.7" fill-rule="evenodd"/>
  <path d="M77.988,105.254a36.016,36.016,0,0,1,8.447-.805l.218.008c2.129.086,4.826.275,6.684,1.517a.384.384,0,0,1,.434-.088,57.386,57.386,0,0,0,6.96,2.582,31.4,31.4,0,0,0,7.138,1.456,1.311,1.311,0,0,1,1.116,1.951q-.206.316-.405.638l.669-.07a1.43,1.43,0,0,1,1.423,1.429,13.328,13.328,0,0,1-.147,1.337,1.959,1.959,0,0,1,.825.15c1.36.576,1.265,2.2,1.163,3.437a8.183,8.183,0,0,1-1.967,4.815,7.831,7.831,0,0,1,1.888,3.337,8.637,8.637,0,0,1,.348,2.972l-.024.3a4.809,4.809,0,0,1-1.05,3.055,1.65,1.65,0,0,1-1.355.5c.282,2.49.464,5,.634,7.491l.08,1.193c.38,5.769.666,11.576.591,17.354-.069,5.4-1.133,10.641-4.433,15.026a21.408,21.408,0,0,1-12.2,8.054,21.66,21.66,0,0,1-7.98.262,18.872,18.872,0,0,1-3.816-.926,7.271,7.271,0,0,1-3.243-2.35c-.431-.526-.224-1.645.636-1.54a20.641,20.641,0,0,1,3.732.735l.179.057a18.407,18.407,0,0,0,3.823.822,19.792,19.792,0,0,0,7.9-.81,18.618,18.618,0,0,0,10-7.948c2.717-4.375,3.024-9.342,2.985-14.373q-.065-8.281-.514-16.561l-.049-.919q-.233-4.257-.435-8.518c-.041-.89-.1-1.788-.215-2.677a7.056,7.056,0,0,1-2.54-2.457,25.379,25.379,0,0,1-3.629,1.146,21.135,21.135,0,0,1-8.233.409q-1.109.46-2.26.809-.31.138-.62.271a37.78,37.78,0,0,1-5.669,1.956l-.479.12a19.456,19.456,0,0,1-3.232.582,4.794,4.794,0,0,1-.584.18,9.5,9.5,0,0,1-3.044.233,1.367,1.367,0,0,1-1.163-2.032q.6-1.032,1.209-2.058a38.5,38.5,0,0,1-4.349,1.5c-1.488.42-3,.775-4.508,1.1-.808.173-1.619.326-2.425.5a4.933,4.933,0,0,0-1.934.568c-.52.419-.667,1.395-.864,2q-.39,1.173-.724,2.363a48.691,48.691,0,0,0-1.085,4.819,46.41,46.41,0,0,0-.574,4.917c-.1,1.646-.058,3.3-.227,4.942a1.013,1.013,0,0,1-1.707.709q-.122-.107-.243-.216l-.12-.11a12.109,12.109,0,0,1-1.627-1.739q-.129-.177-.244-.365a.057.057,0,0,1-.035-.012l-.131-.1c-1.435-1.072-3.834-2.471-5.234-.689a5.509,5.509,0,0,0-.864,1.988l-.333,1.248a21.516,21.516,0,0,0-.536,2.467,6.949,6.949,0,0,0,1.147,5.516,3.27,3.27,0,0,0,2,1.138,4.942,4.942,0,0,0,1.307-.069c.442-.056.868.034,1.311-.009.7-.069,1.01.775.747,1.306a3.277,3.277,0,0,1-.5.739,5.825,5.825,0,0,1,.438.424,2.178,2.178,0,0,1,1.067.8,1.819,1.819,0,0,1,.363.991c.024.087.045.176.065.267l.381.62c.084.136.167.271.251.4a19.383,19.383,0,0,0,3.382,4.051c1.287,1.176,2.684,2.229,3.893,3.49l.143.15c1.127,1.192,2.315,2.635,1.874,4.368a.779.779,0,0,1-1.138.465c-1.3-.969-1.956-2.5-3.06-3.681-1.137-1.211-2.4-2.3-3.535-3.508a13.844,13.844,0,0,1-2.569-3.853,1.858,1.858,0,0,1-1.145.563,2.053,2.053,0,0,1-2.1-1.16,7.058,7.058,0,0,1-.758.289,1.516,1.516,0,0,1-1.685-2.2,5.416,5.416,0,0,1,1.032-1.546,6.531,6.531,0,0,1-3.519-1.716c-2.17-2.14-2.468-5.355-1.979-8.215a21.606,21.606,0,0,1,1.286-4.473q.153-.377.329-.743a.256.256,0,0,1-.1-.023.238.238,0,0,1-.078-.063,10.765,10.765,0,0,1-1.161-1.58c-.268-.552-.566-1.112-.778-1.687a16.47,16.47,0,0,1-.79-3.752,28.5,28.5,0,0,1,.21-7.617,30.764,30.764,0,0,1,4.617-12.067,2.048,2.048,0,0,1-.365-.246l-.057-.05-.092-.083a1.7,1.7,0,0,1,0-2.373l.194-.2a5.148,5.148,0,0,1,.854-.7c.059-.039.119-.076.179-.111a1.72,1.72,0,0,1-.135-1.333c.5-1.73,2.986-1.669,4.559-.914a28.353,28.353,0,0,1,5.762-4.008A61.436,61.436,0,0,1,77.988,105.254ZM52.237,150.845c.93-.305,2.166.335,3,.72a12.017,12.017,0,0,1,2.835,1.972,1.6,1.6,0,0,1,.405,1.537c-.011.054-.021.109-.034.164a1.367,1.367,0,0,1-1.306,1c-1.17-.032-1.728-1.046-2.39-1.905a1.229,1.229,0,0,1-.3.364l-.081.064a1.443,1.443,0,0,1-.941.362,1.75,1.75,0,0,1-.732-.2,1.48,1.48,0,0,1-.664-1.639,1.528,1.528,0,0,1,.6-.878l-.107-.074a2.123,2.123,0,0,1-.6-.579l-.037-.058h.015A.578.578,0,0,1,52.237,150.845Z" fill-rule="evenodd"/>
  <path d="M96.178,168.774a7.017,7.017,0,0,1-7.4-2.155,4.877,4.877,0,0,1-1.285-3.236.529.529,0,0,1,.126-.339.6.6,0,0,1,.314-.189.582.582,0,0,1,.367.032.493.493,0,0,1,.242.239c.137.18.274.358.411.53a6.733,6.733,0,0,0,3.826,2.747,4.661,4.661,0,0,0,2.621-.192,5.6,5.6,0,0,0,2.3-1.622,1.231,1.231,0,0,1,.942-.465,1.446,1.446,0,0,1,1.01.443,1.564,1.564,0,0,1,.467,1.021,1.358,1.358,0,0,1-.387,1A7.887,7.887,0,0,1,96.178,168.774Zm-.041-17.066c1.344.817,3.391,2.724,1.946,4.752-1.7,1.787-4.151-.262-5.358-1.189-1.119-.719-2.377,1.129-1.338,1.968,8.721,6.466,12.261-5.318,5.43-6.493C96.065,150.617,95.785,151.455,96.137,151.708Zm-12.567-3.6a1.5,1.5,0,0,0-1.5-.115,4.912,4.912,0,0,0-1.749,1.746,3.475,3.475,0,0,0-.574,2.04.461.461,0,0,1-.149.389.585.585,0,0,1-.324.144.841.841,0,0,1-.342-.031.511.511,0,0,1-.338-.291,4.257,4.257,0,0,1,.207-3.123,6.37,6.37,0,0,1,2.278-2.863,3.8,3.8,0,0,1,3.683-.017,6.792,6.792,0,0,1,2.218,2.32c.13.19.26.379.394.565a1.141,1.141,0,0,1,.191,1.058,1.364,1.364,0,0,1-.776.8,1.4,1.4,0,0,1-1.08.016,1.375,1.375,0,0,1-.736-.778A4.118,4.118,0,0,0,83.57,148.109Zm21.93,1.541a1.021,1.021,0,0,1-.855.1,1.218,1.218,0,0,1-.5-.3.994.994,0,0,1-.279-.5,2.067,2.067,0,0,0-.724-1.207,1.451,1.451,0,0,0-1.156-.305,2.215,2.215,0,0,0-1.244.747,2.769,2.769,0,0,0-.269.394,2.8,2.8,0,0,1-.517.68.5.5,0,0,1-.32.12.489.489,0,0,1-.142-.022,1.5,1.5,0,0,1-.551-1.2,2.185,2.185,0,0,1,.4-1.113,4.4,4.4,0,0,1,2.348-1.673,3.492,3.492,0,0,1,2.749.594,3.9,3.9,0,0,1,1.593,2.44,1.3,1.3,0,0,1-.065.721A1.011,1.011,0,0,1,105.5,149.65ZM85.744,139.216a3.089,3.089,0,0,1-2,.746,8.992,8.992,0,0,0-3.473,1.049,9.059,9.059,0,0,0-2.3,1.634c-.149.16-.29.328-.431.5s-.252.3-.383.444c-.15.164-.292.335-.434.506a2.314,2.314,0,0,0-.122.217c-.027.056-.058.118-.093.185-.05.1-.105.19-.164.282-.1.165-.151.211-.2.232a.412.412,0,0,1-.217.041.363.363,0,0,1-.188-.092,1.382,1.382,0,0,1-.384-1.126,4.852,4.852,0,0,1,.5-1.893,10.206,10.206,0,0,1,2.174-2.993,10.583,10.583,0,0,1,3.419-2.086,6.96,6.96,0,0,1,2.588-.535,2.555,2.555,0,0,1,1.714.676,1.5,1.5,0,0,1,.448,1.1A1.568,1.568,0,0,1,85.744,139.216ZM106.7,144.5a.322.322,0,0,1-.148.13.342.342,0,0,1-.369-.062.329.329,0,0,1-.1-.17,5.2,5.2,0,0,0-2.783-3.841,11.7,11.7,0,0,0-2.593-.873c-.253-.061-.521-.1-.79-.139a3.259,3.259,0,0,1-2.246-.948,1.828,1.828,0,0,1-.393-1.421,1.51,1.51,0,0,1,.82-1.118c1.2-.621,2.686-.012,3.9.507l.264.112a9.06,9.06,0,0,1,3.149,2.1,6.845,6.845,0,0,1,1.618,2.994A3.606,3.606,0,0,1,106.7,144.5Z" fill-rule="evenodd"/>
  <path d="M80.288,170.027a12.07,12.07,0,0,1,8.2-6.771,24.065,24.065,0,0,1,8.157-.38,15.909,15.909,0,0,1,4.28.778,6.277,6.277,0,0,1,2.774,2.3,13.054,13.054,0,0,1,1.8,3.935c.056.2.109.4.159.6a3.579,3.579,0,0,1-1.511,2.6,6.6,6.6,0,0,1-3.2,1c-.11-.053-.217-.107-.315-.163-1.756-1.007-2.992-3.386-5.208-3.064-1.978.288-3.28,2.78-4.456,4.241a15.462,15.462,0,0,1-10.62-2.857A6.279,6.279,0,0,1,80.288,170.027Zm27.937-2.563a14.543,14.543,0,0,0-1.134-2.445,13.886,13.886,0,0,0-6.495-5.768c-6.426-2.756-14.741-.813-19.931,3.7a12.566,12.566,0,0,0-4.107,6.258.906.906,0,0,0-.441.235c-3.749-2.364-7.611-4.639-10.632-7.915a21.074,21.074,0,0,1-4.655-8.3.243.243,0,0,0-.475.065l.011.2c-.039-.122-.224-.059-.238.058-.5,3.762-1.132,7.75-.552,11.531a12.021,12.021,0,0,0,2.737,5.691,56.325,56.325,0,0,0,4.822,5.395,19.627,19.627,0,0,0,3.52,3.124,41.761,41.761,0,0,0,4.909,2.335c1.665.726,3.355,1.4,5.076,1.978a47.47,47.47,0,0,0,10.617,2.326c2.9.281,6.21.589,8.987-.5a12.146,12.146,0,0,0,5.209-4.168,19.9,19.9,0,0,0,3.3-6.619C109.432,172.177,108.367,167.862,108.225,167.464Z" fill-rule="evenodd"/>
  <path d="M111.138,153.3c-1.2,1.611-3.419,2.124-5.467,1.947-4.418-.426-5.808-5.45-5.953-9.355,2.963.834-.25-5.076,9.876-5.726,3.57-.3,2.585,1.861,4.163,3.439C113.724,146.918,113.174,150.515,111.138,153.3ZM90.1,149.5c-2.609,12.232-16.89,9.322-18.391-1.7,1.386-.98,1.021-3.4,2.742-4.273,2.727-1.746,6.137-1.671,9.235-1.63,3.959.272,5.088,1.915,7.121,3.707A24.972,24.972,0,0,1,90.1,149.5Zm26.7-11.354c-.146-.025-.293-.048-.439-.07a1.336,1.336,0,0,0-.405-.145,6.876,6.876,0,0,0-1.065-.184c-5.076-1.144-16.819.48-17.3,4.818-1.616.54-3.015.056-4.888.1-1.426-5.969-26.081-5.127-27.267-1.527l-.013,0a18.5,18.5,0,0,0-4.123-.324,35.734,35.734,0,0,0-8.3.778c-5.1.812-12.064,1.762-8.516,8.142l0,0h0a1.008,1.008,0,0,0,1.688-.728c-1.193-3.022,1.5-3.385,3.575-4.254a34.713,34.713,0,0,1,15.743-1.538,3.848,3.848,0,0,0,1.655,1.1c3.567.593,1.687,3.243,3.941,3.628-.414,9.236,10.784,14.278,17.272,8.206,2.59-2.536,3.208-6.293,3.808-9.68A.9.9,0,0,0,92.8,146a4.161,4.161,0,0,1,2.754-1.679,4.928,4.928,0,0,1,2.83.34,2.694,2.694,0,0,0,.131.24.92.92,0,0,0,.27.291c-1.491,9.2,5.639,15.013,12.837,10.243,3.127-2.946,3.788-7.457,3.919-11.483a1.218,1.218,0,0,0,.545-1.377,1.744,1.744,0,0,1,1.028-1.979A1.353,1.353,0,0,0,116.8,138.144Z" fill-rule="evenodd"/>
  <path d="M139.541,233.831l2.164-.125a1.107,1.107,0,0,1,1.209,1.374l-.73,3.926,2.506-.144.564-3.029a1.9,1.9,0,0,1,.63-1.06c.35-.307.72-.633,1.068-.941a1.907,1.907,0,0,1,1.132-.492l2.164-.124a1.108,1.108,0,0,1,1.21,1.373l-2.378,12.788a1.9,1.9,0,0,1-.631,1.06c-.35.307-.72.632-1.068.941a1.9,1.9,0,0,1-1.131.492l-2.165.124a1.107,1.107,0,0,1-1.209-1.373l.709-3.814-2.506.144-.542,2.916a1.908,1.908,0,0,1-.631,1.061c-.35.306-.72.632-1.068.941a1.9,1.9,0,0,1-1.131.491l-2.165.125a1.107,1.107,0,0,1-1.209-1.374l2.377-12.787a1.908,1.908,0,0,1,.631-1.061c.35-.306.72-.632,1.068-.941A1.9,1.9,0,0,1,139.541,233.831Z" fill="#111"/>
  <path d="M138.928,235.308a.458.458,0,0,1,.4-.356l2.164-.124a.255.255,0,0,1,.279.317l-.876,4.711a.256.256,0,0,0,.279.317l5.012-.288a.459.459,0,0,0,.405-.356l.876-4.711a.457.457,0,0,1,.4-.356l2.164-.125a.256.256,0,0,1,.279.317l-2.377,12.788a.459.459,0,0,1-.405.356l-2.164.125a.256.256,0,0,1-.279-.317l.855-4.6a.255.255,0,0,0-.279-.317l-5.012.287a.458.458,0,0,0-.4.357l-.855,4.6a.459.459,0,0,1-.405.356l-2.164.124a.255.255,0,0,1-.279-.317Z" fill="#fff"/>
</svg>
